<svg viewBox="0 0 413 226" fill="none" xmlns="http://www.w3.org/2000/svg">
<rect x="1" y="1" width="298" height="38" stroke="black" stroke-width="2"/>
<path d="M108.852 21.125V29H106.841V11.5455H108.852V17.9545H109.023C109.33 17.2784 109.79 16.7415 110.403 16.3438C111.023 15.9403 111.847 15.7386 112.875 15.7386C113.767 15.7386 114.548 15.9176 115.219 16.2756C115.889 16.6278 116.409 17.1705 116.778 17.9034C117.153 18.6307 117.341 19.5568 117.341 20.6818V29H115.33V20.8182C115.33 19.7784 115.06 18.9744 114.52 18.4062C113.986 17.8324 113.244 17.5455 112.295 17.5455C111.636 17.5455 111.045 17.6847 110.523 17.9631C110.006 18.2415 109.597 18.6477 109.295 19.1818C109 19.7159 108.852 20.3636 108.852 21.125ZM126.509 29.2727C125.248 29.2727 124.16 28.9943 123.245 28.4375C122.336 27.875 121.634 27.0909 121.14 26.0852C120.651 25.0739 120.407 23.8977 120.407 22.5568C120.407 21.2159 120.651 20.0341 121.14 19.0114C121.634 17.983 122.322 17.1818 123.202 16.608C124.089 16.0284 125.123 15.7386 126.305 15.7386C126.987 15.7386 127.66 15.8523 128.325 16.0795C128.989 16.3068 129.594 16.6761 130.14 17.1875C130.685 17.6932 131.12 18.3636 131.444 19.1989C131.768 20.0341 131.93 21.0625 131.93 22.2841V23.1364H121.839V21.3977H129.884C129.884 20.6591 129.737 20 129.441 19.4205C129.151 18.8409 128.737 18.3835 128.197 18.0483C127.663 17.7131 127.032 17.5455 126.305 17.5455C125.504 17.5455 124.81 17.7443 124.225 18.142C123.646 18.5341 123.2 19.0455 122.887 19.6761C122.575 20.3068 122.418 20.983 122.418 21.7045V22.8636C122.418 23.8523 122.589 24.6903 122.93 25.3778C123.276 26.0597 123.756 26.5795 124.37 26.9375C124.984 27.2898 125.697 27.4659 126.509 27.4659C127.038 27.4659 127.515 27.392 127.941 27.2443C128.373 27.0909 128.745 26.8636 129.058 26.5625C129.37 26.2557 129.612 25.875 129.782 25.4205L131.725 25.9659C131.521 26.625 131.177 27.2045 130.694 27.7045C130.211 28.1989 129.614 28.5852 128.904 28.8636C128.194 29.1364 127.396 29.2727 126.509 29.2727ZM138.842 29.3068C138.012 29.3068 137.259 29.1506 136.583 28.8381C135.907 28.5199 135.37 28.0625 134.972 27.4659C134.575 26.8636 134.376 26.1364 134.376 25.2841C134.376 24.5341 134.523 23.9261 134.819 23.4602C135.114 22.9886 135.509 22.6193 136.004 22.3523C136.498 22.0852 137.043 21.8864 137.64 21.7557C138.242 21.6193 138.847 21.5114 139.455 21.4318C140.251 21.3295 140.896 21.2528 141.39 21.2017C141.89 21.1449 142.254 21.0511 142.481 20.9205C142.714 20.7898 142.83 20.5625 142.83 20.2386V20.1705C142.83 19.3295 142.6 18.6761 142.14 18.2102C141.685 17.7443 140.995 17.5114 140.069 17.5114C139.109 17.5114 138.356 17.7216 137.81 18.142C137.265 18.5625 136.881 19.0114 136.66 19.4886L134.751 18.8068C135.092 18.0114 135.546 17.392 136.114 16.9489C136.688 16.5 137.313 16.1875 137.989 16.0114C138.671 15.8295 139.342 15.7386 140.001 15.7386C140.421 15.7386 140.904 15.7898 141.45 15.892C142.001 15.9886 142.532 16.1903 143.043 16.4972C143.56 16.804 143.989 17.267 144.33 17.8864C144.671 18.5057 144.842 19.3352 144.842 20.375V29H142.83V27.2273H142.728C142.592 27.5114 142.364 27.8153 142.046 28.1392C141.728 28.4631 141.305 28.7386 140.776 28.9659C140.248 29.1932 139.603 29.3068 138.842 29.3068ZM139.148 27.5C139.944 27.5 140.614 27.3438 141.16 27.0312C141.711 26.7188 142.126 26.3153 142.404 25.821C142.688 25.3267 142.83 24.8068 142.83 24.2614V22.4205C142.745 22.5227 142.558 22.6165 142.268 22.7017C141.984 22.7812 141.654 22.8523 141.279 22.9148C140.91 22.9716 140.549 23.0227 140.197 23.0682C139.85 23.108 139.569 23.142 139.353 23.1705C138.83 23.2386 138.342 23.3494 137.887 23.5028C137.438 23.6506 137.075 23.875 136.796 24.1761C136.523 24.4716 136.387 24.875 136.387 25.3864C136.387 26.0852 136.646 26.6136 137.163 26.9716C137.685 27.3239 138.347 27.5 139.148 27.5ZM153.456 29.2727C152.365 29.2727 151.402 28.9972 150.567 28.446C149.732 27.8892 149.078 27.1051 148.607 26.0938C148.135 25.0767 147.899 23.875 147.899 22.4886C147.899 21.1136 148.135 19.9205 148.607 18.9091C149.078 17.8977 149.734 17.1165 150.575 16.5653C151.416 16.0142 152.388 15.7386 153.49 15.7386C154.342 15.7386 155.016 15.8807 155.51 16.1648C156.01 16.4432 156.391 16.7614 156.652 17.1193C156.919 17.4716 157.126 17.7614 157.274 17.9886H157.445V11.5455H159.456V29H157.513V26.9886H157.274C157.126 27.2273 156.916 27.5284 156.643 27.892C156.371 28.25 155.982 28.571 155.476 28.8551C154.97 29.1335 154.297 29.2727 153.456 29.2727ZM153.729 27.4659C154.536 27.4659 155.217 27.2557 155.774 26.8352C156.331 26.4091 156.754 25.821 157.044 25.071C157.334 24.3153 157.479 23.4432 157.479 22.4545C157.479 21.4773 157.337 20.6222 157.053 19.8892C156.768 19.1506 156.348 18.5767 155.791 18.1676C155.234 17.7528 154.547 17.5455 153.729 17.5455C152.876 17.5455 152.166 17.7642 151.598 18.2017C151.036 18.6335 150.612 19.2216 150.328 19.9659C150.05 20.7045 149.911 21.5341 149.911 22.4545C149.911 23.3864 150.053 24.233 150.337 24.9943C150.626 25.75 151.053 26.3523 151.615 26.8011C152.183 27.2443 152.888 27.4659 153.729 27.4659ZM163.419 29V15.9091H165.43V29H163.419ZM164.442 13.7273C164.05 13.7273 163.712 13.5938 163.428 13.3267C163.149 13.0597 163.01 12.7386 163.01 12.3636C163.01 11.9886 163.149 11.6676 163.428 11.4006C163.712 11.1335 164.05 11 164.442 11C164.834 11 165.169 11.1335 165.447 11.4006C165.732 11.6676 165.874 11.9886 165.874 12.3636C165.874 12.7386 165.732 13.0597 165.447 13.3267C165.169 13.5938 164.834 13.7273 164.442 13.7273ZM171.126 21.125V29H169.114V15.9091H171.058V17.9545H171.228C171.535 17.2898 172.001 16.7557 172.626 16.3523C173.251 15.9432 174.058 15.7386 175.046 15.7386C175.933 15.7386 176.708 15.9205 177.373 16.2841C178.038 16.642 178.555 17.1875 178.924 17.9205C179.293 18.6477 179.478 19.5682 179.478 20.6818V29H177.467V20.8182C177.467 19.7898 177.2 18.9886 176.665 18.4148C176.131 17.8352 175.398 17.5455 174.467 17.5455C173.825 17.5455 173.251 17.6847 172.745 17.9631C172.245 18.2415 171.85 18.6477 171.56 19.1818C171.271 19.7159 171.126 20.3636 171.126 21.125ZM188.438 34.1818C187.466 34.1818 186.631 34.0568 185.932 33.8068C185.233 33.5625 184.651 33.2386 184.185 32.8352C183.724 32.4375 183.358 32.0114 183.085 31.5568L184.688 30.4318C184.869 30.6705 185.099 30.9432 185.378 31.25C185.656 31.5625 186.037 31.8324 186.52 32.0597C187.009 32.2926 187.648 32.4091 188.438 32.4091C189.494 32.4091 190.366 32.1534 191.054 31.642C191.741 31.1307 192.085 30.3295 192.085 29.2386V26.5795H191.915C191.767 26.8182 191.557 27.1136 191.284 27.4659C191.017 27.8125 190.631 28.1222 190.125 28.3949C189.625 28.6619 188.949 28.7955 188.097 28.7955C187.04 28.7955 186.091 28.5455 185.25 28.0455C184.415 27.5455 183.753 26.8182 183.264 25.8636C182.781 24.9091 182.54 23.75 182.54 22.3864C182.54 21.0455 182.776 19.8778 183.247 18.8835C183.719 17.8835 184.375 17.1108 185.216 16.5653C186.057 16.0142 187.028 15.7386 188.131 15.7386C188.983 15.7386 189.659 15.8807 190.159 16.1648C190.665 16.4432 191.051 16.7614 191.318 17.1193C191.591 17.4716 191.801 17.7614 191.949 17.9886H192.153V15.9091H194.097V29.375C194.097 30.5 193.841 31.4148 193.33 32.1193C192.824 32.8295 192.142 33.3494 191.284 33.679C190.432 34.0142 189.483 34.1818 188.438 34.1818ZM188.369 26.9886C189.176 26.9886 189.858 26.804 190.415 26.4347C190.972 26.0653 191.395 25.5341 191.685 24.8409C191.974 24.1477 192.119 23.3182 192.119 22.3523C192.119 21.4091 191.977 20.5767 191.693 19.8551C191.409 19.1335 190.989 18.5682 190.432 18.1591C189.875 17.75 189.188 17.5455 188.369 17.5455C187.517 17.5455 186.807 17.7614 186.239 18.1932C185.676 18.625 185.253 19.2045 184.969 19.9318C184.69 20.6591 184.551 21.4659 184.551 22.3523C184.551 23.2614 184.693 24.0653 184.977 24.7642C185.267 25.4574 185.693 26.0028 186.256 26.4006C186.824 26.7926 187.528 26.9886 188.369 26.9886Z" fill="black"/>
<rect x="1" y="61" width="239" height="164" stroke="black" stroke-width="2"/>
<path d="M22.8409 155.909V137.909H24.7841V139.989H25.0227C25.1705 139.761 25.375 139.472 25.6364 139.119C25.9034 138.761 26.2841 138.443 26.7784 138.165C27.2784 137.881 27.9545 137.739 28.8068 137.739C29.9091 137.739 30.8807 138.014 31.7216 138.565C32.5625 139.116 33.2188 139.898 33.6903 140.909C34.1619 141.92 34.3977 143.114 34.3977 144.489C34.3977 145.875 34.1619 147.077 33.6903 148.094C33.2188 149.105 32.5653 149.889 31.7301 150.446C30.8949 150.997 29.9318 151.273 28.8409 151.273C28 151.273 27.3267 151.134 26.821 150.855C26.3153 150.571 25.9261 150.25 25.6534 149.892C25.3807 149.528 25.1705 149.227 25.0227 148.989H24.8523V155.909H22.8409ZM24.8182 144.455C24.8182 145.443 24.9631 146.315 25.2528 147.071C25.5426 147.821 25.9659 148.409 26.5227 148.835C27.0795 149.256 27.7614 149.466 28.5682 149.466C29.4091 149.466 30.1108 149.244 30.6733 148.801C31.2415 148.352 31.6676 147.75 31.9517 146.994C32.2415 146.233 32.3864 145.386 32.3864 144.455C32.3864 143.534 32.2443 142.705 31.9602 141.966C31.6818 141.222 31.2585 140.634 30.6903 140.202C30.1278 139.764 29.4205 139.545 28.5682 139.545C27.75 139.545 27.0625 139.753 26.5057 140.168C25.9489 140.577 25.5284 141.151 25.2443 141.889C24.9602 142.622 24.8182 143.477 24.8182 144.455ZM41.3182 151.307C40.4886 151.307 39.7358 151.151 39.0597 150.838C38.3835 150.52 37.8466 150.062 37.4489 149.466C37.0511 148.864 36.8523 148.136 36.8523 147.284C36.8523 146.534 37 145.926 37.2955 145.46C37.5909 144.989 37.9858 144.619 38.4801 144.352C38.9744 144.085 39.5199 143.886 40.1165 143.756C40.7188 143.619 41.3239 143.511 41.9318 143.432C42.7273 143.33 43.3722 143.253 43.8665 143.202C44.3665 143.145 44.7301 143.051 44.9574 142.92C45.1903 142.79 45.3068 142.562 45.3068 142.239V142.17C45.3068 141.33 45.0767 140.676 44.6165 140.21C44.1619 139.744 43.4716 139.511 42.5455 139.511C41.5852 139.511 40.8324 139.722 40.2869 140.142C39.7415 140.562 39.358 141.011 39.1364 141.489L37.2273 140.807C37.5682 140.011 38.0227 139.392 38.5909 138.949C39.1648 138.5 39.7898 138.187 40.4659 138.011C41.1477 137.83 41.8182 137.739 42.4773 137.739C42.8977 137.739 43.3807 137.79 43.9261 137.892C44.4773 137.989 45.0085 138.19 45.5199 138.497C46.0369 138.804 46.4659 139.267 46.8068 139.886C47.1477 140.506 47.3182 141.335 47.3182 142.375V151H45.3068V149.227H45.2045C45.0682 149.511 44.8409 149.815 44.5227 150.139C44.2045 150.463 43.7813 150.739 43.2528 150.966C42.7244 151.193 42.0795 151.307 41.3182 151.307ZM41.625 149.5C42.4205 149.5 43.0909 149.344 43.6364 149.031C44.1875 148.719 44.6023 148.315 44.8807 147.821C45.1648 147.327 45.3068 146.807 45.3068 146.261V144.42C45.2216 144.523 45.0341 144.616 44.7443 144.702C44.4602 144.781 44.1307 144.852 43.7557 144.915C43.3864 144.972 43.0256 145.023 42.6733 145.068C42.3267 145.108 42.0455 145.142 41.8295 145.17C41.3068 145.239 40.8182 145.349 40.3636 145.503C39.9148 145.651 39.5511 145.875 39.2727 146.176C39 146.472 38.8636 146.875 38.8636 147.386C38.8636 148.085 39.1222 148.614 39.6392 148.972C40.1619 149.324 40.8239 149.5 41.625 149.5ZM55.9325 151.273C54.8416 151.273 53.8786 150.997 53.0433 150.446C52.2081 149.889 51.5547 149.105 51.0831 148.094C50.6115 147.077 50.3757 145.875 50.3757 144.489C50.3757 143.114 50.6115 141.92 51.0831 140.909C51.5547 139.898 52.2109 139.116 53.0518 138.565C53.8928 138.014 54.8643 137.739 55.9666 137.739C56.8189 137.739 57.4922 137.881 57.9865 138.165C58.4865 138.443 58.8672 138.761 59.1286 139.119C59.3956 139.472 59.603 139.761 59.7507 139.989H59.9212V133.545H61.9325V151H59.9893V148.989H59.7507C59.603 149.227 59.3928 149.528 59.12 149.892C58.8473 150.25 58.4581 150.571 57.9524 150.855C57.4467 151.134 56.7734 151.273 55.9325 151.273ZM56.2053 149.466C57.0121 149.466 57.6939 149.256 58.2507 148.835C58.8075 148.409 59.2308 147.821 59.5206 147.071C59.8104 146.315 59.9553 145.443 59.9553 144.455C59.9553 143.477 59.8132 142.622 59.5291 141.889C59.245 141.151 58.8246 140.577 58.2678 140.168C57.7109 139.753 57.0234 139.545 56.2053 139.545C55.353 139.545 54.6428 139.764 54.0746 140.202C53.5121 140.634 53.0888 141.222 52.8047 141.966C52.5263 142.705 52.3871 143.534 52.3871 144.455C52.3871 145.386 52.5291 146.233 52.8132 146.994C53.103 147.75 53.5291 148.352 54.0916 148.801C54.6598 149.244 55.3643 149.466 56.2053 149.466ZM70.8388 151.273C69.7479 151.273 68.7848 150.997 67.9496 150.446C67.1143 149.889 66.4609 149.105 65.9893 148.094C65.5178 147.077 65.282 145.875 65.282 144.489C65.282 143.114 65.5178 141.92 65.9893 140.909C66.4609 139.898 67.1172 139.116 67.9581 138.565C68.799 138.014 69.7706 137.739 70.8729 137.739C71.7251 137.739 72.3984 137.881 72.8928 138.165C73.3928 138.443 73.7734 138.761 74.0348 139.119C74.3018 139.472 74.5092 139.761 74.657 139.989H74.8274V133.545H76.8388V151H74.8956V148.989H74.657C74.5092 149.227 74.299 149.528 74.0263 149.892C73.7536 150.25 73.3643 150.571 72.8587 150.855C72.353 151.134 71.6797 151.273 70.8388 151.273ZM71.1115 149.466C71.9183 149.466 72.6001 149.256 73.157 148.835C73.7138 148.409 74.1371 147.821 74.4268 147.071C74.7166 146.315 74.8615 145.443 74.8615 144.455C74.8615 143.477 74.7195 142.622 74.4354 141.889C74.1513 141.151 73.7308 140.577 73.174 140.168C72.6172 139.753 71.9297 139.545 71.1115 139.545C70.2592 139.545 69.549 139.764 68.9808 140.202C68.4183 140.634 67.995 141.222 67.7109 141.966C67.4325 142.705 67.2933 143.534 67.2933 144.455C67.2933 145.386 67.4354 146.233 67.7195 146.994C68.0092 147.75 68.4354 148.352 68.9979 148.801C69.5661 149.244 70.2706 149.466 71.1115 149.466ZM80.8018 151V137.909H82.8132V151H80.8018ZM81.8246 135.727C81.4325 135.727 81.0945 135.594 80.8104 135.327C80.532 135.06 80.3928 134.739 80.3928 134.364C80.3928 133.989 80.532 133.668 80.8104 133.401C81.0945 133.134 81.4325 133 81.8246 133C82.2166 133 82.5518 133.134 82.8303 133.401C83.1143 133.668 83.2564 133.989 83.2564 134.364C83.2564 134.739 83.1143 135.06 82.8303 135.327C82.5518 135.594 82.2166 135.727 81.8246 135.727ZM88.5085 143.125V151H86.4972V137.909H88.4403V139.955H88.6108C88.9176 139.29 89.3835 138.756 90.0085 138.352C90.6335 137.943 91.4403 137.739 92.429 137.739C93.3153 137.739 94.0909 137.92 94.7557 138.284C95.4205 138.642 95.9375 139.188 96.3068 139.92C96.6761 140.648 96.8608 141.568 96.8608 142.682V151H94.8494V142.818C94.8494 141.79 94.5824 140.989 94.0483 140.415C93.5142 139.835 92.7813 139.545 91.8494 139.545C91.2074 139.545 90.6335 139.685 90.1278 139.963C89.6278 140.241 89.233 140.648 88.9432 141.182C88.6534 141.716 88.5085 142.364 88.5085 143.125ZM105.82 156.182C104.849 156.182 104.013 156.057 103.315 155.807C102.616 155.562 102.033 155.239 101.567 154.835C101.107 154.438 100.741 154.011 100.468 153.557L102.07 152.432C102.252 152.67 102.482 152.943 102.761 153.25C103.039 153.562 103.42 153.832 103.903 154.06C104.391 154.293 105.031 154.409 105.82 154.409C106.877 154.409 107.749 154.153 108.437 153.642C109.124 153.131 109.468 152.33 109.468 151.239V148.58H109.298C109.15 148.818 108.94 149.114 108.667 149.466C108.4 149.812 108.013 150.122 107.508 150.395C107.008 150.662 106.332 150.795 105.479 150.795C104.423 150.795 103.474 150.545 102.633 150.045C101.798 149.545 101.136 148.818 100.647 147.864C100.164 146.909 99.9226 145.75 99.9226 144.386C99.9226 143.045 100.158 141.878 100.63 140.884C101.102 139.884 101.758 139.111 102.599 138.565C103.44 138.014 104.411 137.739 105.513 137.739C106.366 137.739 107.042 137.881 107.542 138.165C108.048 138.443 108.434 138.761 108.701 139.119C108.974 139.472 109.184 139.761 109.332 139.989H109.536V137.909H111.479V151.375C111.479 152.5 111.224 153.415 110.712 154.119C110.207 154.83 109.525 155.349 108.667 155.679C107.815 156.014 106.866 156.182 105.82 156.182ZM105.752 148.989C106.559 148.989 107.241 148.804 107.798 148.435C108.354 148.065 108.778 147.534 109.067 146.841C109.357 146.148 109.502 145.318 109.502 144.352C109.502 143.409 109.36 142.577 109.076 141.855C108.792 141.134 108.371 140.568 107.815 140.159C107.258 139.75 106.57 139.545 105.752 139.545C104.9 139.545 104.19 139.761 103.621 140.193C103.059 140.625 102.636 141.205 102.352 141.932C102.073 142.659 101.934 143.466 101.934 144.352C101.934 145.261 102.076 146.065 102.36 146.764C102.65 147.457 103.076 148.003 103.638 148.401C104.207 148.793 104.911 148.989 105.752 148.989ZM122.661 142.58V144.455H115.025V142.58H122.661ZM129.166 151L125.178 137.909H127.291L130.121 147.932H130.257L133.053 137.909H135.2L137.962 147.898H138.098L140.928 137.909H143.041L139.053 151H137.075L134.212 140.943H134.007L131.143 151H129.166ZM145.7 151V137.909H147.643V139.886H147.78C148.018 139.239 148.45 138.713 149.075 138.31C149.7 137.906 150.405 137.705 151.189 137.705C151.337 137.705 151.521 137.707 151.743 137.713C151.964 137.719 152.132 137.727 152.246 137.739V139.784C152.178 139.767 152.021 139.741 151.777 139.707C151.538 139.668 151.286 139.648 151.018 139.648C150.382 139.648 149.814 139.781 149.314 140.048C148.82 140.31 148.428 140.673 148.138 141.139C147.854 141.599 147.712 142.125 147.712 142.716V151H145.7ZM158.482 151.307C157.653 151.307 156.9 151.151 156.224 150.838C155.548 150.52 155.011 150.062 154.613 149.466C154.215 148.864 154.016 148.136 154.016 147.284C154.016 146.534 154.164 145.926 154.46 145.46C154.755 144.989 155.15 144.619 155.644 144.352C156.138 144.085 156.684 143.886 157.281 143.756C157.883 143.619 158.488 143.511 159.096 143.432C159.891 143.33 160.536 143.253 161.031 143.202C161.531 143.145 161.894 143.051 162.121 142.92C162.354 142.79 162.471 142.562 162.471 142.239V142.17C162.471 141.33 162.241 140.676 161.781 140.21C161.326 139.744 160.636 139.511 159.71 139.511C158.749 139.511 157.996 139.722 157.451 140.142C156.906 140.562 156.522 141.011 156.3 141.489L154.391 140.807C154.732 140.011 155.187 139.392 155.755 138.949C156.329 138.5 156.954 138.187 157.63 138.011C158.312 137.83 158.982 137.739 159.641 137.739C160.062 137.739 160.545 137.79 161.09 137.892C161.641 137.989 162.173 138.19 162.684 138.497C163.201 138.804 163.63 139.267 163.971 139.886C164.312 140.506 164.482 141.335 164.482 142.375V151H162.471V149.227H162.369C162.232 149.511 162.005 149.815 161.687 150.139C161.369 150.463 160.945 150.739 160.417 150.966C159.888 151.193 159.244 151.307 158.482 151.307ZM158.789 149.5C159.585 149.5 160.255 149.344 160.8 149.031C161.352 148.719 161.766 148.315 162.045 147.821C162.329 147.327 162.471 146.807 162.471 146.261V144.42C162.386 144.523 162.198 144.616 161.908 144.702C161.624 144.781 161.295 144.852 160.92 144.915C160.55 144.972 160.19 145.023 159.837 145.068C159.491 145.108 159.21 145.142 158.994 145.17C158.471 145.239 157.982 145.349 157.528 145.503C157.079 145.651 156.715 145.875 156.437 146.176C156.164 146.472 156.028 146.875 156.028 147.386C156.028 148.085 156.286 148.614 156.803 148.972C157.326 149.324 157.988 149.5 158.789 149.5ZM168.153 155.909V137.909H170.097V139.989H170.335C170.483 139.761 170.688 139.472 170.949 139.119C171.216 138.761 171.597 138.443 172.091 138.165C172.591 137.881 173.267 137.739 174.119 137.739C175.222 137.739 176.193 138.014 177.034 138.565C177.875 139.116 178.531 139.898 179.003 140.909C179.474 141.92 179.71 143.114 179.71 144.489C179.71 145.875 179.474 147.077 179.003 148.094C178.531 149.105 177.878 149.889 177.043 150.446C176.207 150.997 175.244 151.273 174.153 151.273C173.313 151.273 172.639 151.134 172.134 150.855C171.628 150.571 171.239 150.25 170.966 149.892C170.693 149.528 170.483 149.227 170.335 148.989H170.165V155.909H168.153ZM170.131 144.455C170.131 145.443 170.276 146.315 170.565 147.071C170.855 147.821 171.278 148.409 171.835 148.835C172.392 149.256 173.074 149.466 173.881 149.466C174.722 149.466 175.423 149.244 175.986 148.801C176.554 148.352 176.98 147.75 177.264 146.994C177.554 146.233 177.699 145.386 177.699 144.455C177.699 143.534 177.557 142.705 177.273 141.966C176.994 141.222 176.571 140.634 176.003 140.202C175.44 139.764 174.733 139.545 173.881 139.545C173.063 139.545 172.375 139.753 171.818 140.168C171.261 140.577 170.841 141.151 170.557 141.889C170.273 142.622 170.131 143.477 170.131 144.455ZM182.778 155.909V137.909H184.722V139.989H184.96C185.108 139.761 185.313 139.472 185.574 139.119C185.841 138.761 186.222 138.443 186.716 138.165C187.216 137.881 187.892 137.739 188.744 137.739C189.847 137.739 190.818 138.014 191.659 138.565C192.5 139.116 193.156 139.898 193.628 140.909C194.099 141.92 194.335 143.114 194.335 144.489C194.335 145.875 194.099 147.077 193.628 148.094C193.156 149.105 192.503 149.889 191.668 150.446C190.832 150.997 189.869 151.273 188.778 151.273C187.938 151.273 187.264 151.134 186.759 150.855C186.253 150.571 185.864 150.25 185.591 149.892C185.318 149.528 185.108 149.227 184.96 148.989H184.79V155.909H182.778ZM184.756 144.455C184.756 145.443 184.901 146.315 185.19 147.071C185.48 147.821 185.903 148.409 186.46 148.835C187.017 149.256 187.699 149.466 188.506 149.466C189.347 149.466 190.048 149.244 190.611 148.801C191.179 148.352 191.605 147.75 191.889 146.994C192.179 146.233 192.324 145.386 192.324 144.455C192.324 143.534 192.182 142.705 191.898 141.966C191.619 141.222 191.196 140.634 190.628 140.202C190.065 139.764 189.358 139.545 188.506 139.545C187.688 139.545 187 139.753 186.443 140.168C185.886 140.577 185.466 141.151 185.182 141.889C184.898 142.622 184.756 143.477 184.756 144.455ZM202.892 151.273C201.631 151.273 200.543 150.994 199.628 150.438C198.719 149.875 198.017 149.091 197.523 148.085C197.034 147.074 196.79 145.898 196.79 144.557C196.79 143.216 197.034 142.034 197.523 141.011C198.017 139.983 198.705 139.182 199.585 138.608C200.472 138.028 201.506 137.739 202.688 137.739C203.369 137.739 204.043 137.852 204.707 138.08C205.372 138.307 205.977 138.676 206.523 139.188C207.068 139.693 207.503 140.364 207.827 141.199C208.151 142.034 208.312 143.062 208.312 144.284V145.136H198.222V143.398H206.267C206.267 142.659 206.119 142 205.824 141.42C205.534 140.841 205.119 140.384 204.58 140.048C204.045 139.713 203.415 139.545 202.688 139.545C201.886 139.545 201.193 139.744 200.608 140.142C200.028 140.534 199.582 141.045 199.27 141.676C198.957 142.307 198.801 142.983 198.801 143.705V144.864C198.801 145.852 198.972 146.69 199.312 147.378C199.659 148.06 200.139 148.58 200.753 148.938C201.366 149.29 202.08 149.466 202.892 149.466C203.42 149.466 203.898 149.392 204.324 149.244C204.756 149.091 205.128 148.864 205.44 148.562C205.753 148.256 205.994 147.875 206.165 147.42L208.108 147.966C207.903 148.625 207.56 149.205 207.077 149.705C206.594 150.199 205.997 150.585 205.287 150.864C204.577 151.136 203.778 151.273 202.892 151.273ZM211.372 151V137.909H213.315V139.886H213.452C213.69 139.239 214.122 138.713 214.747 138.31C215.372 137.906 216.077 137.705 216.861 137.705C217.009 137.705 217.193 137.707 217.415 137.713C217.636 137.719 217.804 137.727 217.918 137.739V139.784C217.849 139.767 217.693 139.741 217.449 139.707C217.21 139.668 216.957 139.648 216.69 139.648C216.054 139.648 215.486 139.781 214.986 140.048C214.491 140.31 214.099 140.673 213.81 141.139C213.526 141.599 213.384 142.125 213.384 142.716V151H211.372Z" fill="black"/>
<rect x="261" y="61" width="38" height="164" stroke="black" stroke-width="2"/>
<path d="M338.852 133.545V151H336.841V133.545H338.852ZM348.025 151.273C346.763 151.273 345.675 150.994 344.761 150.438C343.852 149.875 343.15 149.091 342.656 148.085C342.167 147.074 341.923 145.898 341.923 144.557C341.923 143.216 342.167 142.034 342.656 141.011C343.15 139.983 343.837 139.182 344.718 138.608C345.604 138.028 346.638 137.739 347.82 137.739C348.502 137.739 349.175 137.852 349.84 138.08C350.505 138.307 351.11 138.676 351.656 139.188C352.201 139.693 352.636 140.364 352.96 141.199C353.283 142.034 353.445 143.062 353.445 144.284V145.136H343.354V143.398H351.4C351.4 142.659 351.252 142 350.957 141.42C350.667 140.841 350.252 140.384 349.712 140.048C349.178 139.713 348.548 139.545 347.82 139.545C347.019 139.545 346.326 139.744 345.741 140.142C345.161 140.534 344.715 141.045 344.403 141.676C344.09 142.307 343.934 142.983 343.934 143.705V144.864C343.934 145.852 344.104 146.69 344.445 147.378C344.792 148.06 345.272 148.58 345.886 148.938C346.499 149.29 347.212 149.466 348.025 149.466C348.553 149.466 349.031 149.392 349.457 149.244C349.888 149.091 350.261 148.864 350.573 148.562C350.886 148.256 351.127 147.875 351.298 147.42L353.241 147.966C353.036 148.625 352.692 149.205 352.21 149.705C351.727 150.199 351.13 150.585 350.42 150.864C349.71 151.136 348.911 151.273 348.025 151.273ZM361.789 156.182C360.817 156.182 359.982 156.057 359.283 155.807C358.585 155.562 358.002 155.239 357.536 154.835C357.076 154.438 356.71 154.011 356.437 153.557L358.039 152.432C358.221 152.67 358.451 152.943 358.729 153.25C359.008 153.562 359.388 153.832 359.871 154.06C360.36 154.293 360.999 154.409 361.789 154.409C362.846 154.409 363.718 154.153 364.406 153.642C365.093 153.131 365.437 152.33 365.437 151.239V148.58H365.266C365.119 148.818 364.908 149.114 364.636 149.466C364.369 149.812 363.982 150.122 363.477 150.395C362.977 150.662 362.3 150.795 361.448 150.795C360.391 150.795 359.442 150.545 358.602 150.045C357.766 149.545 357.104 148.818 356.616 147.864C356.133 146.909 355.891 145.75 355.891 144.386C355.891 143.045 356.127 141.878 356.599 140.884C357.07 139.884 357.727 139.111 358.567 138.565C359.408 138.014 360.38 137.739 361.482 137.739C362.335 137.739 363.011 137.881 363.511 138.165C364.016 138.443 364.403 138.761 364.67 139.119C364.942 139.472 365.153 139.761 365.3 139.989H365.505V137.909H367.448V151.375C367.448 152.5 367.192 153.415 366.681 154.119C366.175 154.83 365.494 155.349 364.636 155.679C363.783 156.014 362.835 156.182 361.789 156.182ZM361.721 148.989C362.528 148.989 363.21 148.804 363.766 148.435C364.323 148.065 364.746 147.534 365.036 146.841C365.326 146.148 365.471 145.318 365.471 144.352C365.471 143.409 365.329 142.577 365.045 141.855C364.761 141.134 364.34 140.568 363.783 140.159C363.227 139.75 362.539 139.545 361.721 139.545C360.869 139.545 360.158 139.761 359.59 140.193C359.028 140.625 358.604 141.205 358.32 141.932C358.042 142.659 357.903 143.466 357.903 144.352C357.903 145.261 358.045 146.065 358.329 146.764C358.619 147.457 359.045 148.003 359.607 148.401C360.175 148.793 360.88 148.989 361.721 148.989ZM376.619 151.273C375.357 151.273 374.269 150.994 373.354 150.438C372.445 149.875 371.744 149.091 371.249 148.085C370.761 147.074 370.516 145.898 370.516 144.557C370.516 143.216 370.761 142.034 371.249 141.011C371.744 139.983 372.431 139.182 373.312 138.608C374.198 138.028 375.232 137.739 376.414 137.739C377.096 137.739 377.769 137.852 378.434 138.08C379.099 138.307 379.704 138.676 380.249 139.188C380.795 139.693 381.229 140.364 381.553 141.199C381.877 142.034 382.039 143.062 382.039 144.284V145.136H371.948V143.398H379.994C379.994 142.659 379.846 142 379.55 141.42C379.261 140.841 378.846 140.384 378.306 140.048C377.772 139.713 377.141 139.545 376.414 139.545C375.613 139.545 374.92 139.744 374.335 140.142C373.755 140.534 373.309 141.045 372.996 141.676C372.684 142.307 372.528 142.983 372.528 143.705V144.864C372.528 145.852 372.698 146.69 373.039 147.378C373.386 148.06 373.866 148.58 374.479 148.938C375.093 149.29 375.806 149.466 376.619 149.466C377.147 149.466 377.624 149.392 378.05 149.244C378.482 149.091 378.854 148.864 379.167 148.562C379.479 148.256 379.721 147.875 379.891 147.42L381.835 147.966C381.63 148.625 381.286 149.205 380.803 149.705C380.32 150.199 379.724 150.585 379.013 150.864C378.303 151.136 377.505 151.273 376.619 151.273ZM387.11 143.125V151H385.099V137.909H387.042V139.955H387.212C387.519 139.29 387.985 138.756 388.61 138.352C389.235 137.943 390.042 137.739 391.031 137.739C391.917 137.739 392.692 137.92 393.357 138.284C394.022 138.642 394.539 139.188 394.908 139.92C395.278 140.648 395.462 141.568 395.462 142.682V151H393.451V142.818C393.451 141.79 393.184 140.989 392.65 140.415C392.116 139.835 391.383 139.545 390.451 139.545C389.809 139.545 389.235 139.685 388.729 139.963C388.229 140.241 387.835 140.648 387.545 141.182C387.255 141.716 387.11 142.364 387.11 143.125ZM404.081 151.273C402.99 151.273 402.027 150.997 401.192 150.446C400.357 149.889 399.703 149.105 399.232 148.094C398.76 147.077 398.524 145.875 398.524 144.489C398.524 143.114 398.76 141.92 399.232 140.909C399.703 139.898 400.359 139.116 401.2 138.565C402.041 138.014 403.013 137.739 404.115 137.739C404.967 137.739 405.641 137.881 406.135 138.165C406.635 138.443 407.016 138.761 407.277 139.119C407.544 139.472 407.751 139.761 407.899 139.989H408.07V133.545H410.081V151H408.138V148.989H407.899C407.751 149.227 407.541 149.528 407.268 149.892C406.996 150.25 406.607 150.571 406.101 150.855C405.595 151.134 404.922 151.273 404.081 151.273ZM404.354 149.466C405.161 149.466 405.842 149.256 406.399 148.835C406.956 148.409 407.379 147.821 407.669 147.071C407.959 146.315 408.104 145.443 408.104 144.455C408.104 143.477 407.962 142.622 407.678 141.889C407.393 141.151 406.973 140.577 406.416 140.168C405.859 139.753 405.172 139.545 404.354 139.545C403.501 139.545 402.791 139.764 402.223 140.202C401.661 140.634 401.237 141.222 400.953 141.966C400.675 142.705 400.536 143.534 400.536 144.455C400.536 145.386 400.678 146.233 400.962 146.994C401.251 147.75 401.678 148.352 402.24 148.801C402.808 149.244 403.513 149.466 404.354 149.466Z" fill="black"/>
<line x1="280" y1="140.5" x2="326" y2="140.5" stroke="black"/>
</svg>
