<svg width="698" height="559" viewBox="0 0 698 559" fill="none" xmlns="http://www.w3.org/2000/svg">
<rect x="358.05" y="0.5" width="159" height="39" stroke="black"/>
<path d="M383.778 25V16.2727H385.073V17.5909H385.164C385.323 17.1591 385.611 16.8087 386.028 16.5398C386.444 16.2708 386.914 16.1364 387.437 16.1364C387.535 16.1364 387.658 16.1383 387.806 16.142C387.954 16.1458 388.066 16.1515 388.141 16.1591V17.5227C388.096 17.5114 387.992 17.4943 387.829 17.4716C387.67 17.4451 387.501 17.4318 387.323 17.4318C386.899 17.4318 386.52 17.5208 386.187 17.6989C385.857 17.8731 385.596 18.1155 385.403 18.4261C385.213 18.733 385.119 19.0833 385.119 19.4773V25H383.778ZM393.124 25.1818C392.283 25.1818 391.558 24.9962 390.948 24.625C390.342 24.25 389.874 23.7273 389.545 23.0568C389.219 22.3826 389.056 21.5985 389.056 20.7045C389.056 19.8106 389.219 19.0227 389.545 18.3409C389.874 17.6553 390.333 17.1212 390.92 16.7386C391.511 16.3523 392.2 16.1591 392.988 16.1591C393.442 16.1591 393.891 16.2348 394.335 16.3864C394.778 16.5379 395.181 16.7841 395.545 17.125C395.908 17.4621 396.198 17.9091 396.414 18.4659C396.63 19.0227 396.738 19.7083 396.738 20.5227V21.0909H390.011V19.9318H395.374C395.374 19.4394 395.276 19 395.079 18.6136C394.886 18.2273 394.609 17.9223 394.249 17.6989C393.893 17.4754 393.473 17.3636 392.988 17.3636C392.454 17.3636 391.992 17.4962 391.602 17.7614C391.215 18.0227 390.918 18.3636 390.71 18.7841C390.501 19.2045 390.397 19.6553 390.397 20.1364V20.9091C390.397 21.5682 390.511 22.1269 390.738 22.5852C390.969 23.0398 391.289 23.3864 391.698 23.625C392.107 23.8598 392.583 23.9773 393.124 23.9773C393.477 23.9773 393.795 23.928 394.079 23.8295C394.367 23.7273 394.615 23.5758 394.823 23.375C395.032 23.1705 395.192 22.9167 395.306 22.6136L396.602 22.9773C396.465 23.4167 396.236 23.803 395.914 24.1364C395.592 24.4659 395.194 24.7235 394.721 24.9091C394.247 25.0909 393.715 25.1818 393.124 25.1818ZM404.96 18.2273L403.755 18.5682C403.679 18.3674 403.567 18.1723 403.42 17.983C403.276 17.7898 403.079 17.6307 402.829 17.5057C402.579 17.3807 402.259 17.3182 401.869 17.3182C401.335 17.3182 400.889 17.4413 400.533 17.6875C400.181 17.9299 400.005 18.2386 400.005 18.6136C400.005 18.947 400.126 19.2102 400.369 19.4034C400.611 19.5966 400.99 19.7576 401.505 19.8864L402.8 20.2045C403.581 20.3939 404.162 20.6837 404.545 21.0739C404.927 21.4602 405.119 21.9583 405.119 22.5682C405.119 23.0682 404.975 23.5152 404.687 23.9091C404.403 24.303 404.005 24.6136 403.494 24.8409C402.982 25.0682 402.388 25.1818 401.71 25.1818C400.819 25.1818 400.083 24.9886 399.499 24.6023C398.916 24.2159 398.547 23.6515 398.391 22.9091L399.664 22.5909C399.785 23.0606 400.014 23.4129 400.352 23.6477C400.692 23.8826 401.138 24 401.687 24C402.312 24 402.808 23.8674 403.175 23.6023C403.547 23.3333 403.732 23.0114 403.732 22.6364C403.732 22.3333 403.626 22.0795 403.414 21.875C403.202 21.6667 402.876 21.5114 402.437 21.4091L400.982 21.0682C400.183 20.8788 399.596 20.5852 399.221 20.1875C398.85 19.786 398.664 19.2841 398.664 18.6818C398.664 18.1894 398.802 17.7538 399.079 17.375C399.359 16.9962 399.74 16.6989 400.221 16.483C400.706 16.267 401.255 16.1591 401.869 16.1591C402.732 16.1591 403.41 16.3485 403.903 16.7273C404.399 17.1061 404.751 17.6061 404.96 18.2273ZM407.137 28.2727V16.2727H408.433V17.6591H408.592C408.69 17.5076 408.826 17.3144 409.001 17.0795C409.179 16.8409 409.433 16.6288 409.762 16.4432C410.095 16.2538 410.546 16.1591 411.114 16.1591C411.849 16.1591 412.497 16.3428 413.058 16.7102C413.618 17.0777 414.056 17.5985 414.37 18.2727C414.684 18.947 414.842 19.7424 414.842 20.6591C414.842 21.5833 414.684 22.3845 414.37 23.0625C414.056 23.7367 413.62 24.2595 413.063 24.6307C412.506 24.9981 411.864 25.1818 411.137 25.1818C410.576 25.1818 410.128 25.089 409.791 24.9034C409.453 24.714 409.194 24.5 409.012 24.2614C408.83 24.0189 408.69 23.8182 408.592 23.6591H408.478V28.2727H407.137ZM408.455 20.6364C408.455 21.2955 408.552 21.8769 408.745 22.3807C408.938 22.8807 409.22 23.2727 409.592 23.5568C409.963 23.8371 410.417 23.9773 410.955 23.9773C411.516 23.9773 411.984 23.8295 412.359 23.5341C412.737 23.2348 413.022 22.8333 413.211 22.3295C413.404 21.822 413.501 21.2576 413.501 20.6364C413.501 20.0227 413.406 19.4697 413.217 18.9773C413.031 18.4811 412.749 18.089 412.37 17.8011C411.995 17.5095 411.523 17.3636 410.955 17.3636C410.41 17.3636 409.951 17.5019 409.58 17.7784C409.209 18.0511 408.929 18.4337 408.739 18.9261C408.55 19.4148 408.455 19.9848 408.455 20.6364ZM423.711 16.2727L420.484 25H419.12L415.893 16.2727H417.347L419.756 23.2273H419.847L422.256 16.2727H423.711ZM425.481 25V16.2727H426.822V25H425.481ZM426.163 14.8182C425.901 14.8182 425.676 14.7292 425.487 14.5511C425.301 14.3731 425.208 14.1591 425.208 13.9091C425.208 13.6591 425.301 13.4451 425.487 13.267C425.676 13.089 425.901 13 426.163 13C426.424 13 426.648 13.089 426.833 13.267C427.023 13.4451 427.117 13.6591 427.117 13.9091C427.117 14.1591 427.023 14.3731 426.833 14.5511C426.648 14.7292 426.424 14.8182 426.163 14.8182ZM435.46 18.2273L434.255 18.5682C434.179 18.3674 434.067 18.1723 433.92 17.983C433.776 17.7898 433.579 17.6307 433.329 17.5057C433.079 17.3807 432.759 17.3182 432.369 17.3182C431.835 17.3182 431.389 17.4413 431.033 17.6875C430.681 17.9299 430.505 18.2386 430.505 18.6136C430.505 18.947 430.626 19.2102 430.869 19.4034C431.111 19.5966 431.49 19.7576 432.005 19.8864L433.3 20.2045C434.081 20.3939 434.662 20.6837 435.045 21.0739C435.427 21.4602 435.619 21.9583 435.619 22.5682C435.619 23.0682 435.475 23.5152 435.187 23.9091C434.903 24.303 434.505 24.6136 433.994 24.8409C433.482 25.0682 432.888 25.1818 432.21 25.1818C431.319 25.1818 430.583 24.9886 429.999 24.6023C429.416 24.2159 429.047 23.6515 428.891 22.9091L430.164 22.5909C430.285 23.0606 430.514 23.4129 430.852 23.6477C431.192 23.8826 431.638 24 432.187 24C432.812 24 433.308 23.8674 433.675 23.6023C434.047 23.3333 434.232 23.0114 434.232 22.6364C434.232 22.3333 434.126 22.0795 433.914 21.875C433.702 21.6667 433.376 21.5114 432.937 21.4091L431.482 21.0682C430.683 20.8788 430.096 20.5852 429.721 20.1875C429.35 19.786 429.164 19.2841 429.164 18.6818C429.164 18.1894 429.302 17.7538 429.579 17.375C429.859 16.9962 430.24 16.6989 430.721 16.483C431.206 16.267 431.755 16.1591 432.369 16.1591C433.232 16.1591 433.91 16.3485 434.403 16.7273C434.899 17.1061 435.251 17.6061 435.46 18.2273ZM442.637 19.3864V20.6364H437.546V19.3864H442.637ZM448.792 16.2727V17.4091H444.269V16.2727H448.792ZM445.587 14.1818H446.928V22.5C446.928 22.8788 446.983 23.1629 447.093 23.3523C447.207 23.5379 447.351 23.6629 447.525 23.7273C447.703 23.7879 447.89 23.8182 448.087 23.8182C448.235 23.8182 448.356 23.8106 448.451 23.7955C448.546 23.7765 448.621 23.7614 448.678 23.75L448.951 24.9545C448.86 24.9886 448.733 25.0227 448.57 25.0568C448.407 25.0947 448.201 25.1136 447.951 25.1136C447.572 25.1136 447.201 25.0322 446.837 24.8693C446.478 24.7064 446.178 24.4583 445.94 24.125C445.705 23.7917 445.587 23.3712 445.587 22.8636V14.1818ZM454.261 25.1818C453.473 25.1818 452.782 24.9943 452.187 24.6193C451.596 24.2443 451.134 23.7197 450.8 23.0455C450.471 22.3712 450.306 21.5833 450.306 20.6818C450.306 19.7727 450.471 18.9792 450.8 18.3011C451.134 17.6231 451.596 17.0966 452.187 16.7216C452.782 16.3466 453.473 16.1591 454.261 16.1591C455.049 16.1591 455.738 16.3466 456.329 16.7216C456.924 17.0966 457.386 17.6231 457.715 18.3011C458.049 18.9792 458.215 19.7727 458.215 20.6818C458.215 21.5833 458.049 22.3712 457.715 23.0455C457.386 23.7197 456.924 24.2443 456.329 24.6193C455.738 24.9943 455.049 25.1818 454.261 25.1818ZM454.261 23.9773C454.859 23.9773 455.352 23.8239 455.738 23.517C456.124 23.2102 456.41 22.8068 456.596 22.3068C456.782 21.8068 456.874 21.2652 456.874 20.6818C456.874 20.0985 456.782 19.5549 456.596 19.0511C456.41 18.5473 456.124 18.1402 455.738 17.8295C455.352 17.5189 454.859 17.3636 454.261 17.3636C453.662 17.3636 453.17 17.5189 452.783 17.8295C452.397 18.1402 452.111 18.5473 451.925 19.0511C451.74 19.5549 451.647 20.0985 451.647 20.6818C451.647 21.2652 451.74 21.8068 451.925 22.3068C452.111 22.8068 452.397 23.2102 452.783 23.517C453.17 23.8239 453.662 23.9773 454.261 23.9773ZM463.808 25.1818C463.02 25.1818 462.328 24.9943 461.734 24.6193C461.143 24.2443 460.681 23.7197 460.347 23.0455C460.018 22.3712 459.853 21.5833 459.853 20.6818C459.853 19.7727 460.018 18.9792 460.347 18.3011C460.681 17.6231 461.143 17.0966 461.734 16.7216C462.328 16.3466 463.02 16.1591 463.808 16.1591C464.595 16.1591 465.285 16.3466 465.876 16.7216C466.47 17.0966 466.933 17.6231 467.262 18.3011C467.595 18.9792 467.762 19.7727 467.762 20.6818C467.762 21.5833 467.595 22.3712 467.262 23.0455C466.933 23.7197 466.47 24.2443 465.876 24.6193C465.285 24.9943 464.595 25.1818 463.808 25.1818ZM463.808 23.9773C464.406 23.9773 464.898 23.8239 465.285 23.517C465.671 23.2102 465.957 22.8068 466.143 22.3068C466.328 21.8068 466.421 21.2652 466.421 20.6818C466.421 20.0985 466.328 19.5549 466.143 19.0511C465.957 18.5473 465.671 18.1402 465.285 17.8295C464.898 17.5189 464.406 17.3636 463.808 17.3636C463.209 17.3636 462.717 17.5189 462.33 17.8295C461.944 18.1402 461.658 18.5473 461.472 19.0511C461.287 19.5549 461.194 20.0985 461.194 20.6818C461.194 21.2652 461.287 21.8068 461.472 22.3068C461.658 22.8068 461.944 23.2102 462.33 23.517C462.717 23.8239 463.209 23.9773 463.808 23.9773ZM471.15 13.3636V25H469.809V13.3636H471.15ZM477.401 16.2727V17.4091H472.879V16.2727H477.401ZM474.197 14.1818H475.538V22.5C475.538 22.8788 475.593 23.1629 475.702 23.3523C475.816 23.5379 475.96 23.6629 476.134 23.7273C476.312 23.7879 476.5 23.8182 476.697 23.8182C476.844 23.8182 476.966 23.8106 477.06 23.7955C477.155 23.7765 477.231 23.7614 477.288 23.75L477.56 24.9545C477.469 24.9886 477.343 25.0227 477.18 25.0568C477.017 25.0947 476.81 25.1136 476.56 25.1136C476.182 25.1136 475.81 25.0322 475.447 24.8693C475.087 24.7064 474.788 24.4583 474.549 24.125C474.314 23.7917 474.197 23.3712 474.197 22.8636V14.1818ZM479.418 25V16.2727H480.759V25H479.418ZM480.1 14.8182C479.839 14.8182 479.613 14.7292 479.424 14.5511C479.238 14.3731 479.146 14.1591 479.146 13.9091C479.146 13.6591 479.238 13.4451 479.424 13.267C479.613 13.089 479.839 13 480.1 13C480.362 13 480.585 13.089 480.771 13.267C480.96 13.4451 481.055 13.6591 481.055 13.9091C481.055 14.1591 480.96 14.3731 480.771 14.5511C480.585 14.7292 480.362 14.8182 480.1 14.8182ZM483.215 28.2727V16.2727H484.511V17.6591H484.67C484.768 17.5076 484.905 17.3144 485.079 17.0795C485.257 16.8409 485.511 16.6288 485.84 16.4432C486.174 16.2538 486.624 16.1591 487.192 16.1591C487.927 16.1591 488.575 16.3428 489.136 16.7102C489.696 17.0777 490.134 17.5985 490.448 18.2727C490.763 18.947 490.92 19.7424 490.92 20.6591C490.92 21.5833 490.763 22.3845 490.448 23.0625C490.134 23.7367 489.698 24.2595 489.141 24.6307C488.585 24.9981 487.942 25.1818 487.215 25.1818C486.655 25.1818 486.206 25.089 485.869 24.9034C485.532 24.714 485.272 24.5 485.09 24.2614C484.908 24.0189 484.768 23.8182 484.67 23.6591H484.556V28.2727H483.215ZM484.533 20.6364C484.533 21.2955 484.63 21.8769 484.823 22.3807C485.016 22.8807 485.299 23.2727 485.67 23.5568C486.041 23.8371 486.496 23.9773 487.033 23.9773C487.594 23.9773 488.062 23.8295 488.437 23.5341C488.816 23.2348 489.1 22.8333 489.289 22.3295C489.482 21.822 489.579 21.2576 489.579 20.6364C489.579 20.0227 489.484 19.4697 489.295 18.9773C489.109 18.4811 488.827 18.089 488.448 17.8011C488.073 17.5095 487.602 17.3636 487.033 17.3636C486.488 17.3636 486.03 17.5019 485.658 17.7784C485.287 18.0511 485.007 18.4337 484.817 18.9261C484.628 19.4148 484.533 19.9848 484.533 20.6364Z" fill="black"/>
<rect x="180.05" y="420.5" width="159" height="39" stroke="black"/>
<path d="M216.778 445V436.273H218.073V437.591H218.164C218.323 437.159 218.611 436.809 219.028 436.54C219.444 436.271 219.914 436.136 220.437 436.136C220.535 436.136 220.658 436.138 220.806 436.142C220.954 436.146 221.066 436.152 221.141 436.159V437.523C221.096 437.511 220.992 437.494 220.829 437.472C220.67 437.445 220.501 437.432 220.323 437.432C219.899 437.432 219.52 437.521 219.187 437.699C218.857 437.873 218.596 438.116 218.403 438.426C218.213 438.733 218.119 439.083 218.119 439.477V445H216.778ZM226.124 445.182C225.283 445.182 224.558 444.996 223.948 444.625C223.342 444.25 222.874 443.727 222.545 443.057C222.219 442.383 222.056 441.598 222.056 440.705C222.056 439.811 222.219 439.023 222.545 438.341C222.874 437.655 223.333 437.121 223.92 436.739C224.511 436.352 225.2 436.159 225.988 436.159C226.443 436.159 226.891 436.235 227.335 436.386C227.778 436.538 228.181 436.784 228.545 437.125C228.908 437.462 229.198 437.909 229.414 438.466C229.63 439.023 229.738 439.708 229.738 440.523V441.091H223.011V439.932H228.374C228.374 439.439 228.276 439 228.079 438.614C227.886 438.227 227.609 437.922 227.249 437.699C226.893 437.475 226.473 437.364 225.988 437.364C225.454 437.364 224.992 437.496 224.602 437.761C224.215 438.023 223.918 438.364 223.71 438.784C223.501 439.205 223.397 439.655 223.397 440.136V440.909C223.397 441.568 223.511 442.127 223.738 442.585C223.969 443.04 224.289 443.386 224.698 443.625C225.107 443.86 225.583 443.977 226.124 443.977C226.477 443.977 226.795 443.928 227.079 443.83C227.367 443.727 227.615 443.576 227.823 443.375C228.032 443.17 228.193 442.917 228.306 442.614L229.602 442.977C229.465 443.417 229.236 443.803 228.914 444.136C228.592 444.466 228.194 444.723 227.721 444.909C227.247 445.091 226.715 445.182 226.124 445.182ZM237.96 438.227L236.755 438.568C236.679 438.367 236.568 438.172 236.42 437.983C236.276 437.79 236.079 437.631 235.829 437.506C235.579 437.381 235.259 437.318 234.869 437.318C234.335 437.318 233.889 437.441 233.533 437.688C233.181 437.93 233.005 438.239 233.005 438.614C233.005 438.947 233.126 439.21 233.369 439.403C233.611 439.597 233.99 439.758 234.505 439.886L235.8 440.205C236.581 440.394 237.162 440.684 237.545 441.074C237.927 441.46 238.119 441.958 238.119 442.568C238.119 443.068 237.975 443.515 237.687 443.909C237.403 444.303 237.005 444.614 236.494 444.841C235.982 445.068 235.388 445.182 234.71 445.182C233.819 445.182 233.083 444.989 232.499 444.602C231.916 444.216 231.547 443.652 231.391 442.909L232.664 442.591C232.785 443.061 233.014 443.413 233.352 443.648C233.693 443.883 234.138 444 234.687 444C235.312 444 235.808 443.867 236.175 443.602C236.547 443.333 236.732 443.011 236.732 442.636C236.732 442.333 236.626 442.08 236.414 441.875C236.202 441.667 235.876 441.511 235.437 441.409L233.982 441.068C233.183 440.879 232.596 440.585 232.221 440.188C231.85 439.786 231.664 439.284 231.664 438.682C231.664 438.189 231.802 437.754 232.079 437.375C232.359 436.996 232.74 436.699 233.221 436.483C233.706 436.267 234.255 436.159 234.869 436.159C235.732 436.159 236.41 436.348 236.903 436.727C237.399 437.106 237.751 437.606 237.96 438.227ZM240.137 448.273V436.273H241.433V437.659H241.592C241.69 437.508 241.827 437.314 242.001 437.08C242.179 436.841 242.433 436.629 242.762 436.443C243.095 436.254 243.546 436.159 244.114 436.159C244.849 436.159 245.497 436.343 246.058 436.71C246.618 437.078 247.056 437.598 247.37 438.273C247.684 438.947 247.842 439.742 247.842 440.659C247.842 441.583 247.684 442.384 247.37 443.062C247.056 443.737 246.62 444.259 246.063 444.631C245.506 444.998 244.864 445.182 244.137 445.182C243.577 445.182 243.128 445.089 242.791 444.903C242.453 444.714 242.194 444.5 242.012 444.261C241.83 444.019 241.69 443.818 241.592 443.659H241.478V448.273H240.137ZM241.455 440.636C241.455 441.295 241.552 441.877 241.745 442.381C241.938 442.881 242.22 443.273 242.592 443.557C242.963 443.837 243.417 443.977 243.955 443.977C244.516 443.977 244.984 443.83 245.359 443.534C245.738 443.235 246.022 442.833 246.211 442.33C246.404 441.822 246.501 441.258 246.501 440.636C246.501 440.023 246.406 439.47 246.217 438.977C246.031 438.481 245.749 438.089 245.37 437.801C244.995 437.509 244.523 437.364 243.955 437.364C243.41 437.364 242.952 437.502 242.58 437.778C242.209 438.051 241.929 438.434 241.739 438.926C241.55 439.415 241.455 439.985 241.455 440.636ZM256.711 436.273L253.484 445H252.12L248.893 436.273H250.347L252.756 443.227H252.847L255.256 436.273H256.711ZM258.481 445V436.273H259.822V445H258.481ZM259.163 434.818C258.901 434.818 258.676 434.729 258.487 434.551C258.301 434.373 258.208 434.159 258.208 433.909C258.208 433.659 258.301 433.445 258.487 433.267C258.676 433.089 258.901 433 259.163 433C259.424 433 259.648 433.089 259.833 433.267C260.023 433.445 260.117 433.659 260.117 433.909C260.117 434.159 260.023 434.373 259.833 434.551C259.648 434.729 259.424 434.818 259.163 434.818ZM268.46 438.227L267.255 438.568C267.179 438.367 267.068 438.172 266.92 437.983C266.776 437.79 266.579 437.631 266.329 437.506C266.079 437.381 265.759 437.318 265.369 437.318C264.835 437.318 264.389 437.441 264.033 437.688C263.681 437.93 263.505 438.239 263.505 438.614C263.505 438.947 263.626 439.21 263.869 439.403C264.111 439.597 264.49 439.758 265.005 439.886L266.3 440.205C267.081 440.394 267.662 440.684 268.045 441.074C268.427 441.46 268.619 441.958 268.619 442.568C268.619 443.068 268.475 443.515 268.187 443.909C267.903 444.303 267.505 444.614 266.994 444.841C266.482 445.068 265.888 445.182 265.21 445.182C264.319 445.182 263.583 444.989 262.999 444.602C262.416 444.216 262.047 443.652 261.891 442.909L263.164 442.591C263.285 443.061 263.514 443.413 263.852 443.648C264.193 443.883 264.638 444 265.187 444C265.812 444 266.308 443.867 266.675 443.602C267.047 443.333 267.232 443.011 267.232 442.636C267.232 442.333 267.126 442.08 266.914 441.875C266.702 441.667 266.376 441.511 265.937 441.409L264.482 441.068C263.683 440.879 263.096 440.585 262.721 440.188C262.35 439.786 262.164 439.284 262.164 438.682C262.164 438.189 262.302 437.754 262.579 437.375C262.859 436.996 263.24 436.699 263.721 436.483C264.206 436.267 264.755 436.159 265.369 436.159C266.232 436.159 266.91 436.348 267.403 436.727C267.899 437.106 268.251 437.606 268.46 438.227ZM275.637 439.386V440.636H270.546V439.386H275.637ZM279.337 433.364V445H277.996V433.364H279.337ZM281.793 445V436.273H283.134V445H281.793ZM282.475 434.818C282.214 434.818 281.988 434.729 281.799 434.551C281.613 434.373 281.521 434.159 281.521 433.909C281.521 433.659 281.613 433.445 281.799 433.267C281.988 433.089 282.214 433 282.475 433C282.737 433 282.96 433.089 283.146 433.267C283.335 433.445 283.43 433.659 283.43 433.909C283.43 434.159 283.335 434.373 283.146 434.551C282.96 434.729 282.737 434.818 282.475 434.818ZM286.931 439.75V445H285.59V436.273H286.886V437.636H286.999C287.204 437.193 287.514 436.837 287.931 436.568C288.348 436.295 288.886 436.159 289.545 436.159C290.136 436.159 290.653 436.28 291.096 436.523C291.539 436.761 291.884 437.125 292.13 437.614C292.376 438.098 292.499 438.712 292.499 439.455V445H291.158V439.545C291.158 438.86 290.98 438.326 290.624 437.943C290.268 437.557 289.78 437.364 289.158 437.364C288.73 437.364 288.348 437.456 288.011 437.642C287.677 437.828 287.414 438.098 287.221 438.455C287.028 438.811 286.931 439.242 286.931 439.75ZM298.609 445.182C297.768 445.182 297.042 444.996 296.433 444.625C295.827 444.25 295.359 443.727 295.029 443.057C294.703 442.383 294.541 441.598 294.541 440.705C294.541 439.811 294.703 439.023 295.029 438.341C295.359 437.655 295.817 437.121 296.404 436.739C296.995 436.352 297.684 436.159 298.472 436.159C298.927 436.159 299.376 436.235 299.819 436.386C300.262 436.538 300.666 436.784 301.029 437.125C301.393 437.462 301.683 437.909 301.898 438.466C302.114 439.023 302.222 439.708 302.222 440.523V441.091H295.495V439.932H300.859C300.859 439.439 300.76 439 300.563 438.614C300.37 438.227 300.094 437.922 299.734 437.699C299.378 437.475 298.957 437.364 298.472 437.364C297.938 437.364 297.476 437.496 297.086 437.761C296.7 438.023 296.402 438.364 296.194 438.784C295.986 439.205 295.881 439.655 295.881 440.136V440.909C295.881 441.568 295.995 442.127 296.222 442.585C296.453 443.04 296.773 443.386 297.183 443.625C297.592 443.86 298.067 443.977 298.609 443.977C298.961 443.977 299.279 443.928 299.563 443.83C299.851 443.727 300.099 443.576 300.308 443.375C300.516 443.17 300.677 442.917 300.791 442.614L302.086 442.977C301.95 443.417 301.72 443.803 301.398 444.136C301.077 444.466 300.679 444.723 300.205 444.909C299.732 445.091 299.2 445.182 298.609 445.182Z" fill="black"/>
<rect x="180.05" y="340.5" width="159" height="39" stroke="black"/>
<path d="M210.778 365V356.273H212.073V357.591H212.164C212.323 357.159 212.611 356.809 213.028 356.54C213.444 356.271 213.914 356.136 214.437 356.136C214.535 356.136 214.658 356.138 214.806 356.142C214.954 356.146 215.066 356.152 215.141 356.159V357.523C215.096 357.511 214.992 357.494 214.829 357.472C214.67 357.445 214.501 357.432 214.323 357.432C213.899 357.432 213.52 357.521 213.187 357.699C212.857 357.873 212.596 358.116 212.403 358.426C212.213 358.733 212.119 359.083 212.119 359.477V365H210.778ZM220.124 365.182C219.283 365.182 218.558 364.996 217.948 364.625C217.342 364.25 216.874 363.727 216.545 363.057C216.219 362.383 216.056 361.598 216.056 360.705C216.056 359.811 216.219 359.023 216.545 358.341C216.874 357.655 217.333 357.121 217.92 356.739C218.511 356.352 219.2 356.159 219.988 356.159C220.443 356.159 220.891 356.235 221.335 356.386C221.778 356.538 222.181 356.784 222.545 357.125C222.908 357.462 223.198 357.909 223.414 358.466C223.63 359.023 223.738 359.708 223.738 360.523V361.091H217.011V359.932H222.374C222.374 359.439 222.276 359 222.079 358.614C221.886 358.227 221.609 357.922 221.249 357.699C220.893 357.475 220.473 357.364 219.988 357.364C219.454 357.364 218.992 357.496 218.602 357.761C218.215 358.023 217.918 358.364 217.71 358.784C217.501 359.205 217.397 359.655 217.397 360.136V360.909C217.397 361.568 217.511 362.127 217.738 362.585C217.969 363.04 218.289 363.386 218.698 363.625C219.107 363.86 219.583 363.977 220.124 363.977C220.477 363.977 220.795 363.928 221.079 363.83C221.367 363.727 221.615 363.576 221.823 363.375C222.032 363.17 222.193 362.917 222.306 362.614L223.602 362.977C223.465 363.417 223.236 363.803 222.914 364.136C222.592 364.466 222.194 364.723 221.721 364.909C221.247 365.091 220.715 365.182 220.124 365.182ZM231.96 358.227L230.755 358.568C230.679 358.367 230.568 358.172 230.42 357.983C230.276 357.79 230.079 357.631 229.829 357.506C229.579 357.381 229.259 357.318 228.869 357.318C228.335 357.318 227.889 357.441 227.533 357.688C227.181 357.93 227.005 358.239 227.005 358.614C227.005 358.947 227.126 359.21 227.369 359.403C227.611 359.597 227.99 359.758 228.505 359.886L229.8 360.205C230.581 360.394 231.162 360.684 231.545 361.074C231.927 361.46 232.119 361.958 232.119 362.568C232.119 363.068 231.975 363.515 231.687 363.909C231.403 364.303 231.005 364.614 230.494 364.841C229.982 365.068 229.388 365.182 228.71 365.182C227.819 365.182 227.083 364.989 226.499 364.602C225.916 364.216 225.547 363.652 225.391 362.909L226.664 362.591C226.785 363.061 227.014 363.413 227.352 363.648C227.693 363.883 228.138 364 228.687 364C229.312 364 229.808 363.867 230.175 363.602C230.547 363.333 230.732 363.011 230.732 362.636C230.732 362.333 230.626 362.08 230.414 361.875C230.202 361.667 229.876 361.511 229.437 361.409L227.982 361.068C227.183 360.879 226.596 360.585 226.221 360.188C225.85 359.786 225.664 359.284 225.664 358.682C225.664 358.189 225.802 357.754 226.079 357.375C226.359 356.996 226.74 356.699 227.221 356.483C227.706 356.267 228.255 356.159 228.869 356.159C229.732 356.159 230.41 356.348 230.903 356.727C231.399 357.106 231.751 357.606 231.96 358.227ZM234.137 368.273V356.273H235.433V357.659H235.592C235.69 357.508 235.827 357.314 236.001 357.08C236.179 356.841 236.433 356.629 236.762 356.443C237.095 356.254 237.546 356.159 238.114 356.159C238.849 356.159 239.497 356.343 240.058 356.71C240.618 357.078 241.056 357.598 241.37 358.273C241.684 358.947 241.842 359.742 241.842 360.659C241.842 361.583 241.684 362.384 241.37 363.062C241.056 363.737 240.62 364.259 240.063 364.631C239.506 364.998 238.864 365.182 238.137 365.182C237.577 365.182 237.128 365.089 236.791 364.903C236.453 364.714 236.194 364.5 236.012 364.261C235.83 364.019 235.69 363.818 235.592 363.659H235.478V368.273H234.137ZM235.455 360.636C235.455 361.295 235.552 361.877 235.745 362.381C235.938 362.881 236.22 363.273 236.592 363.557C236.963 363.837 237.417 363.977 237.955 363.977C238.516 363.977 238.984 363.83 239.359 363.534C239.738 363.235 240.022 362.833 240.211 362.33C240.404 361.822 240.501 361.258 240.501 360.636C240.501 360.023 240.406 359.47 240.217 358.977C240.031 358.481 239.749 358.089 239.37 357.801C238.995 357.509 238.523 357.364 237.955 357.364C237.41 357.364 236.952 357.502 236.58 357.778C236.209 358.051 235.929 358.434 235.739 358.926C235.55 359.415 235.455 359.985 235.455 360.636ZM250.711 356.273L247.484 365H246.12L242.893 356.273H244.347L246.756 363.227H246.847L249.256 356.273H250.711ZM252.481 365V356.273H253.822V365H252.481ZM253.163 354.818C252.901 354.818 252.676 354.729 252.487 354.551C252.301 354.373 252.208 354.159 252.208 353.909C252.208 353.659 252.301 353.445 252.487 353.267C252.676 353.089 252.901 353 253.163 353C253.424 353 253.648 353.089 253.833 353.267C254.023 353.445 254.117 353.659 254.117 353.909C254.117 354.159 254.023 354.373 253.833 354.551C253.648 354.729 253.424 354.818 253.163 354.818ZM262.46 358.227L261.255 358.568C261.179 358.367 261.068 358.172 260.92 357.983C260.776 357.79 260.579 357.631 260.329 357.506C260.079 357.381 259.759 357.318 259.369 357.318C258.835 357.318 258.389 357.441 258.033 357.688C257.681 357.93 257.505 358.239 257.505 358.614C257.505 358.947 257.626 359.21 257.869 359.403C258.111 359.597 258.49 359.758 259.005 359.886L260.3 360.205C261.081 360.394 261.662 360.684 262.045 361.074C262.427 361.46 262.619 361.958 262.619 362.568C262.619 363.068 262.475 363.515 262.187 363.909C261.903 364.303 261.505 364.614 260.994 364.841C260.482 365.068 259.888 365.182 259.21 365.182C258.319 365.182 257.583 364.989 256.999 364.602C256.416 364.216 256.047 363.652 255.891 362.909L257.164 362.591C257.285 363.061 257.514 363.413 257.852 363.648C258.193 363.883 258.638 364 259.187 364C259.812 364 260.308 363.867 260.675 363.602C261.047 363.333 261.232 363.011 261.232 362.636C261.232 362.333 261.126 362.08 260.914 361.875C260.702 361.667 260.376 361.511 259.937 361.409L258.482 361.068C257.683 360.879 257.096 360.585 256.721 360.188C256.35 359.786 256.164 359.284 256.164 358.682C256.164 358.189 256.302 357.754 256.579 357.375C256.859 356.996 257.24 356.699 257.721 356.483C258.206 356.267 258.755 356.159 259.369 356.159C260.232 356.159 260.91 356.348 261.403 356.727C261.899 357.106 262.251 357.606 262.46 358.227ZM269.637 359.386V360.636H264.546V359.386H269.637ZM271.996 368.273V356.273H273.292V357.659H273.451C273.55 357.508 273.686 357.314 273.86 357.08C274.038 356.841 274.292 356.629 274.621 356.443C274.955 356.254 275.406 356.159 275.974 356.159C276.709 356.159 277.356 356.343 277.917 356.71C278.478 357.078 278.915 357.598 279.229 358.273C279.544 358.947 279.701 359.742 279.701 360.659C279.701 361.583 279.544 362.384 279.229 363.062C278.915 363.737 278.479 364.259 277.923 364.631C277.366 364.998 276.724 365.182 275.996 365.182C275.436 365.182 274.987 365.089 274.65 364.903C274.313 364.714 274.053 364.5 273.871 364.261C273.69 364.019 273.55 363.818 273.451 363.659H273.337V368.273H271.996ZM273.315 360.636C273.315 361.295 273.411 361.877 273.604 362.381C273.798 362.881 274.08 363.273 274.451 363.557C274.822 363.837 275.277 363.977 275.815 363.977C276.375 363.977 276.843 363.83 277.218 363.534C277.597 363.235 277.881 362.833 278.07 362.33C278.264 361.822 278.36 361.258 278.36 360.636C278.36 360.023 278.265 359.47 278.076 358.977C277.89 358.481 277.608 358.089 277.229 357.801C276.854 357.509 276.383 357.364 275.815 357.364C275.269 357.364 274.811 357.502 274.44 357.778C274.068 358.051 273.788 358.434 273.599 358.926C273.409 359.415 273.315 359.985 273.315 360.636ZM285.292 365.182C284.504 365.182 283.813 364.994 283.218 364.619C282.627 364.244 282.165 363.72 281.832 363.045C281.502 362.371 281.337 361.583 281.337 360.682C281.337 359.773 281.502 358.979 281.832 358.301C282.165 357.623 282.627 357.097 283.218 356.722C283.813 356.347 284.504 356.159 285.292 356.159C286.08 356.159 286.769 356.347 287.36 356.722C287.955 357.097 288.417 357.623 288.746 358.301C289.08 358.979 289.246 359.773 289.246 360.682C289.246 361.583 289.08 362.371 288.746 363.045C288.417 363.72 287.955 364.244 287.36 364.619C286.769 364.994 286.08 365.182 285.292 365.182ZM285.292 363.977C285.89 363.977 286.383 363.824 286.769 363.517C287.156 363.21 287.442 362.807 287.627 362.307C287.813 361.807 287.906 361.265 287.906 360.682C287.906 360.098 287.813 359.555 287.627 359.051C287.442 358.547 287.156 358.14 286.769 357.83C286.383 357.519 285.89 357.364 285.292 357.364C284.693 357.364 284.201 357.519 283.815 357.83C283.428 358.14 283.142 358.547 282.957 359.051C282.771 359.555 282.678 360.098 282.678 360.682C282.678 361.265 282.771 361.807 282.957 362.307C283.142 362.807 283.428 363.21 283.815 363.517C284.201 363.824 284.693 363.977 285.292 363.977ZM291.293 365V356.273H292.634V365H291.293ZM291.975 354.818C291.714 354.818 291.488 354.729 291.299 354.551C291.113 354.373 291.021 354.159 291.021 353.909C291.021 353.659 291.113 353.445 291.299 353.267C291.488 353.089 291.714 353 291.975 353C292.237 353 292.46 353.089 292.646 353.267C292.835 353.445 292.93 353.659 292.93 353.909C292.93 354.159 292.835 354.373 292.646 354.551C292.46 354.729 292.237 354.818 291.975 354.818ZM296.431 359.75V365H295.09V356.273H296.386V357.636H296.499C296.704 357.193 297.014 356.837 297.431 356.568C297.848 356.295 298.386 356.159 299.045 356.159C299.636 356.159 300.153 356.28 300.596 356.523C301.039 356.761 301.384 357.125 301.63 357.614C301.876 358.098 301.999 358.712 301.999 359.455V365H300.658V359.545C300.658 358.86 300.48 358.326 300.124 357.943C299.768 357.557 299.28 357.364 298.658 357.364C298.23 357.364 297.848 357.456 297.511 357.642C297.177 357.828 296.914 358.098 296.721 358.455C296.528 358.811 296.431 359.242 296.431 359.75ZM308.245 356.273V357.409H303.722V356.273H308.245ZM305.041 354.182H306.381V362.5C306.381 362.879 306.436 363.163 306.546 363.352C306.66 363.538 306.804 363.663 306.978 363.727C307.156 363.788 307.344 363.818 307.541 363.818C307.688 363.818 307.809 363.811 307.904 363.795C307.999 363.777 308.075 363.761 308.131 363.75L308.404 364.955C308.313 364.989 308.186 365.023 308.023 365.057C307.861 365.095 307.654 365.114 307.404 365.114C307.025 365.114 306.654 365.032 306.291 364.869C305.931 364.706 305.631 364.458 305.393 364.125C305.158 363.792 305.041 363.371 305.041 362.864V354.182Z" fill="black"/>
<rect x="180.05" y="260.5" width="159" height="39" stroke="black"/>
<path d="M216.778 285V276.273H218.073V277.591H218.164C218.323 277.159 218.611 276.809 219.028 276.54C219.444 276.271 219.914 276.136 220.437 276.136C220.535 276.136 220.658 276.138 220.806 276.142C220.954 276.146 221.066 276.152 221.141 276.159V277.523C221.096 277.511 220.992 277.494 220.829 277.472C220.67 277.445 220.501 277.432 220.323 277.432C219.899 277.432 219.52 277.521 219.187 277.699C218.857 277.873 218.596 278.116 218.403 278.426C218.213 278.733 218.119 279.083 218.119 279.477V285H216.778ZM226.124 285.182C225.283 285.182 224.558 284.996 223.948 284.625C223.342 284.25 222.874 283.727 222.545 283.057C222.219 282.383 222.056 281.598 222.056 280.705C222.056 279.811 222.219 279.023 222.545 278.341C222.874 277.655 223.333 277.121 223.92 276.739C224.511 276.352 225.2 276.159 225.988 276.159C226.443 276.159 226.891 276.235 227.335 276.386C227.778 276.538 228.181 276.784 228.545 277.125C228.908 277.462 229.198 277.909 229.414 278.466C229.63 279.023 229.738 279.708 229.738 280.523V281.091H223.011V279.932H228.374C228.374 279.439 228.276 279 228.079 278.614C227.886 278.227 227.609 277.922 227.249 277.699C226.893 277.475 226.473 277.364 225.988 277.364C225.454 277.364 224.992 277.496 224.602 277.761C224.215 278.023 223.918 278.364 223.71 278.784C223.501 279.205 223.397 279.655 223.397 280.136V280.909C223.397 281.568 223.511 282.127 223.738 282.585C223.969 283.04 224.289 283.386 224.698 283.625C225.107 283.86 225.583 283.977 226.124 283.977C226.477 283.977 226.795 283.928 227.079 283.83C227.367 283.727 227.615 283.576 227.823 283.375C228.032 283.17 228.193 282.917 228.306 282.614L229.602 282.977C229.465 283.417 229.236 283.803 228.914 284.136C228.592 284.466 228.194 284.723 227.721 284.909C227.247 285.091 226.715 285.182 226.124 285.182ZM237.96 278.227L236.755 278.568C236.679 278.367 236.568 278.172 236.42 277.983C236.276 277.79 236.079 277.631 235.829 277.506C235.579 277.381 235.259 277.318 234.869 277.318C234.335 277.318 233.889 277.441 233.533 277.688C233.181 277.93 233.005 278.239 233.005 278.614C233.005 278.947 233.126 279.21 233.369 279.403C233.611 279.597 233.99 279.758 234.505 279.886L235.8 280.205C236.581 280.394 237.162 280.684 237.545 281.074C237.927 281.46 238.119 281.958 238.119 282.568C238.119 283.068 237.975 283.515 237.687 283.909C237.403 284.303 237.005 284.614 236.494 284.841C235.982 285.068 235.388 285.182 234.71 285.182C233.819 285.182 233.083 284.989 232.499 284.602C231.916 284.216 231.547 283.652 231.391 282.909L232.664 282.591C232.785 283.061 233.014 283.413 233.352 283.648C233.693 283.883 234.138 284 234.687 284C235.312 284 235.808 283.867 236.175 283.602C236.547 283.333 236.732 283.011 236.732 282.636C236.732 282.333 236.626 282.08 236.414 281.875C236.202 281.667 235.876 281.511 235.437 281.409L233.982 281.068C233.183 280.879 232.596 280.585 232.221 280.188C231.85 279.786 231.664 279.284 231.664 278.682C231.664 278.189 231.802 277.754 232.079 277.375C232.359 276.996 232.74 276.699 233.221 276.483C233.706 276.267 234.255 276.159 234.869 276.159C235.732 276.159 236.41 276.348 236.903 276.727C237.399 277.106 237.751 277.606 237.96 278.227ZM240.137 288.273V276.273H241.433V277.659H241.592C241.69 277.508 241.827 277.314 242.001 277.08C242.179 276.841 242.433 276.629 242.762 276.443C243.095 276.254 243.546 276.159 244.114 276.159C244.849 276.159 245.497 276.343 246.058 276.71C246.618 277.078 247.056 277.598 247.37 278.273C247.684 278.947 247.842 279.742 247.842 280.659C247.842 281.583 247.684 282.384 247.37 283.062C247.056 283.737 246.62 284.259 246.063 284.631C245.506 284.998 244.864 285.182 244.137 285.182C243.577 285.182 243.128 285.089 242.791 284.903C242.453 284.714 242.194 284.5 242.012 284.261C241.83 284.019 241.69 283.818 241.592 283.659H241.478V288.273H240.137ZM241.455 280.636C241.455 281.295 241.552 281.877 241.745 282.381C241.938 282.881 242.22 283.273 242.592 283.557C242.963 283.837 243.417 283.977 243.955 283.977C244.516 283.977 244.984 283.83 245.359 283.534C245.738 283.235 246.022 282.833 246.211 282.33C246.404 281.822 246.501 281.258 246.501 280.636C246.501 280.023 246.406 279.47 246.217 278.977C246.031 278.481 245.749 278.089 245.37 277.801C244.995 277.509 244.523 277.364 243.955 277.364C243.41 277.364 242.952 277.502 242.58 277.778C242.209 278.051 241.929 278.434 241.739 278.926C241.55 279.415 241.455 279.985 241.455 280.636ZM256.711 276.273L253.484 285H252.12L248.893 276.273H250.347L252.756 283.227H252.847L255.256 276.273H256.711ZM258.481 285V276.273H259.822V285H258.481ZM259.163 274.818C258.901 274.818 258.676 274.729 258.487 274.551C258.301 274.373 258.208 274.159 258.208 273.909C258.208 273.659 258.301 273.445 258.487 273.267C258.676 273.089 258.901 273 259.163 273C259.424 273 259.648 273.089 259.833 273.267C260.023 273.445 260.117 273.659 260.117 273.909C260.117 274.159 260.023 274.373 259.833 274.551C259.648 274.729 259.424 274.818 259.163 274.818ZM268.46 278.227L267.255 278.568C267.179 278.367 267.068 278.172 266.92 277.983C266.776 277.79 266.579 277.631 266.329 277.506C266.079 277.381 265.759 277.318 265.369 277.318C264.835 277.318 264.389 277.441 264.033 277.688C263.681 277.93 263.505 278.239 263.505 278.614C263.505 278.947 263.626 279.21 263.869 279.403C264.111 279.597 264.49 279.758 265.005 279.886L266.3 280.205C267.081 280.394 267.662 280.684 268.045 281.074C268.427 281.46 268.619 281.958 268.619 282.568C268.619 283.068 268.475 283.515 268.187 283.909C267.903 284.303 267.505 284.614 266.994 284.841C266.482 285.068 265.888 285.182 265.21 285.182C264.319 285.182 263.583 284.989 262.999 284.602C262.416 284.216 262.047 283.652 261.891 282.909L263.164 282.591C263.285 283.061 263.514 283.413 263.852 283.648C264.193 283.883 264.638 284 265.187 284C265.812 284 266.308 283.867 266.675 283.602C267.047 283.333 267.232 283.011 267.232 282.636C267.232 282.333 267.126 282.08 266.914 281.875C266.702 281.667 266.376 281.511 265.937 281.409L264.482 281.068C263.683 280.879 263.096 280.585 262.721 280.188C262.35 279.786 262.164 279.284 262.164 278.682C262.164 278.189 262.302 277.754 262.579 277.375C262.859 276.996 263.24 276.699 263.721 276.483C264.206 276.267 264.755 276.159 265.369 276.159C266.232 276.159 266.91 276.348 267.403 276.727C267.899 277.106 268.251 277.606 268.46 278.227ZM275.637 279.386V280.636H270.546V279.386H275.637ZM278.178 285V273.364H279.519V277.659H279.633C279.731 277.508 279.868 277.314 280.042 277.08C280.22 276.841 280.474 276.629 280.803 276.443C281.137 276.254 281.587 276.159 282.156 276.159C282.89 276.159 283.538 276.343 284.099 276.71C284.659 277.078 285.097 277.598 285.411 278.273C285.726 278.947 285.883 279.742 285.883 280.659C285.883 281.583 285.726 282.384 285.411 283.062C285.097 283.737 284.661 284.259 284.104 284.631C283.548 284.998 282.906 285.182 282.178 285.182C281.618 285.182 281.169 285.089 280.832 284.903C280.495 284.714 280.235 284.5 280.053 284.261C279.871 284.019 279.731 283.818 279.633 283.659H279.474V285H278.178ZM279.496 280.636C279.496 281.295 279.593 281.877 279.786 282.381C279.979 282.881 280.262 283.273 280.633 283.557C281.004 283.837 281.459 283.977 281.996 283.977C282.557 283.977 283.025 283.83 283.4 283.534C283.779 283.235 284.063 282.833 284.252 282.33C284.445 281.822 284.542 281.258 284.542 280.636C284.542 280.023 284.447 279.47 284.258 278.977C284.072 278.481 283.79 278.089 283.411 277.801C283.036 277.509 282.565 277.364 281.996 277.364C281.451 277.364 280.993 277.502 280.621 277.778C280.25 278.051 279.97 278.434 279.781 278.926C279.591 279.415 279.496 279.985 279.496 280.636ZM290.502 285.205C289.949 285.205 289.447 285.1 288.996 284.892C288.546 284.68 288.188 284.375 287.923 283.977C287.657 283.576 287.525 283.091 287.525 282.523C287.525 282.023 287.623 281.617 287.82 281.307C288.017 280.992 288.281 280.746 288.61 280.568C288.94 280.39 289.303 280.258 289.701 280.17C290.103 280.08 290.506 280.008 290.911 279.955C291.442 279.886 291.871 279.835 292.201 279.801C292.534 279.763 292.777 279.701 292.928 279.614C293.084 279.527 293.161 279.375 293.161 279.159V279.114C293.161 278.553 293.008 278.117 292.701 277.807C292.398 277.496 291.938 277.341 291.32 277.341C290.68 277.341 290.178 277.481 289.815 277.761C289.451 278.042 289.195 278.341 289.048 278.659L287.775 278.205C288.002 277.674 288.305 277.261 288.684 276.966C289.067 276.667 289.483 276.458 289.934 276.341C290.389 276.22 290.836 276.159 291.275 276.159C291.555 276.159 291.877 276.193 292.241 276.261C292.608 276.326 292.962 276.46 293.303 276.665C293.648 276.869 293.934 277.178 294.161 277.591C294.389 278.004 294.502 278.557 294.502 279.25V285H293.161V283.818H293.093C293.002 284.008 292.851 284.21 292.639 284.426C292.426 284.642 292.144 284.826 291.792 284.977C291.44 285.129 291.01 285.205 290.502 285.205ZM290.707 284C291.237 284 291.684 283.896 292.048 283.688C292.415 283.479 292.692 283.21 292.877 282.881C293.067 282.551 293.161 282.205 293.161 281.841V280.614C293.104 280.682 292.979 280.744 292.786 280.801C292.597 280.854 292.377 280.902 292.127 280.943C291.881 280.981 291.64 281.015 291.406 281.045C291.175 281.072 290.987 281.095 290.843 281.114C290.495 281.159 290.169 281.233 289.866 281.335C289.567 281.434 289.324 281.583 289.139 281.784C288.957 281.981 288.866 282.25 288.866 282.591C288.866 283.057 289.038 283.409 289.383 283.648C289.731 283.883 290.173 284 290.707 284ZM296.95 285V276.273H298.245V277.591H298.336C298.495 277.159 298.783 276.809 299.2 276.54C299.616 276.271 300.086 276.136 300.609 276.136C300.707 276.136 300.83 276.138 300.978 276.142C301.126 276.146 301.238 276.152 301.313 276.159V277.523C301.268 277.511 301.164 277.494 301.001 277.472C300.842 277.445 300.673 277.432 300.495 277.432C300.071 277.432 299.692 277.521 299.359 277.699C299.029 277.873 298.768 278.116 298.575 278.426C298.385 278.733 298.291 279.083 298.291 279.477V285H296.95Z" fill="black"/>
<rect x="180.05" y="180.5" width="159" height="39" stroke="black"/>
<path d="M194.778 205V196.273H196.073V197.591H196.164C196.323 197.159 196.611 196.809 197.028 196.54C197.444 196.271 197.914 196.136 198.437 196.136C198.535 196.136 198.658 196.138 198.806 196.142C198.954 196.146 199.066 196.152 199.141 196.159V197.523C199.096 197.511 198.992 197.494 198.829 197.472C198.67 197.445 198.501 197.432 198.323 197.432C197.899 197.432 197.52 197.521 197.187 197.699C196.857 197.873 196.596 198.116 196.403 198.426C196.213 198.733 196.119 199.083 196.119 199.477V205H194.778ZM204.124 205.182C203.283 205.182 202.558 204.996 201.948 204.625C201.342 204.25 200.874 203.727 200.545 203.057C200.219 202.383 200.056 201.598 200.056 200.705C200.056 199.811 200.219 199.023 200.545 198.341C200.874 197.655 201.333 197.121 201.92 196.739C202.511 196.352 203.2 196.159 203.988 196.159C204.443 196.159 204.891 196.235 205.335 196.386C205.778 196.538 206.181 196.784 206.545 197.125C206.908 197.462 207.198 197.909 207.414 198.466C207.63 199.023 207.738 199.708 207.738 200.523V201.091H201.011V199.932H206.374C206.374 199.439 206.276 199 206.079 198.614C205.886 198.227 205.609 197.922 205.249 197.699C204.893 197.475 204.473 197.364 203.988 197.364C203.454 197.364 202.992 197.496 202.602 197.761C202.215 198.023 201.918 198.364 201.71 198.784C201.501 199.205 201.397 199.655 201.397 200.136V200.909C201.397 201.568 201.511 202.127 201.738 202.585C201.969 203.04 202.289 203.386 202.698 203.625C203.107 203.86 203.583 203.977 204.124 203.977C204.477 203.977 204.795 203.928 205.079 203.83C205.367 203.727 205.615 203.576 205.823 203.375C206.032 203.17 206.193 202.917 206.306 202.614L207.602 202.977C207.465 203.417 207.236 203.803 206.914 204.136C206.592 204.466 206.194 204.723 205.721 204.909C205.247 205.091 204.715 205.182 204.124 205.182ZM215.96 198.227L214.755 198.568C214.679 198.367 214.568 198.172 214.42 197.983C214.276 197.79 214.079 197.631 213.829 197.506C213.579 197.381 213.259 197.318 212.869 197.318C212.335 197.318 211.889 197.441 211.533 197.688C211.181 197.93 211.005 198.239 211.005 198.614C211.005 198.947 211.126 199.21 211.369 199.403C211.611 199.597 211.99 199.758 212.505 199.886L213.8 200.205C214.581 200.394 215.162 200.684 215.545 201.074C215.927 201.46 216.119 201.958 216.119 202.568C216.119 203.068 215.975 203.515 215.687 203.909C215.403 204.303 215.005 204.614 214.494 204.841C213.982 205.068 213.388 205.182 212.71 205.182C211.819 205.182 211.083 204.989 210.499 204.602C209.916 204.216 209.547 203.652 209.391 202.909L210.664 202.591C210.785 203.061 211.014 203.413 211.352 203.648C211.693 203.883 212.138 204 212.687 204C213.312 204 213.808 203.867 214.175 203.602C214.547 203.333 214.732 203.011 214.732 202.636C214.732 202.333 214.626 202.08 214.414 201.875C214.202 201.667 213.876 201.511 213.437 201.409L211.982 201.068C211.183 200.879 210.596 200.585 210.221 200.188C209.85 199.786 209.664 199.284 209.664 198.682C209.664 198.189 209.802 197.754 210.079 197.375C210.359 196.996 210.74 196.699 211.221 196.483C211.706 196.267 212.255 196.159 212.869 196.159C213.732 196.159 214.41 196.348 214.903 196.727C215.399 197.106 215.751 197.606 215.96 198.227ZM218.137 208.273V196.273H219.433V197.659H219.592C219.69 197.508 219.827 197.314 220.001 197.08C220.179 196.841 220.433 196.629 220.762 196.443C221.095 196.254 221.546 196.159 222.114 196.159C222.849 196.159 223.497 196.343 224.058 196.71C224.618 197.078 225.056 197.598 225.37 198.273C225.684 198.947 225.842 199.742 225.842 200.659C225.842 201.583 225.684 202.384 225.37 203.062C225.056 203.737 224.62 204.259 224.063 204.631C223.506 204.998 222.864 205.182 222.137 205.182C221.577 205.182 221.128 205.089 220.791 204.903C220.453 204.714 220.194 204.5 220.012 204.261C219.83 204.019 219.69 203.818 219.592 203.659H219.478V208.273H218.137ZM219.455 200.636C219.455 201.295 219.552 201.877 219.745 202.381C219.938 202.881 220.22 203.273 220.592 203.557C220.963 203.837 221.417 203.977 221.955 203.977C222.516 203.977 222.984 203.83 223.359 203.534C223.738 203.235 224.022 202.833 224.211 202.33C224.404 201.822 224.501 201.258 224.501 200.636C224.501 200.023 224.406 199.47 224.217 198.977C224.031 198.481 223.749 198.089 223.37 197.801C222.995 197.509 222.523 197.364 221.955 197.364C221.41 197.364 220.952 197.502 220.58 197.778C220.209 198.051 219.929 198.434 219.739 198.926C219.55 199.415 219.455 199.985 219.455 200.636ZM234.711 196.273L231.484 205H230.12L226.893 196.273H228.347L230.756 203.227H230.847L233.256 196.273H234.711ZM236.481 205V196.273H237.822V205H236.481ZM237.163 194.818C236.901 194.818 236.676 194.729 236.487 194.551C236.301 194.373 236.208 194.159 236.208 193.909C236.208 193.659 236.301 193.445 236.487 193.267C236.676 193.089 236.901 193 237.163 193C237.424 193 237.648 193.089 237.833 193.267C238.023 193.445 238.117 193.659 238.117 193.909C238.117 194.159 238.023 194.373 237.833 194.551C237.648 194.729 237.424 194.818 237.163 194.818ZM246.46 198.227L245.255 198.568C245.179 198.367 245.068 198.172 244.92 197.983C244.776 197.79 244.579 197.631 244.329 197.506C244.079 197.381 243.759 197.318 243.369 197.318C242.835 197.318 242.389 197.441 242.033 197.688C241.681 197.93 241.505 198.239 241.505 198.614C241.505 198.947 241.626 199.21 241.869 199.403C242.111 199.597 242.49 199.758 243.005 199.886L244.3 200.205C245.081 200.394 245.662 200.684 246.045 201.074C246.427 201.46 246.619 201.958 246.619 202.568C246.619 203.068 246.475 203.515 246.187 203.909C245.903 204.303 245.505 204.614 244.994 204.841C244.482 205.068 243.888 205.182 243.21 205.182C242.319 205.182 241.583 204.989 240.999 204.602C240.416 204.216 240.047 203.652 239.891 202.909L241.164 202.591C241.285 203.061 241.514 203.413 241.852 203.648C242.193 203.883 242.638 204 243.187 204C243.812 204 244.308 203.867 244.675 203.602C245.047 203.333 245.232 203.011 245.232 202.636C245.232 202.333 245.126 202.08 244.914 201.875C244.702 201.667 244.376 201.511 243.937 201.409L242.482 201.068C241.683 200.879 241.096 200.585 240.721 200.188C240.35 199.786 240.164 199.284 240.164 198.682C240.164 198.189 240.302 197.754 240.579 197.375C240.859 196.996 241.24 196.699 241.721 196.483C242.206 196.267 242.755 196.159 243.369 196.159C244.232 196.159 244.91 196.348 245.403 196.727C245.899 197.106 246.251 197.606 246.46 198.227ZM253.637 199.386V200.636H248.546V199.386H253.637ZM259.542 205.182C258.724 205.182 258.019 204.989 257.428 204.602C256.837 204.216 256.383 203.684 256.065 203.006C255.746 202.328 255.587 201.553 255.587 200.682C255.587 199.795 255.75 199.013 256.076 198.335C256.406 197.653 256.864 197.121 257.451 196.739C258.042 196.352 258.731 196.159 259.519 196.159C260.133 196.159 260.686 196.273 261.178 196.5C261.671 196.727 262.074 197.045 262.389 197.455C262.703 197.864 262.898 198.341 262.974 198.886H261.633C261.531 198.489 261.303 198.136 260.951 197.83C260.603 197.519 260.133 197.364 259.542 197.364C259.019 197.364 258.561 197.5 258.167 197.773C257.777 198.042 257.472 198.422 257.252 198.915C257.036 199.403 256.928 199.977 256.928 200.636C256.928 201.311 257.034 201.898 257.246 202.398C257.462 202.898 257.765 203.286 258.156 203.562C258.55 203.839 259.012 203.977 259.542 203.977C259.89 203.977 260.207 203.917 260.491 203.795C260.775 203.674 261.015 203.5 261.212 203.273C261.409 203.045 261.55 202.773 261.633 202.455H262.974C262.898 202.97 262.711 203.434 262.411 203.847C262.116 204.256 261.724 204.581 261.235 204.824C260.75 205.062 260.186 205.182 259.542 205.182ZM267.502 205.205C266.949 205.205 266.447 205.1 265.996 204.892C265.546 204.68 265.188 204.375 264.923 203.977C264.657 203.576 264.525 203.091 264.525 202.523C264.525 202.023 264.623 201.617 264.82 201.307C265.017 200.992 265.281 200.746 265.61 200.568C265.94 200.39 266.303 200.258 266.701 200.17C267.103 200.08 267.506 200.008 267.911 199.955C268.442 199.886 268.871 199.835 269.201 199.801C269.534 199.763 269.777 199.701 269.928 199.614C270.084 199.527 270.161 199.375 270.161 199.159V199.114C270.161 198.553 270.008 198.117 269.701 197.807C269.398 197.496 268.938 197.341 268.32 197.341C267.68 197.341 267.178 197.481 266.815 197.761C266.451 198.042 266.195 198.341 266.048 198.659L264.775 198.205C265.002 197.674 265.305 197.261 265.684 196.966C266.067 196.667 266.483 196.458 266.934 196.341C267.389 196.22 267.836 196.159 268.275 196.159C268.555 196.159 268.877 196.193 269.241 196.261C269.608 196.326 269.962 196.46 270.303 196.665C270.648 196.869 270.934 197.178 271.161 197.591C271.389 198.004 271.502 198.557 271.502 199.25V205H270.161V203.818H270.093C270.002 204.008 269.851 204.21 269.639 204.426C269.426 204.642 269.144 204.826 268.792 204.977C268.44 205.129 268.01 205.205 267.502 205.205ZM267.707 204C268.237 204 268.684 203.896 269.048 203.688C269.415 203.479 269.692 203.21 269.877 202.881C270.067 202.551 270.161 202.205 270.161 201.841V200.614C270.104 200.682 269.979 200.744 269.786 200.801C269.597 200.854 269.377 200.902 269.127 200.943C268.881 200.981 268.64 201.015 268.406 201.045C268.175 201.072 267.987 201.095 267.843 201.114C267.495 201.159 267.169 201.233 266.866 201.335C266.567 201.434 266.324 201.583 266.139 201.784C265.957 201.981 265.866 202.25 265.866 202.591C265.866 203.057 266.038 203.409 266.383 203.648C266.731 203.883 267.173 204 267.707 204ZM273.95 205V196.273H275.245V197.591H275.336C275.495 197.159 275.783 196.809 276.2 196.54C276.616 196.271 277.086 196.136 277.609 196.136C277.707 196.136 277.83 196.138 277.978 196.142C278.126 196.146 278.238 196.152 278.313 196.159V197.523C278.268 197.511 278.164 197.494 278.001 197.472C277.842 197.445 277.673 197.432 277.495 197.432C277.071 197.432 276.692 197.521 276.359 197.699C276.029 197.873 275.768 198.116 275.575 198.426C275.385 198.733 275.291 199.083 275.291 199.477V205H273.95ZM284.245 196.273V197.409H279.722V196.273H284.245ZM281.041 194.182H282.381V202.5C282.381 202.879 282.436 203.163 282.546 203.352C282.66 203.538 282.804 203.663 282.978 203.727C283.156 203.788 283.344 203.818 283.541 203.818C283.688 203.818 283.809 203.811 283.904 203.795C283.999 203.777 284.075 203.761 284.131 203.75L284.404 204.955C284.313 204.989 284.186 205.023 284.023 205.057C283.861 205.095 283.654 205.114 283.404 205.114C283.025 205.114 282.654 205.032 282.291 204.869C281.931 204.706 281.631 204.458 281.393 204.125C281.158 203.792 281.041 203.371 281.041 202.864V194.182ZM289.827 205.182C288.987 205.182 288.261 204.996 287.651 204.625C287.045 204.25 286.577 203.727 286.248 203.057C285.922 202.383 285.759 201.598 285.759 200.705C285.759 199.811 285.922 199.023 286.248 198.341C286.577 197.655 287.036 197.121 287.623 196.739C288.214 196.352 288.903 196.159 289.691 196.159C290.146 196.159 290.595 196.235 291.038 196.386C291.481 196.538 291.884 196.784 292.248 197.125C292.612 197.462 292.901 197.909 293.117 198.466C293.333 199.023 293.441 199.708 293.441 200.523V201.091H286.714V199.932H292.077C292.077 199.439 291.979 199 291.782 198.614C291.589 198.227 291.312 197.922 290.952 197.699C290.596 197.475 290.176 197.364 289.691 197.364C289.157 197.364 288.695 197.496 288.305 197.761C287.918 198.023 287.621 198.364 287.413 198.784C287.204 199.205 287.1 199.655 287.1 200.136V200.909C287.1 201.568 287.214 202.127 287.441 202.585C287.672 203.04 287.992 203.386 288.401 203.625C288.81 203.86 289.286 203.977 289.827 203.977C290.18 203.977 290.498 203.928 290.782 203.83C291.07 203.727 291.318 203.576 291.526 203.375C291.735 203.17 291.896 202.917 292.009 202.614L293.305 202.977C293.168 203.417 292.939 203.803 292.617 204.136C292.295 204.466 291.898 204.723 291.424 204.909C290.951 205.091 290.418 205.182 289.827 205.182ZM301.663 198.227L300.458 198.568C300.382 198.367 300.271 198.172 300.123 197.983C299.979 197.79 299.782 197.631 299.532 197.506C299.282 197.381 298.962 197.318 298.572 197.318C298.038 197.318 297.593 197.441 297.237 197.688C296.884 197.93 296.708 198.239 296.708 198.614C296.708 198.947 296.829 199.21 297.072 199.403C297.314 199.597 297.693 199.758 298.208 199.886L299.504 200.205C300.284 200.394 300.865 200.684 301.248 201.074C301.63 201.46 301.822 201.958 301.822 202.568C301.822 203.068 301.678 203.515 301.39 203.909C301.106 204.303 300.708 204.614 300.197 204.841C299.685 205.068 299.091 205.182 298.413 205.182C297.523 205.182 296.786 204.989 296.202 204.602C295.619 204.216 295.25 203.652 295.095 202.909L296.367 202.591C296.488 203.061 296.718 203.413 297.055 203.648C297.396 203.883 297.841 204 298.39 204C299.015 204 299.511 203.867 299.879 203.602C300.25 203.333 300.435 203.011 300.435 202.636C300.435 202.333 300.329 202.08 300.117 201.875C299.905 201.667 299.579 201.511 299.14 201.409L297.685 201.068C296.886 200.879 296.299 200.585 295.924 200.188C295.553 199.786 295.367 199.284 295.367 198.682C295.367 198.189 295.505 197.754 295.782 197.375C296.062 196.996 296.443 196.699 296.924 196.483C297.409 196.267 297.958 196.159 298.572 196.159C299.435 196.159 300.113 196.348 300.606 196.727C301.102 197.106 301.454 197.606 301.663 198.227ZM303.84 205V196.273H305.181V205H303.84ZM304.522 194.818C304.261 194.818 304.035 194.729 303.846 194.551C303.66 194.373 303.568 194.159 303.568 193.909C303.568 193.659 303.66 193.445 303.846 193.267C304.035 193.089 304.261 193 304.522 193C304.783 193 305.007 193.089 305.193 193.267C305.382 193.445 305.477 193.659 305.477 193.909C305.477 194.159 305.382 194.373 305.193 194.551C305.007 194.729 304.783 194.818 304.522 194.818ZM310.205 205.205C309.652 205.205 309.15 205.1 308.7 204.892C308.249 204.68 307.891 204.375 307.626 203.977C307.361 203.576 307.228 203.091 307.228 202.523C307.228 202.023 307.327 201.617 307.523 201.307C307.72 200.992 307.984 200.746 308.313 200.568C308.643 200.39 309.006 200.258 309.404 200.17C309.806 200.08 310.209 200.008 310.614 199.955C311.145 199.886 311.575 199.835 311.904 199.801C312.238 199.763 312.48 199.701 312.631 199.614C312.787 199.527 312.864 199.375 312.864 199.159V199.114C312.864 198.553 312.711 198.117 312.404 197.807C312.101 197.496 311.641 197.341 311.023 197.341C310.383 197.341 309.881 197.481 309.518 197.761C309.154 198.042 308.898 198.341 308.751 198.659L307.478 198.205C307.705 197.674 308.008 197.261 308.387 196.966C308.77 196.667 309.186 196.458 309.637 196.341C310.092 196.22 310.539 196.159 310.978 196.159C311.258 196.159 311.58 196.193 311.944 196.261C312.311 196.326 312.666 196.46 313.006 196.665C313.351 196.869 313.637 197.178 313.864 197.591C314.092 198.004 314.205 198.557 314.205 199.25V205H312.864V203.818H312.796C312.705 204.008 312.554 204.21 312.342 204.426C312.13 204.642 311.847 204.826 311.495 204.977C311.143 205.129 310.713 205.205 310.205 205.205ZM310.41 204C310.94 204 311.387 203.896 311.751 203.688C312.118 203.479 312.395 203.21 312.58 202.881C312.77 202.551 312.864 202.205 312.864 201.841V200.614C312.808 200.682 312.683 200.744 312.489 200.801C312.3 200.854 312.08 200.902 311.83 200.943C311.584 200.981 311.344 201.015 311.109 201.045C310.878 201.072 310.69 201.095 310.546 201.114C310.198 201.159 309.872 201.233 309.569 201.335C309.27 201.434 309.027 201.583 308.842 201.784C308.66 201.981 308.569 202.25 308.569 202.591C308.569 203.057 308.741 203.409 309.086 203.648C309.434 203.883 309.876 204 310.41 204ZM317.994 199.75V205H316.653V196.273H317.948V197.636H318.062C318.266 197.193 318.577 196.837 318.994 196.568C319.41 196.295 319.948 196.159 320.607 196.159C321.198 196.159 321.715 196.28 322.158 196.523C322.602 196.761 322.946 197.125 323.193 197.614C323.439 198.098 323.562 198.712 323.562 199.455V205H322.221V199.545C322.221 198.86 322.043 198.326 321.687 197.943C321.331 197.557 320.842 197.364 320.221 197.364C319.793 197.364 319.41 197.456 319.073 197.642C318.74 197.828 318.477 198.098 318.283 198.455C318.09 198.811 317.994 199.242 317.994 199.75Z" fill="black"/>
<rect x="358.05" y="100.5" width="159" height="39" stroke="black"/>
<path d="M391.778 125V116.273H393.073V117.591H393.164C393.323 117.159 393.611 116.809 394.028 116.54C394.444 116.271 394.914 116.136 395.437 116.136C395.535 116.136 395.658 116.138 395.806 116.142C395.954 116.146 396.066 116.152 396.141 116.159V117.523C396.096 117.511 395.992 117.494 395.829 117.472C395.67 117.445 395.501 117.432 395.323 117.432C394.899 117.432 394.52 117.521 394.187 117.699C393.857 117.873 393.596 118.116 393.403 118.426C393.213 118.733 393.119 119.083 393.119 119.477V125H391.778ZM401.124 125.182C400.283 125.182 399.558 124.996 398.948 124.625C398.342 124.25 397.874 123.727 397.545 123.057C397.219 122.383 397.056 121.598 397.056 120.705C397.056 119.811 397.219 119.023 397.545 118.341C397.874 117.655 398.333 117.121 398.92 116.739C399.511 116.352 400.2 116.159 400.988 116.159C401.442 116.159 401.891 116.235 402.335 116.386C402.778 116.538 403.181 116.784 403.545 117.125C403.908 117.462 404.198 117.909 404.414 118.466C404.63 119.023 404.738 119.708 404.738 120.523V121.091H398.011V119.932H403.374C403.374 119.439 403.276 119 403.079 118.614C402.886 118.227 402.609 117.922 402.249 117.699C401.893 117.475 401.473 117.364 400.988 117.364C400.454 117.364 399.992 117.496 399.602 117.761C399.215 118.023 398.918 118.364 398.71 118.784C398.501 119.205 398.397 119.655 398.397 120.136V120.909C398.397 121.568 398.511 122.127 398.738 122.585C398.969 123.04 399.289 123.386 399.698 123.625C400.107 123.86 400.583 123.977 401.124 123.977C401.477 123.977 401.795 123.928 402.079 123.83C402.367 123.727 402.615 123.576 402.823 123.375C403.032 123.17 403.192 122.917 403.306 122.614L404.602 122.977C404.465 123.417 404.236 123.803 403.914 124.136C403.592 124.466 403.194 124.723 402.721 124.909C402.247 125.091 401.715 125.182 401.124 125.182ZM412.96 118.227L411.755 118.568C411.679 118.367 411.567 118.172 411.42 117.983C411.276 117.79 411.079 117.631 410.829 117.506C410.579 117.381 410.259 117.318 409.869 117.318C409.335 117.318 408.889 117.441 408.533 117.688C408.181 117.93 408.005 118.239 408.005 118.614C408.005 118.947 408.126 119.21 408.369 119.403C408.611 119.597 408.99 119.758 409.505 119.886L410.8 120.205C411.581 120.394 412.162 120.684 412.545 121.074C412.927 121.46 413.119 121.958 413.119 122.568C413.119 123.068 412.975 123.515 412.687 123.909C412.403 124.303 412.005 124.614 411.494 124.841C410.982 125.068 410.388 125.182 409.71 125.182C408.819 125.182 408.083 124.989 407.499 124.602C406.916 124.216 406.547 123.652 406.391 122.909L407.664 122.591C407.785 123.061 408.014 123.413 408.352 123.648C408.692 123.883 409.138 124 409.687 124C410.312 124 410.808 123.867 411.175 123.602C411.547 123.333 411.732 123.011 411.732 122.636C411.732 122.333 411.626 122.08 411.414 121.875C411.202 121.667 410.876 121.511 410.437 121.409L408.982 121.068C408.183 120.879 407.596 120.585 407.221 120.188C406.85 119.786 406.664 119.284 406.664 118.682C406.664 118.189 406.802 117.754 407.079 117.375C407.359 116.996 407.74 116.699 408.221 116.483C408.706 116.267 409.255 116.159 409.869 116.159C410.732 116.159 411.41 116.348 411.903 116.727C412.399 117.106 412.751 117.606 412.96 118.227ZM415.137 128.273V116.273H416.433V117.659H416.592C416.69 117.508 416.826 117.314 417.001 117.08C417.179 116.841 417.433 116.629 417.762 116.443C418.095 116.254 418.546 116.159 419.114 116.159C419.849 116.159 420.497 116.343 421.058 116.71C421.618 117.078 422.056 117.598 422.37 118.273C422.684 118.947 422.842 119.742 422.842 120.659C422.842 121.583 422.684 122.384 422.37 123.062C422.056 123.737 421.62 124.259 421.063 124.631C420.506 124.998 419.864 125.182 419.137 125.182C418.576 125.182 418.128 125.089 417.791 124.903C417.453 124.714 417.194 124.5 417.012 124.261C416.83 124.019 416.69 123.818 416.592 123.659H416.478V128.273H415.137ZM416.455 120.636C416.455 121.295 416.552 121.877 416.745 122.381C416.938 122.881 417.22 123.273 417.592 123.557C417.963 123.837 418.417 123.977 418.955 123.977C419.516 123.977 419.984 123.83 420.359 123.534C420.737 123.235 421.022 122.833 421.211 122.33C421.404 121.822 421.501 121.258 421.501 120.636C421.501 120.023 421.406 119.47 421.217 118.977C421.031 118.481 420.749 118.089 420.37 117.801C419.995 117.509 419.523 117.364 418.955 117.364C418.41 117.364 417.951 117.502 417.58 117.778C417.209 118.051 416.929 118.434 416.739 118.926C416.55 119.415 416.455 119.985 416.455 120.636ZM431.711 116.273L428.484 125H427.12L423.893 116.273H425.347L427.756 123.227H427.847L430.256 116.273H431.711ZM433.481 125V116.273H434.822V125H433.481ZM434.163 114.818C433.901 114.818 433.676 114.729 433.487 114.551C433.301 114.373 433.208 114.159 433.208 113.909C433.208 113.659 433.301 113.445 433.487 113.267C433.676 113.089 433.901 113 434.163 113C434.424 113 434.648 113.089 434.833 113.267C435.023 113.445 435.117 113.659 435.117 113.909C435.117 114.159 435.023 114.373 434.833 114.551C434.648 114.729 434.424 114.818 434.163 114.818ZM443.46 118.227L442.255 118.568C442.179 118.367 442.067 118.172 441.92 117.983C441.776 117.79 441.579 117.631 441.329 117.506C441.079 117.381 440.759 117.318 440.369 117.318C439.835 117.318 439.389 117.441 439.033 117.688C438.681 117.93 438.505 118.239 438.505 118.614C438.505 118.947 438.626 119.21 438.869 119.403C439.111 119.597 439.49 119.758 440.005 119.886L441.3 120.205C442.081 120.394 442.662 120.684 443.045 121.074C443.427 121.46 443.619 121.958 443.619 122.568C443.619 123.068 443.475 123.515 443.187 123.909C442.903 124.303 442.505 124.614 441.994 124.841C441.482 125.068 440.888 125.182 440.21 125.182C439.319 125.182 438.583 124.989 437.999 124.602C437.416 124.216 437.047 123.652 436.891 122.909L438.164 122.591C438.285 123.061 438.514 123.413 438.852 123.648C439.192 123.883 439.638 124 440.187 124C440.812 124 441.308 123.867 441.675 123.602C442.047 123.333 442.232 123.011 442.232 122.636C442.232 122.333 442.126 122.08 441.914 121.875C441.702 121.667 441.376 121.511 440.937 121.409L439.482 121.068C438.683 120.879 438.096 120.585 437.721 120.188C437.35 119.786 437.164 119.284 437.164 118.682C437.164 118.189 437.302 117.754 437.579 117.375C437.859 116.996 438.24 116.699 438.721 116.483C439.206 116.267 439.755 116.159 440.369 116.159C441.232 116.159 441.91 116.348 442.403 116.727C442.899 117.106 443.251 117.606 443.46 118.227ZM450.637 119.386V120.636H445.546V119.386H450.637ZM456.542 125.182C455.724 125.182 455.019 124.989 454.428 124.602C453.837 124.216 453.383 123.684 453.065 123.006C452.746 122.328 452.587 121.553 452.587 120.682C452.587 119.795 452.75 119.013 453.076 118.335C453.406 117.653 453.864 117.121 454.451 116.739C455.042 116.352 455.731 116.159 456.519 116.159C457.133 116.159 457.686 116.273 458.178 116.5C458.671 116.727 459.074 117.045 459.389 117.455C459.703 117.864 459.898 118.341 459.974 118.886H458.633C458.531 118.489 458.303 118.136 457.951 117.83C457.603 117.519 457.133 117.364 456.542 117.364C456.019 117.364 455.561 117.5 455.167 117.773C454.777 118.042 454.472 118.422 454.252 118.915C454.036 119.403 453.928 119.977 453.928 120.636C453.928 121.311 454.034 121.898 454.246 122.398C454.462 122.898 454.765 123.286 455.156 123.562C455.549 123.839 456.012 123.977 456.542 123.977C456.89 123.977 457.207 123.917 457.491 123.795C457.775 123.674 458.015 123.5 458.212 123.273C458.409 123.045 458.549 122.773 458.633 122.455H459.974C459.898 122.97 459.71 123.434 459.411 123.847C459.116 124.256 458.724 124.581 458.235 124.824C457.75 125.062 457.186 125.182 456.542 125.182ZM465.479 125.182C464.692 125.182 464 124.994 463.406 124.619C462.815 124.244 462.353 123.72 462.019 123.045C461.69 122.371 461.525 121.583 461.525 120.682C461.525 119.773 461.69 118.979 462.019 118.301C462.353 117.623 462.815 117.097 463.406 116.722C464 116.347 464.692 116.159 465.479 116.159C466.267 116.159 466.957 116.347 467.548 116.722C468.142 117.097 468.604 117.623 468.934 118.301C469.267 118.979 469.434 119.773 469.434 120.682C469.434 121.583 469.267 122.371 468.934 123.045C468.604 123.72 468.142 124.244 467.548 124.619C466.957 124.994 466.267 125.182 465.479 125.182ZM465.479 123.977C466.078 123.977 466.57 123.824 466.957 123.517C467.343 123.21 467.629 122.807 467.815 122.307C468 121.807 468.093 121.265 468.093 120.682C468.093 120.098 468 119.555 467.815 119.051C467.629 118.547 467.343 118.14 466.957 117.83C466.57 117.519 466.078 117.364 465.479 117.364C464.881 117.364 464.389 117.519 464.002 117.83C463.616 118.14 463.33 118.547 463.144 119.051C462.959 119.555 462.866 120.098 462.866 120.682C462.866 121.265 462.959 121.807 463.144 122.307C463.33 122.807 463.616 123.21 464.002 123.517C464.389 123.824 464.881 123.977 465.479 123.977ZM471.481 125V116.273H472.776V117.591H472.867C473.026 117.159 473.314 116.809 473.731 116.54C474.148 116.271 474.617 116.136 475.14 116.136C475.238 116.136 475.362 116.138 475.509 116.142C475.657 116.146 475.769 116.152 475.844 116.159V117.523C475.799 117.511 475.695 117.494 475.532 117.472C475.373 117.445 475.204 117.432 475.026 117.432C474.602 117.432 474.223 117.521 473.89 117.699C473.56 117.873 473.299 118.116 473.106 118.426C472.916 118.733 472.822 119.083 472.822 119.477V125H471.481ZM480.827 125.182C479.987 125.182 479.261 124.996 478.651 124.625C478.045 124.25 477.577 123.727 477.248 123.057C476.922 122.383 476.759 121.598 476.759 120.705C476.759 119.811 476.922 119.023 477.248 118.341C477.577 117.655 478.036 117.121 478.623 116.739C479.214 116.352 479.903 116.159 480.691 116.159C481.146 116.159 481.594 116.235 482.038 116.386C482.481 116.538 482.884 116.784 483.248 117.125C483.612 117.462 483.901 117.909 484.117 118.466C484.333 119.023 484.441 119.708 484.441 120.523V121.091H477.714V119.932H483.077C483.077 119.439 482.979 119 482.782 118.614C482.589 118.227 482.312 117.922 481.952 117.699C481.596 117.475 481.176 117.364 480.691 117.364C480.157 117.364 479.695 117.496 479.305 117.761C478.918 118.023 478.621 118.364 478.413 118.784C478.204 119.205 478.1 119.655 478.1 120.136V120.909C478.1 121.568 478.214 122.127 478.441 122.585C478.672 123.04 478.992 123.386 479.401 123.625C479.81 123.86 480.286 123.977 480.827 123.977C481.18 123.977 481.498 123.928 481.782 123.83C482.07 123.727 482.318 123.576 482.526 123.375C482.735 123.17 482.896 122.917 483.009 122.614L484.305 122.977C484.168 123.417 483.939 123.803 483.617 124.136C483.295 124.466 482.898 124.723 482.424 124.909C481.951 125.091 481.418 125.182 480.827 125.182Z" fill="black"/>
<rect x="538.05" y="180.5" width="159" height="39" stroke="black"/>
<path d="M553.778 205V196.273H555.073V197.591H555.164C555.323 197.159 555.611 196.809 556.028 196.54C556.444 196.271 556.914 196.136 557.437 196.136C557.535 196.136 557.658 196.138 557.806 196.142C557.954 196.146 558.066 196.152 558.141 196.159V197.523C558.096 197.511 557.992 197.494 557.829 197.472C557.67 197.445 557.501 197.432 557.323 197.432C556.899 197.432 556.52 197.521 556.187 197.699C555.857 197.873 555.596 198.116 555.403 198.426C555.213 198.733 555.119 199.083 555.119 199.477V205H553.778ZM563.124 205.182C562.283 205.182 561.558 204.996 560.948 204.625C560.342 204.25 559.874 203.727 559.545 203.057C559.219 202.383 559.056 201.598 559.056 200.705C559.056 199.811 559.219 199.023 559.545 198.341C559.874 197.655 560.333 197.121 560.92 196.739C561.511 196.352 562.2 196.159 562.988 196.159C563.443 196.159 563.891 196.235 564.335 196.386C564.778 196.538 565.181 196.784 565.545 197.125C565.908 197.462 566.198 197.909 566.414 198.466C566.63 199.023 566.738 199.708 566.738 200.523V201.091H560.011V199.932H565.374C565.374 199.439 565.276 199 565.079 198.614C564.886 198.227 564.609 197.922 564.249 197.699C563.893 197.475 563.473 197.364 562.988 197.364C562.454 197.364 561.992 197.496 561.602 197.761C561.215 198.023 560.918 198.364 560.71 198.784C560.501 199.205 560.397 199.655 560.397 200.136V200.909C560.397 201.568 560.511 202.127 560.738 202.585C560.969 203.04 561.289 203.386 561.698 203.625C562.107 203.86 562.583 203.977 563.124 203.977C563.477 203.977 563.795 203.928 564.079 203.83C564.367 203.727 564.615 203.576 564.823 203.375C565.032 203.17 565.193 202.917 565.306 202.614L566.602 202.977C566.465 203.417 566.236 203.803 565.914 204.136C565.592 204.466 565.194 204.723 564.721 204.909C564.247 205.091 563.715 205.182 563.124 205.182ZM574.96 198.227L573.755 198.568C573.679 198.367 573.568 198.172 573.42 197.983C573.276 197.79 573.079 197.631 572.829 197.506C572.579 197.381 572.259 197.318 571.869 197.318C571.335 197.318 570.889 197.441 570.533 197.688C570.181 197.93 570.005 198.239 570.005 198.614C570.005 198.947 570.126 199.21 570.369 199.403C570.611 199.597 570.99 199.758 571.505 199.886L572.8 200.205C573.581 200.394 574.162 200.684 574.545 201.074C574.927 201.46 575.119 201.958 575.119 202.568C575.119 203.068 574.975 203.515 574.687 203.909C574.403 204.303 574.005 204.614 573.494 204.841C572.982 205.068 572.388 205.182 571.71 205.182C570.819 205.182 570.083 204.989 569.499 204.602C568.916 204.216 568.547 203.652 568.391 202.909L569.664 202.591C569.785 203.061 570.014 203.413 570.352 203.648C570.693 203.883 571.138 204 571.687 204C572.312 204 572.808 203.867 573.175 203.602C573.547 203.333 573.732 203.011 573.732 202.636C573.732 202.333 573.626 202.08 573.414 201.875C573.202 201.667 572.876 201.511 572.437 201.409L570.982 201.068C570.183 200.879 569.596 200.585 569.221 200.188C568.85 199.786 568.664 199.284 568.664 198.682C568.664 198.189 568.802 197.754 569.079 197.375C569.359 196.996 569.74 196.699 570.221 196.483C570.706 196.267 571.255 196.159 571.869 196.159C572.732 196.159 573.41 196.348 573.903 196.727C574.399 197.106 574.751 197.606 574.96 198.227ZM577.137 208.273V196.273H578.433V197.659H578.592C578.69 197.508 578.827 197.314 579.001 197.08C579.179 196.841 579.433 196.629 579.762 196.443C580.095 196.254 580.546 196.159 581.114 196.159C581.849 196.159 582.497 196.343 583.058 196.71C583.618 197.078 584.056 197.598 584.37 198.273C584.684 198.947 584.842 199.742 584.842 200.659C584.842 201.583 584.684 202.384 584.37 203.062C584.056 203.737 583.62 204.259 583.063 204.631C582.506 204.998 581.864 205.182 581.137 205.182C580.577 205.182 580.128 205.089 579.791 204.903C579.453 204.714 579.194 204.5 579.012 204.261C578.83 204.019 578.69 203.818 578.592 203.659H578.478V208.273H577.137ZM578.455 200.636C578.455 201.295 578.552 201.877 578.745 202.381C578.938 202.881 579.22 203.273 579.592 203.557C579.963 203.837 580.417 203.977 580.955 203.977C581.516 203.977 581.984 203.83 582.359 203.534C582.738 203.235 583.022 202.833 583.211 202.33C583.404 201.822 583.501 201.258 583.501 200.636C583.501 200.023 583.406 199.47 583.217 198.977C583.031 198.481 582.749 198.089 582.37 197.801C581.995 197.509 581.523 197.364 580.955 197.364C580.41 197.364 579.952 197.502 579.58 197.778C579.209 198.051 578.929 198.434 578.739 198.926C578.55 199.415 578.455 199.985 578.455 200.636ZM593.711 196.273L590.484 205H589.12L585.893 196.273H587.347L589.756 203.227H589.847L592.256 196.273H593.711ZM595.481 205V196.273H596.822V205H595.481ZM596.163 194.818C595.901 194.818 595.676 194.729 595.487 194.551C595.301 194.373 595.208 194.159 595.208 193.909C595.208 193.659 595.301 193.445 595.487 193.267C595.676 193.089 595.901 193 596.163 193C596.424 193 596.648 193.089 596.833 193.267C597.023 193.445 597.117 193.659 597.117 193.909C597.117 194.159 597.023 194.373 596.833 194.551C596.648 194.729 596.424 194.818 596.163 194.818ZM605.46 198.227L604.255 198.568C604.179 198.367 604.068 198.172 603.92 197.983C603.776 197.79 603.579 197.631 603.329 197.506C603.079 197.381 602.759 197.318 602.369 197.318C601.835 197.318 601.389 197.441 601.033 197.688C600.681 197.93 600.505 198.239 600.505 198.614C600.505 198.947 600.626 199.21 600.869 199.403C601.111 199.597 601.49 199.758 602.005 199.886L603.3 200.205C604.081 200.394 604.662 200.684 605.045 201.074C605.427 201.46 605.619 201.958 605.619 202.568C605.619 203.068 605.475 203.515 605.187 203.909C604.903 204.303 604.505 204.614 603.994 204.841C603.482 205.068 602.888 205.182 602.21 205.182C601.319 205.182 600.583 204.989 599.999 204.602C599.416 204.216 599.047 203.652 598.891 202.909L600.164 202.591C600.285 203.061 600.514 203.413 600.852 203.648C601.193 203.883 601.638 204 602.187 204C602.812 204 603.308 203.867 603.675 203.602C604.047 203.333 604.232 203.011 604.232 202.636C604.232 202.333 604.126 202.08 603.914 201.875C603.702 201.667 603.376 201.511 602.937 201.409L601.482 201.068C600.683 200.879 600.096 200.585 599.721 200.188C599.35 199.786 599.164 199.284 599.164 198.682C599.164 198.189 599.302 197.754 599.579 197.375C599.859 196.996 600.24 196.699 600.721 196.483C601.206 196.267 601.755 196.159 602.369 196.159C603.232 196.159 603.91 196.348 604.403 196.727C604.899 197.106 605.251 197.606 605.46 198.227ZM612.637 199.386V200.636H607.546V199.386H612.637ZM614.996 208.273V196.273H616.292V197.659H616.451C616.55 197.508 616.686 197.314 616.86 197.08C617.038 196.841 617.292 196.629 617.621 196.443C617.955 196.254 618.406 196.159 618.974 196.159C619.709 196.159 620.356 196.343 620.917 196.71C621.478 197.078 621.915 197.598 622.229 198.273C622.544 198.947 622.701 199.742 622.701 200.659C622.701 201.583 622.544 202.384 622.229 203.062C621.915 203.737 621.479 204.259 620.923 204.631C620.366 204.998 619.724 205.182 618.996 205.182C618.436 205.182 617.987 205.089 617.65 204.903C617.313 204.714 617.053 204.5 616.871 204.261C616.69 204.019 616.55 203.818 616.451 203.659H616.337V208.273H614.996ZM616.315 200.636C616.315 201.295 616.411 201.877 616.604 202.381C616.798 202.881 617.08 203.273 617.451 203.557C617.822 203.837 618.277 203.977 618.815 203.977C619.375 203.977 619.843 203.83 620.218 203.534C620.597 203.235 620.881 202.833 621.07 202.33C621.264 201.822 621.36 201.258 621.36 200.636C621.36 200.023 621.265 199.47 621.076 198.977C620.89 198.481 620.608 198.089 620.229 197.801C619.854 197.509 619.383 197.364 618.815 197.364C618.269 197.364 617.811 197.502 617.44 197.778C617.068 198.051 616.788 198.434 616.599 198.926C616.409 199.415 616.315 199.985 616.315 200.636ZM627.315 205.205C626.762 205.205 626.26 205.1 625.809 204.892C625.358 204.68 625 204.375 624.735 203.977C624.47 203.576 624.337 203.091 624.337 202.523C624.337 202.023 624.436 201.617 624.633 201.307C624.83 200.992 625.093 200.746 625.423 200.568C625.752 200.39 626.116 200.258 626.514 200.17C626.915 200.08 627.318 200.008 627.724 199.955C628.254 199.886 628.684 199.835 629.014 199.801C629.347 199.763 629.589 199.701 629.741 199.614C629.896 199.527 629.974 199.375 629.974 199.159V199.114C629.974 198.553 629.82 198.117 629.514 197.807C629.211 197.496 628.75 197.341 628.133 197.341C627.493 197.341 626.991 197.481 626.627 197.761C626.264 198.042 626.008 198.341 625.86 198.659L624.587 198.205C624.815 197.674 625.118 197.261 625.496 196.966C625.879 196.667 626.296 196.458 626.746 196.341C627.201 196.22 627.648 196.159 628.087 196.159C628.368 196.159 628.69 196.193 629.053 196.261C629.421 196.326 629.775 196.46 630.116 196.665C630.461 196.869 630.746 197.178 630.974 197.591C631.201 198.004 631.315 198.557 631.315 199.25V205H629.974V203.818H629.906C629.815 204.008 629.663 204.21 629.451 204.426C629.239 204.642 628.957 204.826 628.604 204.977C628.252 205.129 627.822 205.205 627.315 205.205ZM627.519 204C628.05 204 628.496 203.896 628.86 203.688C629.228 203.479 629.504 203.21 629.69 202.881C629.879 202.551 629.974 202.205 629.974 201.841V200.614C629.917 200.682 629.792 200.744 629.599 200.801C629.409 200.854 629.19 200.902 628.94 200.943C628.693 200.981 628.453 201.015 628.218 201.045C627.987 201.072 627.8 201.095 627.656 201.114C627.307 201.159 626.981 201.233 626.678 201.335C626.379 201.434 626.137 201.583 625.951 201.784C625.769 201.981 625.678 202.25 625.678 202.591C625.678 203.057 625.851 203.409 626.195 203.648C626.544 203.883 626.985 204 627.519 204ZM633.762 205V196.273H635.058V197.591H635.148C635.308 197.159 635.595 196.809 636.012 196.54C636.429 196.271 636.898 196.136 637.421 196.136C637.52 196.136 637.643 196.138 637.791 196.142C637.938 196.146 638.05 196.152 638.126 196.159V197.523C638.08 197.511 637.976 197.494 637.813 197.472C637.654 197.445 637.486 197.432 637.308 197.432C636.883 197.432 636.505 197.521 636.171 197.699C635.842 197.873 635.58 198.116 635.387 198.426C635.198 198.733 635.103 199.083 635.103 199.477V205H633.762ZM642.995 205.182C642.177 205.182 641.472 204.989 640.881 204.602C640.291 204.216 639.836 203.684 639.518 203.006C639.2 202.328 639.041 201.553 639.041 200.682C639.041 199.795 639.203 199.013 639.529 198.335C639.859 197.653 640.317 197.121 640.904 196.739C641.495 196.352 642.184 196.159 642.972 196.159C643.586 196.159 644.139 196.273 644.631 196.5C645.124 196.727 645.527 197.045 645.842 197.455C646.156 197.864 646.351 198.341 646.427 198.886H645.086C644.984 198.489 644.756 198.136 644.404 197.83C644.056 197.519 643.586 197.364 642.995 197.364C642.472 197.364 642.014 197.5 641.62 197.773C641.23 198.042 640.925 198.422 640.705 198.915C640.489 199.403 640.381 199.977 640.381 200.636C640.381 201.311 640.488 201.898 640.7 202.398C640.916 202.898 641.219 203.286 641.609 203.562C642.003 203.839 642.465 203.977 642.995 203.977C643.344 203.977 643.66 203.917 643.944 203.795C644.228 203.674 644.469 203.5 644.666 203.273C644.863 203.045 645.003 202.773 645.086 202.455H646.427C646.351 202.97 646.164 203.434 645.864 203.847C645.569 204.256 645.177 204.581 644.688 204.824C644.203 205.062 643.639 205.182 642.995 205.182ZM651.933 205.182C651.145 205.182 650.453 204.994 649.859 204.619C649.268 204.244 648.806 203.72 648.472 203.045C648.143 202.371 647.978 201.583 647.978 200.682C647.978 199.773 648.143 198.979 648.472 198.301C648.806 197.623 649.268 197.097 649.859 196.722C650.453 196.347 651.145 196.159 651.933 196.159C652.72 196.159 653.41 196.347 654.001 196.722C654.595 197.097 655.058 197.623 655.387 198.301C655.72 198.979 655.887 199.773 655.887 200.682C655.887 201.583 655.72 202.371 655.387 203.045C655.058 203.72 654.595 204.244 654.001 204.619C653.41 204.994 652.72 205.182 651.933 205.182ZM651.933 203.977C652.531 203.977 653.023 203.824 653.41 203.517C653.796 203.21 654.082 202.807 654.268 202.307C654.453 201.807 654.546 201.265 654.546 200.682C654.546 200.098 654.453 199.555 654.268 199.051C654.082 198.547 653.796 198.14 653.41 197.83C653.023 197.519 652.531 197.364 651.933 197.364C651.334 197.364 650.842 197.519 650.455 197.83C650.069 198.14 649.783 198.547 649.597 199.051C649.412 199.555 649.319 200.098 649.319 200.682C649.319 201.265 649.412 201.807 649.597 202.307C649.783 202.807 650.069 203.21 650.455 203.517C650.842 203.824 651.334 203.977 651.933 203.977ZM661.479 205.182C660.692 205.182 660 204.994 659.406 204.619C658.815 204.244 658.353 203.72 658.019 203.045C657.69 202.371 657.525 201.583 657.525 200.682C657.525 199.773 657.69 198.979 658.019 198.301C658.353 197.623 658.815 197.097 659.406 196.722C660 196.347 660.692 196.159 661.479 196.159C662.267 196.159 662.957 196.347 663.548 196.722C664.142 197.097 664.604 197.623 664.934 198.301C665.267 198.979 665.434 199.773 665.434 200.682C665.434 201.583 665.267 202.371 664.934 203.045C664.604 203.72 664.142 204.244 663.548 204.619C662.957 204.994 662.267 205.182 661.479 205.182ZM661.479 203.977C662.078 203.977 662.57 203.824 662.957 203.517C663.343 203.21 663.629 202.807 663.815 202.307C664 201.807 664.093 201.265 664.093 200.682C664.093 200.098 664 199.555 663.815 199.051C663.629 198.547 663.343 198.14 662.957 197.83C662.57 197.519 662.078 197.364 661.479 197.364C660.881 197.364 660.389 197.519 660.002 197.83C659.616 198.14 659.33 198.547 659.144 199.051C658.959 199.555 658.866 200.098 658.866 200.682C658.866 201.265 658.959 201.807 659.144 202.307C659.33 202.807 659.616 203.21 660.002 203.517C660.389 203.824 660.881 203.977 661.479 203.977ZM667.481 205V196.273H668.776V197.591H668.867C669.026 197.159 669.314 196.809 669.731 196.54C670.148 196.271 670.617 196.136 671.14 196.136C671.238 196.136 671.362 196.138 671.509 196.142C671.657 196.146 671.769 196.152 671.845 196.159V197.523C671.799 197.511 671.695 197.494 671.532 197.472C671.373 197.445 671.204 197.432 671.026 197.432C670.602 197.432 670.223 197.521 669.89 197.699C669.56 197.873 669.299 198.116 669.106 198.426C668.916 198.733 668.822 199.083 668.822 199.477V205H667.481ZM676.464 205.182C675.737 205.182 675.095 204.998 674.538 204.631C673.981 204.259 673.545 203.737 673.231 203.062C672.916 202.384 672.759 201.583 672.759 200.659C672.759 199.742 672.916 198.947 673.231 198.273C673.545 197.598 673.983 197.078 674.543 196.71C675.104 196.343 675.752 196.159 676.487 196.159C677.055 196.159 677.504 196.254 677.833 196.443C678.166 196.629 678.42 196.841 678.595 197.08C678.773 197.314 678.911 197.508 679.009 197.659H679.123V193.364H680.464V205H679.168V203.659H679.009C678.911 203.818 678.771 204.019 678.589 204.261C678.407 204.5 678.148 204.714 677.81 204.903C677.473 205.089 677.024 205.182 676.464 205.182ZM676.646 203.977C677.184 203.977 677.638 203.837 678.009 203.557C678.38 203.273 678.663 202.881 678.856 202.381C679.049 201.877 679.146 201.295 679.146 200.636C679.146 199.985 679.051 199.415 678.862 198.926C678.672 198.434 678.392 198.051 678.021 197.778C677.649 197.502 677.191 197.364 676.646 197.364C676.077 197.364 675.604 197.509 675.225 197.801C674.85 198.089 674.568 198.481 674.379 198.977C674.193 199.47 674.1 200.023 674.1 200.636C674.1 201.258 674.195 201.822 674.384 202.33C674.577 202.833 674.862 203.235 675.237 203.534C675.615 203.83 676.085 203.977 676.646 203.977Z" fill="black"/>
<path d="M409.258 39.2929C408.867 38.9024 408.234 38.9024 407.843 39.2929L401.479 45.6569C401.089 46.0474 401.089 46.6805 401.479 47.0711C401.87 47.4616 402.503 47.4616 402.894 47.0711L408.55 41.4142L414.207 47.0711C414.598 47.4616 415.231 47.4616 415.622 47.0711C416.012 46.6805 416.012 46.0474 415.622 45.6569L409.258 39.2929ZM409.55 100V40H407.55V100H409.55Z" fill="black"/>
<path d="M358.258 120.707C358.648 120.317 358.648 119.683 358.258 119.293L351.894 112.929C351.503 112.538 350.87 112.538 350.479 112.929C350.089 113.319 350.089 113.953 350.479 114.343L356.136 120L350.479 125.657C350.089 126.047 350.089 126.681 350.479 127.071C350.87 127.462 351.503 127.462 351.894 127.071L358.258 120.707ZM247.55 121L357.55 121L357.55 119L247.55 119L247.55 121Z" fill="black"/>
<path d="M118.051 440.5L117.051 440.5L117.051 441.5L118.051 441.5L118.051 440.5ZM118.051 200L118.051 199L117.051 199L117.051 200L118.051 200ZM180.258 200.707C180.648 200.317 180.648 199.684 180.258 199.293L173.894 192.929C173.503 192.539 172.87 192.539 172.479 192.929C172.089 193.32 172.089 193.953 172.479 194.343L178.136 200L172.479 205.657C172.089 206.048 172.089 206.681 172.479 207.071C172.87 207.462 173.503 207.462 173.894 207.071L180.258 200.707ZM118.051 280L117.051 280L117.051 280L118.051 280ZM118.051 360.5L117.051 360.5L117.051 360.5L118.051 360.5ZM180.05 439.5L118.051 439.5L118.051 441.5L180.05 441.5L180.05 439.5ZM118.051 201L179.55 201L179.55 199L118.051 199L118.051 201ZM118.051 281L180.551 281L180.551 279L118.051 279L118.051 281ZM119.051 280L119.051 200L117.051 200L117.051 280L119.051 280ZM180.051 359.5L118.051 359.5L118.051 361.5L180.051 361.5L180.051 359.5ZM119.051 360.5L119.051 280L117.051 280L117.051 360.5L119.051 360.5ZM119.051 440.5L119.051 360.5L117.051 360.5L117.051 440.5L119.051 440.5Z" fill="black"/>
<path d="M467.843 100.707C468.234 101.098 468.867 101.098 469.258 100.707L475.622 94.3431C476.012 93.9526 476.012 93.3195 475.622 92.9289C475.231 92.5384 474.598 92.5384 474.207 92.9289L468.55 98.5858L462.894 92.9289C462.503 92.5384 461.87 92.5384 461.479 92.9289C461.089 93.3195 461.089 93.9526 461.479 94.3431L467.843 100.707ZM467.55 40V100H469.55V40H467.55Z" fill="black"/>
<path d="M118.05 200L117.55 120L247.55 120" stroke="black" stroke-width="2"/>
<path d="M117.343 279.293C116.953 279.683 116.953 280.317 117.343 280.707L123.707 287.071C124.098 287.462 124.731 287.462 125.122 287.071C125.512 286.681 125.512 286.047 125.122 285.657L119.465 280L125.122 274.343C125.512 273.953 125.512 273.319 125.122 272.929C124.731 272.538 124.098 272.538 123.707 272.929L117.343 279.293ZM179.55 279H118.05V281H179.55V279Z" fill="black"/>
<path d="M117.843 439.293C117.453 439.683 117.453 440.317 117.843 440.707L124.207 447.071C124.598 447.462 125.231 447.462 125.622 447.071C126.012 446.681 126.012 446.047 125.622 445.657L119.965 440L125.622 434.343C126.012 433.953 126.012 433.319 125.622 432.929C125.231 432.538 124.598 432.538 124.207 432.929L117.843 439.293ZM180.55 439H118.55V441H180.55V439Z" fill="black"/>
<path d="M117.343 359.293C116.953 359.683 116.953 360.317 117.343 360.707L123.707 367.071C124.098 367.462 124.731 367.462 125.122 367.071C125.512 366.681 125.512 366.047 125.122 365.657L119.465 360L125.122 354.343C125.512 353.953 125.512 353.319 125.122 352.929C124.731 352.538 124.098 352.538 123.707 352.929L117.343 359.293ZM179.55 359H118.05V361H179.55V359Z" fill="black"/>
<path d="M408.55 200L408.55 201L409.55 201L409.55 200L408.55 200ZM409.258 139.293C408.867 138.902 408.234 138.902 407.843 139.293L401.479 145.657C401.089 146.047 401.089 146.681 401.479 147.071C401.87 147.462 402.503 147.462 402.894 147.071L408.55 141.414L414.207 147.071C414.598 147.462 415.231 147.462 415.622 147.071C416.012 146.681 416.012 146.047 415.622 145.657L409.258 139.293ZM339.55 201L408.55 201L408.55 199L339.55 199L339.55 201ZM409.55 200L409.55 140L407.55 140L407.55 200L409.55 200Z" fill="black"/>
<path d="M468.55 200L467.55 200L467.55 201L468.55 201L468.55 200ZM469.258 139.293C468.867 138.902 468.234 138.902 467.843 139.293L461.479 145.657C461.089 146.047 461.089 146.681 461.479 147.071C461.87 147.462 462.503 147.462 462.894 147.071L468.55 141.414L474.207 147.071C474.598 147.462 475.231 147.462 475.621 147.071C476.012 146.681 476.012 146.047 475.621 145.657L469.258 139.293ZM538.05 199L468.55 199L468.55 201L538.05 201L538.05 199ZM469.55 200L469.55 140L467.55 140L467.55 200L469.55 200Z" fill="black"/>
<path d="M260.258 379.293C259.867 378.902 259.234 378.902 258.843 379.293L252.479 385.657C252.089 386.047 252.089 386.681 252.479 387.071C252.87 387.462 253.503 387.462 253.894 387.071L259.55 381.414L265.207 387.071C265.598 387.462 266.231 387.462 266.622 387.071C267.012 386.681 267.012 386.047 266.622 385.657L260.258 379.293ZM260.55 420V380H258.55V420H260.55Z" fill="black"/>
<path d="M577.55 440L577.55 441L578.55 441L578.55 440L577.55 440ZM338.843 439.293C338.453 439.683 338.453 440.316 338.843 440.707L345.207 447.071C345.598 447.461 346.231 447.461 346.622 447.071C347.012 446.68 347.012 446.047 346.622 445.657L340.965 440L346.622 434.343C347.012 433.952 347.012 433.319 346.622 432.929C346.231 432.538 345.598 432.538 345.207 432.929L338.843 439.293ZM576.55 220L576.55 440L578.55 440L578.55 220L576.55 220ZM577.55 439L339.55 439L339.55 441L577.55 441L577.55 439Z" fill="black"/>
</svg>
