<svg viewBox="0 0 462 296" fill="none" xmlns="http://www.w3.org/2000/svg">
<rect x="21.5" y="0.5" width="39" height="39" stroke="black"/>
<path d="M41.2045 20.0909C40.9242 20.0909 40.6837 19.9905 40.483 19.7898C40.2822 19.589 40.1818 19.3485 40.1818 19.0682C40.1818 18.7879 40.2822 18.5473 40.483 18.3466C40.6837 18.1458 40.9242 18.0455 41.2045 18.0455C41.4848 18.0455 41.7254 18.1458 41.9261 18.3466C42.1269 18.5473 42.2273 18.7879 42.2273 19.0682C42.2273 19.2538 42.1799 19.4242 42.0852 19.5795C41.9943 19.7348 41.8712 19.8598 41.7159 19.9545C41.5644 20.0455 41.3939 20.0909 41.2045 20.0909Z" fill="black"/>
<rect x="401.731" y="220.5" width="42.7694" height="39" stroke="black"/>
<path d="M421.205 240.091C420.924 240.091 420.684 239.991 420.483 239.79C420.282 239.589 420.182 239.348 420.182 239.068C420.182 238.788 420.282 238.547 420.483 238.347C420.684 238.146 420.924 238.045 421.205 238.045C421.485 238.045 421.725 238.146 421.926 238.347C422.127 238.547 422.227 238.788 422.227 239.068C422.227 239.254 422.18 239.424 422.085 239.58C421.994 239.735 421.871 239.86 421.716 239.955C421.564 240.045 421.394 240.091 421.205 240.091Z" fill="black"/>
<rect x="21.5" y="221.5" width="39" height="39" stroke="black"/>
<path d="M41.2045 240.091C40.9242 240.091 40.6837 239.991 40.483 239.79C40.2822 239.589 40.1818 239.348 40.1818 239.068C40.1818 238.788 40.2822 238.547 40.483 238.347C40.6837 238.146 40.9242 238.045 41.2045 238.045C41.4848 238.045 41.7254 238.146 41.9261 238.347C42.1269 238.547 42.2273 238.788 42.2273 239.068C42.2273 239.254 42.1799 239.424 42.0852 239.58C41.9943 239.735 41.8712 239.86 41.7159 239.955C41.5644 240.045 41.3939 240.091 41.2045 240.091Z" fill="black"/>
<rect x="401.731" y="0.5" width="38.7694" height="39" stroke="black"/>
<path d="M421.337 20.0909C421.057 20.0909 420.816 19.9905 420.616 19.7898C420.415 19.589 420.314 19.3485 420.314 19.0682C420.314 18.7879 420.415 18.5473 420.616 18.3466C420.816 18.1458 421.057 18.0455 421.337 18.0455C421.617 18.0455 421.858 18.1458 422.059 18.3466C422.259 18.5473 422.36 18.7879 422.36 19.0682C422.36 19.2538 422.313 19.4242 422.218 19.5795C422.127 19.7348 422.004 19.8598 421.848 19.9545C421.697 20.0455 421.527 20.0909 421.337 20.0909Z" fill="black"/>
<rect x="81.5" y="0.5" width="301" height="39" stroke="black"/>
<path d="M143.227 28.2727V16.2727H144.523V17.6591H144.682C144.78 17.5076 144.917 17.3144 145.091 17.0795C145.269 16.8409 145.523 16.6288 145.852 16.4432C146.186 16.2538 146.636 16.1591 147.205 16.1591C147.939 16.1591 148.587 16.3428 149.148 16.7102C149.708 17.0777 150.146 17.5985 150.46 18.2727C150.775 18.947 150.932 19.7424 150.932 20.6591C150.932 21.5833 150.775 22.3845 150.46 23.0625C150.146 23.7367 149.71 24.2595 149.153 24.6307C148.597 24.9981 147.955 25.1818 147.227 25.1818C146.667 25.1818 146.218 25.089 145.881 24.9034C145.544 24.714 145.284 24.5 145.102 24.2614C144.92 24.0189 144.78 23.8182 144.682 23.6591H144.568V28.2727H143.227ZM144.545 20.6364C144.545 21.2955 144.642 21.8769 144.835 22.3807C145.028 22.8807 145.311 23.2727 145.682 23.5568C146.053 23.8371 146.508 23.9773 147.045 23.9773C147.606 23.9773 148.074 23.8295 148.449 23.5341C148.828 23.2348 149.112 22.8333 149.301 22.3295C149.494 21.822 149.591 21.2576 149.591 20.6364C149.591 20.0227 149.496 19.4697 149.307 18.9773C149.121 18.4811 148.839 18.089 148.46 17.8011C148.085 17.5095 147.614 17.3636 147.045 17.3636C146.5 17.3636 146.042 17.5019 145.67 17.7784C145.299 18.0511 145.019 18.4337 144.83 18.9261C144.64 19.4148 144.545 19.9848 144.545 20.6364ZM155.545 25.2045C154.992 25.2045 154.491 25.1004 154.04 24.892C153.589 24.6799 153.231 24.375 152.966 23.9773C152.701 23.5758 152.568 23.0909 152.568 22.5227C152.568 22.0227 152.667 21.6174 152.864 21.3068C153.061 20.9924 153.324 20.7462 153.653 20.5682C153.983 20.3902 154.347 20.2576 154.744 20.1705C155.146 20.0795 155.549 20.0076 155.955 19.9545C156.485 19.8864 156.915 19.8352 157.244 19.8011C157.578 19.7633 157.82 19.7008 157.972 19.6136C158.127 19.5265 158.205 19.375 158.205 19.1591V19.1136C158.205 18.553 158.051 18.1174 157.744 17.8068C157.441 17.4962 156.981 17.3409 156.364 17.3409C155.723 17.3409 155.222 17.4811 154.858 17.7614C154.494 18.0417 154.239 18.3409 154.091 18.6591L152.818 18.2045C153.045 17.6742 153.348 17.2614 153.727 16.9659C154.11 16.6667 154.527 16.4583 154.977 16.3409C155.432 16.2197 155.879 16.1591 156.318 16.1591C156.598 16.1591 156.92 16.1932 157.284 16.2614C157.652 16.3258 158.006 16.4602 158.347 16.6648C158.691 16.8693 158.977 17.178 159.205 17.5909C159.432 18.0038 159.545 18.5568 159.545 19.25V25H158.205V23.8182H158.136C158.045 24.0076 157.894 24.2102 157.682 24.4261C157.47 24.642 157.188 24.8258 156.835 24.9773C156.483 25.1288 156.053 25.2045 155.545 25.2045ZM155.75 24C156.28 24 156.727 23.8958 157.091 23.6875C157.458 23.4792 157.735 23.2102 157.92 22.8807C158.11 22.5511 158.205 22.2045 158.205 21.8409V20.6136C158.148 20.6818 158.023 20.7443 157.83 20.8011C157.64 20.8542 157.42 20.9015 157.17 20.9432C156.924 20.9811 156.684 21.0152 156.449 21.0455C156.218 21.072 156.03 21.0947 155.886 21.1136C155.538 21.1591 155.212 21.233 154.909 21.3352C154.61 21.4337 154.367 21.5833 154.182 21.7841C154 21.9811 153.909 22.25 153.909 22.5909C153.909 23.0568 154.081 23.4091 154.426 23.6477C154.775 23.8826 155.216 24 155.75 24ZM165.288 25.1818C164.561 25.1818 163.919 24.9981 163.362 24.6307C162.805 24.2595 162.37 23.7367 162.055 23.0625C161.741 22.3845 161.584 21.5833 161.584 20.6591C161.584 19.7424 161.741 18.947 162.055 18.2727C162.37 17.5985 162.807 17.0777 163.368 16.7102C163.929 16.3428 164.576 16.1591 165.311 16.1591C165.879 16.1591 166.328 16.2538 166.658 16.4432C166.991 16.6288 167.245 16.8409 167.419 17.0795C167.597 17.3144 167.735 17.5076 167.834 17.6591H167.947V13.3636H169.288V25H167.993V23.6591H167.834C167.735 23.8182 167.595 24.0189 167.413 24.2614C167.232 24.5 166.972 24.714 166.635 24.9034C166.298 25.089 165.849 25.1818 165.288 25.1818ZM165.47 23.9773C166.008 23.9773 166.463 23.8371 166.834 23.5568C167.205 23.2727 167.487 22.8807 167.68 22.3807C167.874 21.8769 167.97 21.2955 167.97 20.6364C167.97 19.9848 167.875 19.4148 167.686 18.9261C167.497 18.4337 167.216 18.0511 166.845 17.7784C166.474 17.5019 166.016 17.3636 165.47 17.3636C164.902 17.3636 164.429 17.5095 164.05 17.8011C163.675 18.089 163.393 18.4811 163.203 18.9773C163.018 19.4697 162.925 20.0227 162.925 20.6364C162.925 21.2576 163.019 21.822 163.209 22.3295C163.402 22.8333 163.686 23.2348 164.061 23.5341C164.44 23.8295 164.91 23.9773 165.47 23.9773ZM175.226 25.1818C174.499 25.1818 173.857 24.9981 173.3 24.6307C172.743 24.2595 172.307 23.7367 171.993 23.0625C171.679 22.3845 171.521 21.5833 171.521 20.6591C171.521 19.7424 171.679 18.947 171.993 18.2727C172.307 17.5985 172.745 17.0777 173.305 16.7102C173.866 16.3428 174.514 16.1591 175.249 16.1591C175.817 16.1591 176.266 16.2538 176.595 16.4432C176.929 16.6288 177.182 16.8409 177.357 17.0795C177.535 17.3144 177.673 17.5076 177.771 17.6591H177.885V13.3636H179.226V25H177.93V23.6591H177.771C177.673 23.8182 177.533 24.0189 177.351 24.2614C177.169 24.5 176.91 24.714 176.572 24.9034C176.235 25.089 175.786 25.1818 175.226 25.1818ZM175.408 23.9773C175.946 23.9773 176.4 23.8371 176.771 23.5568C177.143 23.2727 177.425 22.8807 177.618 22.3807C177.811 21.8769 177.908 21.2955 177.908 20.6364C177.908 19.9848 177.813 19.4148 177.624 18.9261C177.434 18.4337 177.154 18.0511 176.783 17.7784C176.411 17.5019 175.953 17.3636 175.408 17.3636C174.839 17.3636 174.366 17.5095 173.987 17.8011C173.612 18.089 173.33 18.4811 173.141 18.9773C172.955 19.4697 172.862 20.0227 172.862 20.6364C172.862 21.2576 172.957 21.822 173.146 22.3295C173.339 22.8333 173.624 23.2348 173.999 23.5341C174.377 23.8295 174.847 23.9773 175.408 23.9773ZM181.868 25V16.2727H183.209V25H181.868ZM182.55 14.8182C182.288 14.8182 182.063 14.7292 181.874 14.5511C181.688 14.3731 181.595 14.1591 181.595 13.9091C181.595 13.6591 181.688 13.4451 181.874 13.267C182.063 13.089 182.288 13 182.55 13C182.811 13 183.035 13.089 183.22 13.267C183.41 13.4451 183.504 13.6591 183.504 13.9091C183.504 14.1591 183.41 14.3731 183.22 14.5511C183.035 14.7292 182.811 14.8182 182.55 14.8182ZM187.006 19.75V25H185.665V16.2727H186.96V17.6364H187.074C187.278 17.1932 187.589 16.8371 188.006 16.5682C188.422 16.2955 188.96 16.1591 189.619 16.1591C190.21 16.1591 190.727 16.2803 191.17 16.5227C191.614 16.7614 191.958 17.125 192.205 17.6136C192.451 18.0985 192.574 18.7121 192.574 19.4545V25H191.233V19.5455C191.233 18.8598 191.055 18.3258 190.699 17.9432C190.343 17.5568 189.854 17.3636 189.233 17.3636C188.805 17.3636 188.422 17.4564 188.085 17.642C187.752 17.8277 187.489 18.0985 187.295 18.4545C187.102 18.8106 187.006 19.2424 187.006 19.75ZM198.547 28.4545C197.899 28.4545 197.342 28.3712 196.876 28.2045C196.411 28.0417 196.022 27.8258 195.712 27.5568C195.405 27.2917 195.161 27.0076 194.979 26.7045L196.047 25.9545C196.168 26.1136 196.321 26.2955 196.507 26.5C196.693 26.7083 196.946 26.8883 197.268 27.0398C197.594 27.1951 198.02 27.2727 198.547 27.2727C199.251 27.2727 199.833 27.1023 200.291 26.7614C200.75 26.4205 200.979 25.8864 200.979 25.1591V23.3864H200.865C200.767 23.5455 200.626 23.7424 200.445 23.9773C200.267 24.2083 200.009 24.4148 199.672 24.5966C199.339 24.7746 198.888 24.8636 198.32 24.8636C197.615 24.8636 196.982 24.697 196.422 24.3636C195.865 24.0303 195.424 23.5455 195.098 22.9091C194.776 22.2727 194.615 21.5 194.615 20.5909C194.615 19.697 194.772 18.9186 195.087 18.2557C195.401 17.589 195.839 17.0739 196.399 16.7102C196.96 16.3428 197.607 16.1591 198.342 16.1591C198.911 16.1591 199.361 16.2538 199.695 16.4432C200.032 16.6288 200.289 16.8409 200.467 17.0795C200.649 17.3144 200.789 17.5076 200.888 17.6591H201.024V16.2727H202.32V25.25C202.32 26 202.149 26.6098 201.808 27.0795C201.471 27.553 201.017 27.8996 200.445 28.1193C199.876 28.3428 199.244 28.4545 198.547 28.4545ZM198.501 23.6591C199.039 23.6591 199.494 23.536 199.865 23.2898C200.236 23.0436 200.518 22.6894 200.712 22.2273C200.905 21.7652 201.001 21.2121 201.001 20.5682C201.001 19.9394 200.907 19.3845 200.717 18.9034C200.528 18.4223 200.248 18.0455 199.876 17.7727C199.505 17.5 199.047 17.3636 198.501 17.3636C197.933 17.3636 197.46 17.5076 197.081 17.7955C196.706 18.0833 196.424 18.4697 196.234 18.9545C196.049 19.4394 195.956 19.9773 195.956 20.5682C195.956 21.1742 196.051 21.7102 196.24 22.1761C196.433 22.6383 196.717 23.0019 197.092 23.267C197.471 23.5284 197.941 23.6591 198.501 23.6591ZM209.774 19.3864V20.6364H204.683V19.3864H209.774ZM215.679 25.1818C214.861 25.1818 214.156 24.9886 213.565 24.6023C212.974 24.2159 212.52 23.6837 212.202 23.0057C211.884 22.3277 211.724 21.553 211.724 20.6818C211.724 19.7955 211.887 19.0133 212.213 18.3352C212.543 17.6534 213.001 17.1212 213.588 16.7386C214.179 16.3523 214.868 16.1591 215.656 16.1591C216.27 16.1591 216.823 16.2727 217.315 16.5C217.808 16.7273 218.211 17.0455 218.526 17.4545C218.84 17.8636 219.035 18.3409 219.111 18.8864H217.77C217.668 18.4886 217.44 18.1364 217.088 17.8295C216.74 17.5189 216.27 17.3636 215.679 17.3636C215.156 17.3636 214.698 17.5 214.304 17.7727C213.914 18.0417 213.609 18.4223 213.389 18.9148C213.173 19.4034 213.065 19.9773 213.065 20.6364C213.065 21.3106 213.171 21.8977 213.384 22.3977C213.599 22.8977 213.902 23.286 214.293 23.5625C214.687 23.839 215.149 23.9773 215.679 23.9773C216.027 23.9773 216.344 23.9167 216.628 23.7955C216.912 23.6742 217.152 23.5 217.349 23.2727C217.546 23.0455 217.687 22.7727 217.77 22.4545H219.111C219.035 22.9697 218.848 23.4337 218.548 23.8466C218.253 24.2557 217.861 24.5814 217.372 24.8239C216.887 25.0625 216.323 25.1818 215.679 25.1818ZM224.616 25.1818C223.829 25.1818 223.137 24.9943 222.543 24.6193C221.952 24.2443 221.49 23.7197 221.156 23.0455C220.827 22.3712 220.662 21.5833 220.662 20.6818C220.662 19.7727 220.827 18.9792 221.156 18.3011C221.49 17.6231 221.952 17.0966 222.543 16.7216C223.137 16.3466 223.829 16.1591 224.616 16.1591C225.404 16.1591 226.094 16.3466 226.685 16.7216C227.279 17.0966 227.741 17.6231 228.071 18.3011C228.404 18.9792 228.571 19.7727 228.571 20.6818C228.571 21.5833 228.404 22.3712 228.071 23.0455C227.741 23.7197 227.279 24.2443 226.685 24.6193C226.094 24.9943 225.404 25.1818 224.616 25.1818ZM224.616 23.9773C225.215 23.9773 225.707 23.8239 226.094 23.517C226.48 23.2102 226.766 22.8068 226.952 22.3068C227.137 21.8068 227.23 21.2652 227.23 20.6818C227.23 20.0985 227.137 19.5549 226.952 19.0511C226.766 18.5473 226.48 18.1402 226.094 17.8295C225.707 17.5189 225.215 17.3636 224.616 17.3636C224.018 17.3636 223.526 17.5189 223.139 17.8295C222.753 18.1402 222.467 18.5473 222.281 19.0511C222.096 19.5549 222.003 20.0985 222.003 20.6818C222.003 21.2652 222.096 21.8068 222.281 22.3068C222.467 22.8068 222.753 23.2102 223.139 23.517C223.526 23.8239 224.018 23.9773 224.616 23.9773ZM231.959 19.75V25H230.618V16.2727H231.913V17.6364H232.027C232.232 17.1932 232.542 16.8371 232.959 16.5682C233.375 16.2955 233.913 16.1591 234.572 16.1591C235.163 16.1591 235.68 16.2803 236.124 16.5227C236.567 16.7614 236.911 17.125 237.158 17.6136C237.404 18.0985 237.527 18.7121 237.527 19.4545V25H236.186V19.5455C236.186 18.8598 236.008 18.3258 235.652 17.9432C235.296 17.5568 234.807 17.3636 234.186 17.3636C233.758 17.3636 233.375 17.4564 233.038 17.642C232.705 17.8277 232.442 18.0985 232.249 18.4545C232.055 18.8106 231.959 19.2424 231.959 19.75ZM243.773 16.2727V17.4091H239.25V16.2727H243.773ZM240.568 14.1818H241.909V22.5C241.909 22.8788 241.964 23.1629 242.074 23.3523C242.188 23.5379 242.331 23.6629 242.506 23.7273C242.684 23.7879 242.871 23.8182 243.068 23.8182C243.216 23.8182 243.337 23.8106 243.432 23.7955C243.527 23.7765 243.602 23.7614 243.659 23.75L243.932 24.9545C243.841 24.9886 243.714 25.0227 243.551 25.0568C243.388 25.0947 243.182 25.1136 242.932 25.1136C242.553 25.1136 242.182 25.0322 241.818 24.8693C241.458 24.7064 241.159 24.4583 240.92 24.125C240.686 23.7917 240.568 23.3712 240.568 22.8636V14.1818ZM248.358 25.2045C247.805 25.2045 247.303 25.1004 246.852 24.892C246.402 24.6799 246.044 24.375 245.778 23.9773C245.513 23.5758 245.381 23.0909 245.381 22.5227C245.381 22.0227 245.479 21.6174 245.676 21.3068C245.873 20.9924 246.136 20.7462 246.466 20.5682C246.795 20.3902 247.159 20.2576 247.557 20.1705C247.958 20.0795 248.362 20.0076 248.767 19.9545C249.297 19.8864 249.727 19.8352 250.057 19.8011C250.39 19.7633 250.633 19.7008 250.784 19.6136C250.939 19.5265 251.017 19.375 251.017 19.1591V19.1136C251.017 18.553 250.864 18.1174 250.557 17.8068C250.254 17.4962 249.794 17.3409 249.176 17.3409C248.536 17.3409 248.034 17.4811 247.67 17.7614C247.307 18.0417 247.051 18.3409 246.903 18.6591L245.631 18.2045C245.858 17.6742 246.161 17.2614 246.54 16.9659C246.922 16.6667 247.339 16.4583 247.79 16.3409C248.244 16.2197 248.691 16.1591 249.131 16.1591C249.411 16.1591 249.733 16.1932 250.097 16.2614C250.464 16.3258 250.818 16.4602 251.159 16.6648C251.504 16.8693 251.79 17.178 252.017 17.5909C252.244 18.0038 252.358 18.5568 252.358 19.25V25H251.017V23.8182H250.949C250.858 24.0076 250.706 24.2102 250.494 24.4261C250.282 24.642 250 24.8258 249.648 24.9773C249.295 25.1288 248.866 25.2045 248.358 25.2045ZM248.562 24C249.093 24 249.54 23.8958 249.903 23.6875C250.271 23.4792 250.547 23.2102 250.733 22.8807C250.922 22.5511 251.017 22.2045 251.017 21.8409V20.6136C250.96 20.6818 250.835 20.7443 250.642 20.8011C250.453 20.8542 250.233 20.9015 249.983 20.9432C249.737 20.9811 249.496 21.0152 249.261 21.0455C249.03 21.072 248.843 21.0947 248.699 21.1136C248.35 21.1591 248.025 21.233 247.722 21.3352C247.422 21.4337 247.18 21.5833 246.994 21.7841C246.813 21.9811 246.722 22.25 246.722 22.5909C246.722 23.0568 246.894 23.4091 247.239 23.6477C247.587 23.8826 248.028 24 248.562 24ZM254.805 25V16.2727H256.146V25H254.805ZM255.487 14.8182C255.226 14.8182 255 14.7292 254.811 14.5511C254.625 14.3731 254.533 14.1591 254.533 13.9091C254.533 13.6591 254.625 13.4451 254.811 13.267C255 13.089 255.226 13 255.487 13C255.749 13 255.972 13.089 256.158 13.267C256.347 13.4451 256.442 13.6591 256.442 13.9091C256.442 14.1591 256.347 14.3731 256.158 14.5511C255.972 14.7292 255.749 14.8182 255.487 14.8182ZM259.943 19.75V25H258.602V16.2727H259.898V17.6364H260.011C260.216 17.1932 260.527 16.8371 260.943 16.5682C261.36 16.2955 261.898 16.1591 262.557 16.1591C263.148 16.1591 263.665 16.2803 264.108 16.5227C264.551 16.7614 264.896 17.125 265.142 17.6136C265.388 18.0985 265.511 18.7121 265.511 19.4545V25H264.17V19.5455C264.17 18.8598 263.992 18.3258 263.636 17.9432C263.28 17.5568 262.792 17.3636 262.17 17.3636C261.742 17.3636 261.36 17.4564 261.023 17.642C260.689 17.8277 260.426 18.0985 260.233 18.4545C260.04 18.8106 259.943 19.2424 259.943 19.75ZM271.621 25.1818C270.78 25.1818 270.054 24.9962 269.445 24.625C268.839 24.25 268.371 23.7273 268.041 23.0568C267.715 22.3826 267.553 21.5985 267.553 20.7045C267.553 19.8106 267.715 19.0227 268.041 18.3409C268.371 17.6553 268.829 17.1212 269.416 16.7386C270.007 16.3523 270.696 16.1591 271.484 16.1591C271.939 16.1591 272.388 16.2348 272.831 16.3864C273.274 16.5379 273.678 16.7841 274.041 17.125C274.405 17.4621 274.695 17.9091 274.911 18.4659C275.126 19.0227 275.234 19.7083 275.234 20.5227V21.0909H268.507V19.9318H273.871C273.871 19.4394 273.772 19 273.575 18.6136C273.382 18.2273 273.106 17.9223 272.746 17.6989C272.39 17.4754 271.969 17.3636 271.484 17.3636C270.95 17.3636 270.488 17.4962 270.098 17.7614C269.712 18.0227 269.414 18.3636 269.206 18.7841C268.998 19.2045 268.893 19.6553 268.893 20.1364V20.9091C268.893 21.5682 269.007 22.1269 269.234 22.5852C269.465 23.0398 269.786 23.3864 270.195 23.625C270.604 23.8598 271.079 23.9773 271.621 23.9773C271.973 23.9773 272.291 23.928 272.575 23.8295C272.863 23.7273 273.111 23.5758 273.32 23.375C273.528 23.1705 273.689 22.9167 273.803 22.6136L275.098 22.9773C274.962 23.4167 274.732 23.803 274.411 24.1364C274.089 24.4659 273.691 24.7235 273.217 24.9091C272.744 25.0909 272.212 25.1818 271.621 25.1818ZM277.274 25V16.2727H278.57V17.5909H278.661C278.82 17.1591 279.107 16.8087 279.524 16.5398C279.941 16.2708 280.411 16.1364 280.933 16.1364C281.032 16.1364 281.155 16.1383 281.303 16.142C281.45 16.1458 281.562 16.1515 281.638 16.1591V17.5227C281.592 17.5114 281.488 17.4943 281.325 17.4716C281.166 17.4451 280.998 17.4318 280.82 17.4318C280.395 17.4318 280.017 17.5208 279.683 17.6989C279.354 17.8731 279.092 18.1155 278.899 18.4261C278.71 18.733 278.615 19.0833 278.615 19.4773V25H277.274ZM287.587 19.3864V20.6364H282.496V19.3864H287.587ZM294.946 19.3864V20.6364H289.855V19.3864H294.946ZM301.101 16.2727V17.4091H296.578V16.2727H301.101ZM297.896 14.1818H299.237V22.5C299.237 22.8788 299.292 23.1629 299.402 23.3523C299.516 23.5379 299.66 23.6629 299.834 23.7273C300.012 23.7879 300.199 23.8182 300.396 23.8182C300.544 23.8182 300.665 23.8106 300.76 23.7955C300.855 23.7765 300.93 23.7614 300.987 23.75L301.26 24.9545C301.169 24.9886 301.042 25.0227 300.879 25.0568C300.716 25.0947 300.51 25.1136 300.26 25.1136C299.881 25.1136 299.51 25.0322 299.146 24.8693C298.786 24.7064 298.487 24.4583 298.249 24.125C298.014 23.7917 297.896 23.3712 297.896 22.8636V14.1818ZM306.57 25.1818C305.782 25.1818 305.09 24.9943 304.496 24.6193C303.905 24.2443 303.443 23.7197 303.109 23.0455C302.78 22.3712 302.615 21.5833 302.615 20.6818C302.615 19.7727 302.78 18.9792 303.109 18.3011C303.443 17.6231 303.905 17.0966 304.496 16.7216C305.09 16.3466 305.782 16.1591 306.57 16.1591C307.357 16.1591 308.047 16.3466 308.638 16.7216C309.232 17.0966 309.695 17.6231 310.024 18.3011C310.357 18.9792 310.524 19.7727 310.524 20.6818C310.524 21.5833 310.357 22.3712 310.024 23.0455C309.695 23.7197 309.232 24.2443 308.638 24.6193C308.047 24.9943 307.357 25.1818 306.57 25.1818ZM306.57 23.9773C307.168 23.9773 307.661 23.8239 308.047 23.517C308.433 23.2102 308.719 22.8068 308.905 22.3068C309.09 21.8068 309.183 21.2652 309.183 20.6818C309.183 20.0985 309.09 19.5549 308.905 19.0511C308.719 18.5473 308.433 18.1402 308.047 17.8295C307.661 17.5189 307.168 17.3636 306.57 17.3636C305.971 17.3636 305.479 17.5189 305.092 17.8295C304.706 18.1402 304.42 18.5473 304.234 19.0511C304.049 19.5549 303.956 20.0985 303.956 20.6818C303.956 21.2652 304.049 21.8068 304.234 22.3068C304.42 22.8068 304.706 23.2102 305.092 23.517C305.479 23.8239 305.971 23.9773 306.57 23.9773ZM312.571 28.2727V16.2727H313.866V17.6591H314.026C314.124 17.5076 314.26 17.3144 314.435 17.0795C314.613 16.8409 314.866 16.6288 315.196 16.4432C315.529 16.2538 315.98 16.1591 316.548 16.1591C317.283 16.1591 317.931 16.3428 318.491 16.7102C319.052 17.0777 319.49 17.5985 319.804 18.2727C320.118 18.947 320.276 19.7424 320.276 20.6591C320.276 21.5833 320.118 22.3845 319.804 23.0625C319.49 23.7367 319.054 24.2595 318.497 24.6307C317.94 24.9981 317.298 25.1818 316.571 25.1818C316.01 25.1818 315.562 25.089 315.224 24.9034C314.887 24.714 314.628 24.5 314.446 24.2614C314.264 24.0189 314.124 23.8182 314.026 23.6591H313.912V28.2727H312.571ZM313.889 20.6364C313.889 21.2955 313.986 21.8769 314.179 22.3807C314.372 22.8807 314.654 23.2727 315.026 23.5568C315.397 23.8371 315.851 23.9773 316.389 23.9773C316.95 23.9773 317.418 23.8295 317.793 23.5341C318.171 23.2348 318.455 22.8333 318.645 22.3295C318.838 21.822 318.935 21.2576 318.935 20.6364C318.935 20.0227 318.84 19.4697 318.651 18.9773C318.465 18.4811 318.183 18.089 317.804 17.8011C317.429 17.5095 316.957 17.3636 316.389 17.3636C315.844 17.3636 315.385 17.5019 315.014 17.7784C314.643 18.0511 314.363 18.4337 314.173 18.9261C313.984 19.4148 313.889 19.9848 313.889 20.6364Z" fill="black"/>
<rect x="81.5" y="220.5" width="301" height="39" stroke="black"/>
<path d="M128.227 248.273V236.273H129.523V237.659H129.682C129.78 237.508 129.917 237.314 130.091 237.08C130.269 236.841 130.523 236.629 130.852 236.443C131.186 236.254 131.636 236.159 132.205 236.159C132.939 236.159 133.587 236.343 134.148 236.71C134.708 237.078 135.146 237.598 135.46 238.273C135.775 238.947 135.932 239.742 135.932 240.659C135.932 241.583 135.775 242.384 135.46 243.062C135.146 243.737 134.71 244.259 134.153 244.631C133.597 244.998 132.955 245.182 132.227 245.182C131.667 245.182 131.218 245.089 130.881 244.903C130.544 244.714 130.284 244.5 130.102 244.261C129.92 244.019 129.78 243.818 129.682 243.659H129.568V248.273H128.227ZM129.545 240.636C129.545 241.295 129.642 241.877 129.835 242.381C130.028 242.881 130.311 243.273 130.682 243.557C131.053 243.837 131.508 243.977 132.045 243.977C132.606 243.977 133.074 243.83 133.449 243.534C133.828 243.235 134.112 242.833 134.301 242.33C134.494 241.822 134.591 241.258 134.591 240.636C134.591 240.023 134.496 239.47 134.307 238.977C134.121 238.481 133.839 238.089 133.46 237.801C133.085 237.509 132.614 237.364 132.045 237.364C131.5 237.364 131.042 237.502 130.67 237.778C130.299 238.051 130.019 238.434 129.83 238.926C129.64 239.415 129.545 239.985 129.545 240.636ZM140.545 245.205C139.992 245.205 139.491 245.1 139.04 244.892C138.589 244.68 138.231 244.375 137.966 243.977C137.701 243.576 137.568 243.091 137.568 242.523C137.568 242.023 137.667 241.617 137.864 241.307C138.061 240.992 138.324 240.746 138.653 240.568C138.983 240.39 139.347 240.258 139.744 240.17C140.146 240.08 140.549 240.008 140.955 239.955C141.485 239.886 141.915 239.835 142.244 239.801C142.578 239.763 142.82 239.701 142.972 239.614C143.127 239.527 143.205 239.375 143.205 239.159V239.114C143.205 238.553 143.051 238.117 142.744 237.807C142.441 237.496 141.981 237.341 141.364 237.341C140.723 237.341 140.222 237.481 139.858 237.761C139.494 238.042 139.239 238.341 139.091 238.659L137.818 238.205C138.045 237.674 138.348 237.261 138.727 236.966C139.11 236.667 139.527 236.458 139.977 236.341C140.432 236.22 140.879 236.159 141.318 236.159C141.598 236.159 141.92 236.193 142.284 236.261C142.652 236.326 143.006 236.46 143.347 236.665C143.691 236.869 143.977 237.178 144.205 237.591C144.432 238.004 144.545 238.557 144.545 239.25V245H143.205V243.818H143.136C143.045 244.008 142.894 244.21 142.682 244.426C142.47 244.642 142.188 244.826 141.835 244.977C141.483 245.129 141.053 245.205 140.545 245.205ZM140.75 244C141.28 244 141.727 243.896 142.091 243.688C142.458 243.479 142.735 243.21 142.92 242.881C143.11 242.551 143.205 242.205 143.205 241.841V240.614C143.148 240.682 143.023 240.744 142.83 240.801C142.64 240.854 142.42 240.902 142.17 240.943C141.924 240.981 141.684 241.015 141.449 241.045C141.218 241.072 141.03 241.095 140.886 241.114C140.538 241.159 140.212 241.233 139.909 241.335C139.61 241.434 139.367 241.583 139.182 241.784C139 241.981 138.909 242.25 138.909 242.591C138.909 243.057 139.081 243.409 139.426 243.648C139.775 243.883 140.216 244 140.75 244ZM150.288 245.182C149.561 245.182 148.919 244.998 148.362 244.631C147.805 244.259 147.37 243.737 147.055 243.062C146.741 242.384 146.584 241.583 146.584 240.659C146.584 239.742 146.741 238.947 147.055 238.273C147.37 237.598 147.807 237.078 148.368 236.71C148.929 236.343 149.576 236.159 150.311 236.159C150.879 236.159 151.328 236.254 151.658 236.443C151.991 236.629 152.245 236.841 152.419 237.08C152.597 237.314 152.735 237.508 152.834 237.659H152.947V233.364H154.288V245H152.993V243.659H152.834C152.735 243.818 152.595 244.019 152.413 244.261C152.232 244.5 151.972 244.714 151.635 244.903C151.298 245.089 150.849 245.182 150.288 245.182ZM150.47 243.977C151.008 243.977 151.463 243.837 151.834 243.557C152.205 243.273 152.487 242.881 152.68 242.381C152.874 241.877 152.97 241.295 152.97 240.636C152.97 239.985 152.875 239.415 152.686 238.926C152.497 238.434 152.216 238.051 151.845 237.778C151.474 237.502 151.016 237.364 150.47 237.364C149.902 237.364 149.429 237.509 149.05 237.801C148.675 238.089 148.393 238.481 148.203 238.977C148.018 239.47 147.925 240.023 147.925 240.636C147.925 241.258 148.019 241.822 148.209 242.33C148.402 242.833 148.686 243.235 149.061 243.534C149.44 243.83 149.91 243.977 150.47 243.977ZM160.226 245.182C159.499 245.182 158.857 244.998 158.3 244.631C157.743 244.259 157.307 243.737 156.993 243.062C156.679 242.384 156.521 241.583 156.521 240.659C156.521 239.742 156.679 238.947 156.993 238.273C157.307 237.598 157.745 237.078 158.305 236.71C158.866 236.343 159.514 236.159 160.249 236.159C160.817 236.159 161.266 236.254 161.595 236.443C161.929 236.629 162.182 236.841 162.357 237.08C162.535 237.314 162.673 237.508 162.771 237.659H162.885V233.364H164.226V245H162.93V243.659H162.771C162.673 243.818 162.533 244.019 162.351 244.261C162.169 244.5 161.91 244.714 161.572 244.903C161.235 245.089 160.786 245.182 160.226 245.182ZM160.408 243.977C160.946 243.977 161.4 243.837 161.771 243.557C162.143 243.273 162.425 242.881 162.618 242.381C162.811 241.877 162.908 241.295 162.908 240.636C162.908 239.985 162.813 239.415 162.624 238.926C162.434 238.434 162.154 238.051 161.783 237.778C161.411 237.502 160.953 237.364 160.408 237.364C159.839 237.364 159.366 237.509 158.987 237.801C158.612 238.089 158.33 238.481 158.141 238.977C157.955 239.47 157.862 240.023 157.862 240.636C157.862 241.258 157.957 241.822 158.146 242.33C158.339 242.833 158.624 243.235 158.999 243.534C159.377 243.83 159.847 243.977 160.408 243.977ZM166.868 245V236.273H168.209V245H166.868ZM167.55 234.818C167.288 234.818 167.063 234.729 166.874 234.551C166.688 234.373 166.595 234.159 166.595 233.909C166.595 233.659 166.688 233.445 166.874 233.267C167.063 233.089 167.288 233 167.55 233C167.811 233 168.035 233.089 168.22 233.267C168.41 233.445 168.504 233.659 168.504 233.909C168.504 234.159 168.41 234.373 168.22 234.551C168.035 234.729 167.811 234.818 167.55 234.818ZM172.006 239.75V245H170.665V236.273H171.96V237.636H172.074C172.278 237.193 172.589 236.837 173.006 236.568C173.422 236.295 173.96 236.159 174.619 236.159C175.21 236.159 175.727 236.28 176.17 236.523C176.614 236.761 176.958 237.125 177.205 237.614C177.451 238.098 177.574 238.712 177.574 239.455V245H176.233V239.545C176.233 238.86 176.055 238.326 175.699 237.943C175.343 237.557 174.854 237.364 174.233 237.364C173.805 237.364 173.422 237.456 173.085 237.642C172.752 237.828 172.489 238.098 172.295 238.455C172.102 238.811 172.006 239.242 172.006 239.75ZM183.547 248.455C182.899 248.455 182.342 248.371 181.876 248.205C181.411 248.042 181.022 247.826 180.712 247.557C180.405 247.292 180.161 247.008 179.979 246.705L181.047 245.955C181.168 246.114 181.321 246.295 181.507 246.5C181.693 246.708 181.946 246.888 182.268 247.04C182.594 247.195 183.02 247.273 183.547 247.273C184.251 247.273 184.833 247.102 185.291 246.761C185.75 246.42 185.979 245.886 185.979 245.159V243.386H185.865C185.767 243.545 185.626 243.742 185.445 243.977C185.267 244.208 185.009 244.415 184.672 244.597C184.339 244.775 183.888 244.864 183.32 244.864C182.615 244.864 181.982 244.697 181.422 244.364C180.865 244.03 180.424 243.545 180.098 242.909C179.776 242.273 179.615 241.5 179.615 240.591C179.615 239.697 179.772 238.919 180.087 238.256C180.401 237.589 180.839 237.074 181.399 236.71C181.96 236.343 182.607 236.159 183.342 236.159C183.911 236.159 184.361 236.254 184.695 236.443C185.032 236.629 185.289 236.841 185.467 237.08C185.649 237.314 185.789 237.508 185.888 237.659H186.024V236.273H187.32V245.25C187.32 246 187.149 246.61 186.808 247.08C186.471 247.553 186.017 247.9 185.445 248.119C184.876 248.343 184.244 248.455 183.547 248.455ZM183.501 243.659C184.039 243.659 184.494 243.536 184.865 243.29C185.236 243.044 185.518 242.689 185.712 242.227C185.905 241.765 186.001 241.212 186.001 240.568C186.001 239.939 185.907 239.384 185.717 238.903C185.528 238.422 185.248 238.045 184.876 237.773C184.505 237.5 184.047 237.364 183.501 237.364C182.933 237.364 182.46 237.508 182.081 237.795C181.706 238.083 181.424 238.47 181.234 238.955C181.049 239.439 180.956 239.977 180.956 240.568C180.956 241.174 181.051 241.71 181.24 242.176C181.433 242.638 181.717 243.002 182.092 243.267C182.471 243.528 182.941 243.659 183.501 243.659ZM194.774 239.386V240.636H189.683V239.386H194.774ZM200.679 245.182C199.861 245.182 199.156 244.989 198.565 244.602C197.974 244.216 197.52 243.684 197.202 243.006C196.884 242.328 196.724 241.553 196.724 240.682C196.724 239.795 196.887 239.013 197.213 238.335C197.543 237.653 198.001 237.121 198.588 236.739C199.179 236.352 199.868 236.159 200.656 236.159C201.27 236.159 201.823 236.273 202.315 236.5C202.808 236.727 203.211 237.045 203.526 237.455C203.84 237.864 204.035 238.341 204.111 238.886H202.77C202.668 238.489 202.44 238.136 202.088 237.83C201.74 237.519 201.27 237.364 200.679 237.364C200.156 237.364 199.698 237.5 199.304 237.773C198.914 238.042 198.609 238.422 198.389 238.915C198.173 239.403 198.065 239.977 198.065 240.636C198.065 241.311 198.171 241.898 198.384 242.398C198.599 242.898 198.902 243.286 199.293 243.562C199.687 243.839 200.149 243.977 200.679 243.977C201.027 243.977 201.344 243.917 201.628 243.795C201.912 243.674 202.152 243.5 202.349 243.273C202.546 243.045 202.687 242.773 202.77 242.455H204.111C204.035 242.97 203.848 243.434 203.548 243.847C203.253 244.256 202.861 244.581 202.372 244.824C201.887 245.062 201.323 245.182 200.679 245.182ZM209.616 245.182C208.829 245.182 208.137 244.994 207.543 244.619C206.952 244.244 206.49 243.72 206.156 243.045C205.827 242.371 205.662 241.583 205.662 240.682C205.662 239.773 205.827 238.979 206.156 238.301C206.49 237.623 206.952 237.097 207.543 236.722C208.137 236.347 208.829 236.159 209.616 236.159C210.404 236.159 211.094 236.347 211.685 236.722C212.279 237.097 212.741 237.623 213.071 238.301C213.404 238.979 213.571 239.773 213.571 240.682C213.571 241.583 213.404 242.371 213.071 243.045C212.741 243.72 212.279 244.244 211.685 244.619C211.094 244.994 210.404 245.182 209.616 245.182ZM209.616 243.977C210.215 243.977 210.707 243.824 211.094 243.517C211.48 243.21 211.766 242.807 211.952 242.307C212.137 241.807 212.23 241.265 212.23 240.682C212.23 240.098 212.137 239.555 211.952 239.051C211.766 238.547 211.48 238.14 211.094 237.83C210.707 237.519 210.215 237.364 209.616 237.364C209.018 237.364 208.526 237.519 208.139 237.83C207.753 238.14 207.467 238.547 207.281 239.051C207.096 239.555 207.003 240.098 207.003 240.682C207.003 241.265 207.096 241.807 207.281 242.307C207.467 242.807 207.753 243.21 208.139 243.517C208.526 243.824 209.018 243.977 209.616 243.977ZM216.959 239.75V245H215.618V236.273H216.913V237.636H217.027C217.232 237.193 217.542 236.837 217.959 236.568C218.375 236.295 218.913 236.159 219.572 236.159C220.163 236.159 220.68 236.28 221.124 236.523C221.567 236.761 221.911 237.125 222.158 237.614C222.404 238.098 222.527 238.712 222.527 239.455V245H221.186V239.545C221.186 238.86 221.008 238.326 220.652 237.943C220.296 237.557 219.807 237.364 219.186 237.364C218.758 237.364 218.375 237.456 218.038 237.642C217.705 237.828 217.442 238.098 217.249 238.455C217.055 238.811 216.959 239.242 216.959 239.75ZM228.773 236.273V237.409H224.25V236.273H228.773ZM225.568 234.182H226.909V242.5C226.909 242.879 226.964 243.163 227.074 243.352C227.188 243.538 227.331 243.663 227.506 243.727C227.684 243.788 227.871 243.818 228.068 243.818C228.216 243.818 228.337 243.811 228.432 243.795C228.527 243.777 228.602 243.761 228.659 243.75L228.932 244.955C228.841 244.989 228.714 245.023 228.551 245.057C228.388 245.095 228.182 245.114 227.932 245.114C227.553 245.114 227.182 245.032 226.818 244.869C226.458 244.706 226.159 244.458 225.92 244.125C225.686 243.792 225.568 243.371 225.568 242.864V234.182ZM233.358 245.205C232.805 245.205 232.303 245.1 231.852 244.892C231.402 244.68 231.044 244.375 230.778 243.977C230.513 243.576 230.381 243.091 230.381 242.523C230.381 242.023 230.479 241.617 230.676 241.307C230.873 240.992 231.136 240.746 231.466 240.568C231.795 240.39 232.159 240.258 232.557 240.17C232.958 240.08 233.362 240.008 233.767 239.955C234.297 239.886 234.727 239.835 235.057 239.801C235.39 239.763 235.633 239.701 235.784 239.614C235.939 239.527 236.017 239.375 236.017 239.159V239.114C236.017 238.553 235.864 238.117 235.557 237.807C235.254 237.496 234.794 237.341 234.176 237.341C233.536 237.341 233.034 237.481 232.67 237.761C232.307 238.042 232.051 238.341 231.903 238.659L230.631 238.205C230.858 237.674 231.161 237.261 231.54 236.966C231.922 236.667 232.339 236.458 232.79 236.341C233.244 236.22 233.691 236.159 234.131 236.159C234.411 236.159 234.733 236.193 235.097 236.261C235.464 236.326 235.818 236.46 236.159 236.665C236.504 236.869 236.79 237.178 237.017 237.591C237.244 238.004 237.358 238.557 237.358 239.25V245H236.017V243.818H235.949C235.858 244.008 235.706 244.21 235.494 244.426C235.282 244.642 235 244.826 234.648 244.977C234.295 245.129 233.866 245.205 233.358 245.205ZM233.562 244C234.093 244 234.54 243.896 234.903 243.688C235.271 243.479 235.547 243.21 235.733 242.881C235.922 242.551 236.017 242.205 236.017 241.841V240.614C235.96 240.682 235.835 240.744 235.642 240.801C235.453 240.854 235.233 240.902 234.983 240.943C234.737 240.981 234.496 241.015 234.261 241.045C234.03 241.072 233.843 241.095 233.699 241.114C233.35 241.159 233.025 241.233 232.722 241.335C232.422 241.434 232.18 241.583 231.994 241.784C231.813 241.981 231.722 242.25 231.722 242.591C231.722 243.057 231.894 243.409 232.239 243.648C232.587 243.883 233.028 244 233.562 244ZM239.805 245V236.273H241.146V245H239.805ZM240.487 234.818C240.226 234.818 240 234.729 239.811 234.551C239.625 234.373 239.533 234.159 239.533 233.909C239.533 233.659 239.625 233.445 239.811 233.267C240 233.089 240.226 233 240.487 233C240.749 233 240.972 233.089 241.158 233.267C241.347 233.445 241.442 233.659 241.442 233.909C241.442 234.159 241.347 234.373 241.158 234.551C240.972 234.729 240.749 234.818 240.487 234.818ZM244.943 239.75V245H243.602V236.273H244.898V237.636H245.011C245.216 237.193 245.527 236.837 245.943 236.568C246.36 236.295 246.898 236.159 247.557 236.159C248.148 236.159 248.665 236.28 249.108 236.523C249.551 236.761 249.896 237.125 250.142 237.614C250.388 238.098 250.511 238.712 250.511 239.455V245H249.17V239.545C249.17 238.86 248.992 238.326 248.636 237.943C248.28 237.557 247.792 237.364 247.17 237.364C246.742 237.364 246.36 237.456 246.023 237.642C245.689 237.828 245.426 238.098 245.233 238.455C245.04 238.811 244.943 239.242 244.943 239.75ZM256.621 245.182C255.78 245.182 255.054 244.996 254.445 244.625C253.839 244.25 253.371 243.727 253.041 243.057C252.715 242.383 252.553 241.598 252.553 240.705C252.553 239.811 252.715 239.023 253.041 238.341C253.371 237.655 253.829 237.121 254.416 236.739C255.007 236.352 255.696 236.159 256.484 236.159C256.939 236.159 257.388 236.235 257.831 236.386C258.274 236.538 258.678 236.784 259.041 237.125C259.405 237.462 259.695 237.909 259.911 238.466C260.126 239.023 260.234 239.708 260.234 240.523V241.091H253.507V239.932H258.871C258.871 239.439 258.772 239 258.575 238.614C258.382 238.227 258.106 237.922 257.746 237.699C257.39 237.475 256.969 237.364 256.484 237.364C255.95 237.364 255.488 237.496 255.098 237.761C254.712 238.023 254.414 238.364 254.206 238.784C253.998 239.205 253.893 239.655 253.893 240.136V240.909C253.893 241.568 254.007 242.127 254.234 242.585C254.465 243.04 254.786 243.386 255.195 243.625C255.604 243.86 256.079 243.977 256.621 243.977C256.973 243.977 257.291 243.928 257.575 243.83C257.863 243.727 258.111 243.576 258.32 243.375C258.528 243.17 258.689 242.917 258.803 242.614L260.098 242.977C259.962 243.417 259.732 243.803 259.411 244.136C259.089 244.466 258.691 244.723 258.217 244.909C257.744 245.091 257.212 245.182 256.621 245.182ZM262.274 245V236.273H263.57V237.591H263.661C263.82 237.159 264.107 236.809 264.524 236.54C264.941 236.271 265.411 236.136 265.933 236.136C266.032 236.136 266.155 236.138 266.303 236.142C266.45 236.146 266.562 236.152 266.638 236.159V237.523C266.592 237.511 266.488 237.494 266.325 237.472C266.166 237.445 265.998 237.432 265.82 237.432C265.395 237.432 265.017 237.521 264.683 237.699C264.354 237.873 264.092 238.116 263.899 238.426C263.71 238.733 263.615 239.083 263.615 239.477V245H262.274ZM272.587 239.386V240.636H267.496V239.386H272.587ZM279.946 239.386V240.636H274.855V239.386H279.946ZM282.487 245V233.364H283.828V237.659H283.942C284.04 237.508 284.177 237.314 284.351 237.08C284.529 236.841 284.783 236.629 285.112 236.443C285.446 236.254 285.896 236.159 286.464 236.159C287.199 236.159 287.847 236.343 288.408 236.71C288.968 237.078 289.406 237.598 289.72 238.273C290.035 238.947 290.192 239.742 290.192 240.659C290.192 241.583 290.035 242.384 289.72 243.062C289.406 243.737 288.97 244.259 288.413 244.631C287.857 244.998 287.214 245.182 286.487 245.182C285.927 245.182 285.478 245.089 285.141 244.903C284.804 244.714 284.544 244.5 284.362 244.261C284.18 244.019 284.04 243.818 283.942 243.659H283.783V245H282.487ZM283.805 240.636C283.805 241.295 283.902 241.877 284.095 242.381C284.288 242.881 284.571 243.273 284.942 243.557C285.313 243.837 285.768 243.977 286.305 243.977C286.866 243.977 287.334 243.83 287.709 243.534C288.088 243.235 288.372 242.833 288.561 242.33C288.754 241.822 288.851 241.258 288.851 240.636C288.851 240.023 288.756 239.47 288.567 238.977C288.381 238.481 288.099 238.089 287.72 237.801C287.345 237.509 286.874 237.364 286.305 237.364C285.76 237.364 285.302 237.502 284.93 237.778C284.559 238.051 284.279 238.434 284.089 238.926C283.9 239.415 283.805 239.985 283.805 240.636ZM295.788 245.182C295 245.182 294.309 244.994 293.714 244.619C293.124 244.244 292.661 243.72 292.328 243.045C291.999 242.371 291.834 241.583 291.834 240.682C291.834 239.773 291.999 238.979 292.328 238.301C292.661 237.623 293.124 237.097 293.714 236.722C294.309 236.347 295 236.159 295.788 236.159C296.576 236.159 297.266 236.347 297.857 236.722C298.451 237.097 298.913 237.623 299.243 238.301C299.576 238.979 299.743 239.773 299.743 240.682C299.743 241.583 299.576 242.371 299.243 243.045C298.913 243.72 298.451 244.244 297.857 244.619C297.266 244.994 296.576 245.182 295.788 245.182ZM295.788 243.977C296.387 243.977 296.879 243.824 297.266 243.517C297.652 243.21 297.938 242.807 298.124 242.307C298.309 241.807 298.402 241.265 298.402 240.682C298.402 240.098 298.309 239.555 298.124 239.051C297.938 238.547 297.652 238.14 297.266 237.83C296.879 237.519 296.387 237.364 295.788 237.364C295.19 237.364 294.697 237.519 294.311 237.83C293.925 238.14 293.639 238.547 293.453 239.051C293.268 239.555 293.175 240.098 293.175 240.682C293.175 241.265 293.268 241.807 293.453 242.307C293.639 242.807 293.925 243.21 294.311 243.517C294.697 243.824 295.19 243.977 295.788 243.977ZM305.585 236.273V237.409H301.062V236.273H305.585ZM302.381 234.182H303.722V242.5C303.722 242.879 303.777 243.163 303.886 243.352C304 243.538 304.144 243.663 304.318 243.727C304.496 243.788 304.684 243.818 304.881 243.818C305.028 243.818 305.15 243.811 305.244 243.795C305.339 243.777 305.415 243.761 305.472 243.75L305.744 244.955C305.653 244.989 305.527 245.023 305.364 245.057C305.201 245.095 304.994 245.114 304.744 245.114C304.366 245.114 303.994 245.032 303.631 244.869C303.271 244.706 302.972 244.458 302.733 244.125C302.498 243.792 302.381 243.371 302.381 242.864V234.182ZM311.398 236.273V237.409H306.875V236.273H311.398ZM308.193 234.182H309.534V242.5C309.534 242.879 309.589 243.163 309.699 243.352C309.813 243.538 309.956 243.663 310.131 243.727C310.309 243.788 310.496 243.818 310.693 243.818C310.841 243.818 310.962 243.811 311.057 243.795C311.152 243.777 311.227 243.761 311.284 243.75L311.557 244.955C311.466 244.989 311.339 245.023 311.176 245.057C311.013 245.095 310.807 245.114 310.557 245.114C310.178 245.114 309.807 245.032 309.443 244.869C309.083 244.706 308.784 244.458 308.545 244.125C308.311 243.792 308.193 243.371 308.193 242.864V234.182ZM316.866 245.182C316.079 245.182 315.387 244.994 314.793 244.619C314.202 244.244 313.74 243.72 313.406 243.045C313.077 242.371 312.912 241.583 312.912 240.682C312.912 239.773 313.077 238.979 313.406 238.301C313.74 237.623 314.202 237.097 314.793 236.722C315.387 236.347 316.079 236.159 316.866 236.159C317.654 236.159 318.344 236.347 318.935 236.722C319.529 237.097 319.991 237.623 320.321 238.301C320.654 238.979 320.821 239.773 320.821 240.682C320.821 241.583 320.654 242.371 320.321 243.045C319.991 243.72 319.529 244.244 318.935 244.619C318.344 244.994 317.654 245.182 316.866 245.182ZM316.866 243.977C317.465 243.977 317.957 243.824 318.344 243.517C318.73 243.21 319.016 242.807 319.202 242.307C319.387 241.807 319.48 241.265 319.48 240.682C319.48 240.098 319.387 239.555 319.202 239.051C319.016 238.547 318.73 238.14 318.344 237.83C317.957 237.519 317.465 237.364 316.866 237.364C316.268 237.364 315.776 237.519 315.389 237.83C315.003 238.14 314.717 238.547 314.531 239.051C314.346 239.555 314.253 240.098 314.253 240.682C314.253 241.265 314.346 241.807 314.531 242.307C314.717 242.807 315.003 243.21 315.389 243.517C315.776 243.824 316.268 243.977 316.866 243.977ZM322.868 245V236.273H324.163V237.636H324.277C324.459 237.17 324.752 236.809 325.158 236.551C325.563 236.29 326.05 236.159 326.618 236.159C327.194 236.159 327.673 236.29 328.055 236.551C328.442 236.809 328.743 237.17 328.959 237.636H329.05C329.273 237.186 329.608 236.828 330.055 236.562C330.502 236.294 331.038 236.159 331.663 236.159C332.444 236.159 333.082 236.403 333.578 236.892C334.074 237.377 334.322 238.133 334.322 239.159V245H332.982V239.159C332.982 238.515 332.805 238.055 332.453 237.778C332.101 237.502 331.686 237.364 331.209 237.364C330.595 237.364 330.12 237.549 329.783 237.92C329.446 238.288 329.277 238.754 329.277 239.318V245H327.913V239.023C327.913 238.527 327.752 238.127 327.43 237.824C327.108 237.517 326.694 237.364 326.186 237.364C325.838 237.364 325.512 237.456 325.209 237.642C324.91 237.828 324.667 238.085 324.482 238.415C324.3 238.741 324.209 239.117 324.209 239.545V245H322.868Z" fill="black"/>
<rect x="81.5" y="60.5" width="301" height="139" stroke="black"/>
<path d="M187.448 135.182C186.72 135.182 186.078 134.998 185.522 134.631C184.965 134.259 184.529 133.737 184.215 133.062C183.9 132.384 183.743 131.583 183.743 130.659C183.743 129.742 183.9 128.947 184.215 128.273C184.529 127.598 184.967 127.078 185.527 126.71C186.088 126.343 186.736 126.159 187.47 126.159C188.039 126.159 188.488 126.254 188.817 126.443C189.15 126.629 189.404 126.841 189.578 127.08C189.756 127.314 189.895 127.508 189.993 127.659H190.107V123.364H191.448V135H190.152V133.659H189.993C189.895 133.818 189.755 134.019 189.573 134.261C189.391 134.5 189.131 134.714 188.794 134.903C188.457 135.089 188.008 135.182 187.448 135.182ZM187.63 133.977C188.167 133.977 188.622 133.837 188.993 133.557C189.364 133.273 189.647 132.881 189.84 132.381C190.033 131.877 190.13 131.295 190.13 130.636C190.13 129.985 190.035 129.415 189.845 128.926C189.656 128.434 189.376 128.051 189.005 127.778C188.633 127.502 188.175 127.364 187.63 127.364C187.061 127.364 186.588 127.509 186.209 127.801C185.834 128.089 185.552 128.481 185.363 128.977C185.177 129.47 185.084 130.023 185.084 130.636C185.084 131.258 185.179 131.822 185.368 132.33C185.561 132.833 185.845 133.235 186.22 133.534C186.599 133.83 187.069 133.977 187.63 133.977ZM194.09 135V126.273H195.385V127.591H195.476C195.635 127.159 195.923 126.809 196.34 126.54C196.756 126.271 197.226 126.136 197.749 126.136C197.847 126.136 197.97 126.138 198.118 126.142C198.266 126.146 198.378 126.152 198.453 126.159V127.523C198.408 127.511 198.304 127.494 198.141 127.472C197.982 127.445 197.813 127.432 197.635 127.432C197.211 127.432 196.832 127.521 196.499 127.699C196.169 127.873 195.908 128.116 195.715 128.426C195.525 128.733 195.431 129.083 195.431 129.477V135H194.09ZM202.611 135.205C202.058 135.205 201.556 135.1 201.105 134.892C200.655 134.68 200.297 134.375 200.032 133.977C199.766 133.576 199.634 133.091 199.634 132.523C199.634 132.023 199.732 131.617 199.929 131.307C200.126 130.992 200.39 130.746 200.719 130.568C201.049 130.39 201.412 130.258 201.81 130.17C202.211 130.08 202.615 130.008 203.02 129.955C203.55 129.886 203.98 129.835 204.31 129.801C204.643 129.763 204.886 129.701 205.037 129.614C205.193 129.527 205.27 129.375 205.27 129.159V129.114C205.27 128.553 205.117 128.117 204.81 127.807C204.507 127.496 204.047 127.341 203.429 127.341C202.789 127.341 202.287 127.481 201.924 127.761C201.56 128.042 201.304 128.341 201.157 128.659L199.884 128.205C200.111 127.674 200.414 127.261 200.793 126.966C201.175 126.667 201.592 126.458 202.043 126.341C202.497 126.22 202.944 126.159 203.384 126.159C203.664 126.159 203.986 126.193 204.35 126.261C204.717 126.326 205.071 126.46 205.412 126.665C205.757 126.869 206.043 127.178 206.27 127.591C206.497 128.004 206.611 128.557 206.611 129.25V135H205.27V133.818H205.202C205.111 134.008 204.96 134.21 204.747 134.426C204.535 134.642 204.253 134.826 203.901 134.977C203.549 135.129 203.119 135.205 202.611 135.205ZM202.816 134C203.346 134 203.793 133.896 204.157 133.688C204.524 133.479 204.8 133.21 204.986 132.881C205.175 132.551 205.27 132.205 205.27 131.841V130.614C205.213 130.682 205.088 130.744 204.895 130.801C204.706 130.854 204.486 130.902 204.236 130.943C203.99 130.981 203.749 131.015 203.515 131.045C203.283 131.072 203.096 131.095 202.952 131.114C202.604 131.159 202.278 131.233 201.975 131.335C201.675 131.434 201.433 131.583 201.247 131.784C201.066 131.981 200.975 132.25 200.975 132.591C200.975 133.057 201.147 133.409 201.492 133.648C201.84 133.883 202.282 134 202.816 134ZM211.036 135L208.377 126.273H209.786L211.672 132.955H211.763L213.627 126.273H215.059L216.899 132.932H216.99L218.877 126.273H220.286L217.627 135H216.309L214.399 128.295H214.263L212.354 135H211.036ZM227.059 129.386V130.636H221.968V129.386H227.059ZM231.986 135.205C231.433 135.205 230.931 135.1 230.48 134.892C230.03 134.68 229.672 134.375 229.407 133.977C229.141 133.576 229.009 133.091 229.009 132.523C229.009 132.023 229.107 131.617 229.304 131.307C229.501 130.992 229.765 130.746 230.094 130.568C230.424 130.39 230.787 130.258 231.185 130.17C231.586 130.08 231.99 130.008 232.395 129.955C232.925 129.886 233.355 129.835 233.685 129.801C234.018 129.763 234.261 129.701 234.412 129.614C234.568 129.527 234.645 129.375 234.645 129.159V129.114C234.645 128.553 234.492 128.117 234.185 127.807C233.882 127.496 233.422 127.341 232.804 127.341C232.164 127.341 231.662 127.481 231.299 127.761C230.935 128.042 230.679 128.341 230.532 128.659L229.259 128.205C229.486 127.674 229.789 127.261 230.168 126.966C230.55 126.667 230.967 126.458 231.418 126.341C231.872 126.22 232.319 126.159 232.759 126.159C233.039 126.159 233.361 126.193 233.725 126.261C234.092 126.326 234.446 126.46 234.787 126.665C235.132 126.869 235.418 127.178 235.645 127.591C235.872 128.004 235.986 128.557 235.986 129.25V135H234.645V133.818H234.577C234.486 134.008 234.335 134.21 234.122 134.426C233.91 134.642 233.628 134.826 233.276 134.977C232.924 135.129 232.494 135.205 231.986 135.205ZM232.191 134C232.721 134 233.168 133.896 233.532 133.688C233.899 133.479 234.175 133.21 234.361 132.881C234.55 132.551 234.645 132.205 234.645 131.841V130.614C234.588 130.682 234.463 130.744 234.27 130.801C234.081 130.854 233.861 130.902 233.611 130.943C233.365 130.981 233.124 131.015 232.89 131.045C232.658 131.072 232.471 131.095 232.327 131.114C231.979 131.159 231.653 131.233 231.35 131.335C231.05 131.434 230.808 131.583 230.622 131.784C230.441 131.981 230.35 132.25 230.35 132.591C230.35 133.057 230.522 133.409 230.867 133.648C231.215 133.883 231.657 134 232.191 134ZM238.434 135V126.273H239.729V127.591H239.82C239.979 127.159 240.267 126.809 240.684 126.54C241.1 126.271 241.57 126.136 242.093 126.136C242.191 126.136 242.314 126.138 242.462 126.142C242.61 126.146 242.721 126.152 242.797 126.159V127.523C242.752 127.511 242.648 127.494 242.485 127.472C242.326 127.445 242.157 127.432 241.979 127.432C241.555 127.432 241.176 127.521 240.843 127.699C240.513 127.873 240.252 128.116 240.059 128.426C239.869 128.733 239.774 129.083 239.774 129.477V135H238.434ZM247.78 135.182C246.939 135.182 246.214 134.996 245.604 134.625C244.998 134.25 244.53 133.727 244.201 133.057C243.875 132.383 243.712 131.598 243.712 130.705C243.712 129.811 243.875 129.023 244.201 128.341C244.53 127.655 244.988 127.121 245.576 126.739C246.166 126.352 246.856 126.159 247.644 126.159C248.098 126.159 248.547 126.235 248.99 126.386C249.434 126.538 249.837 126.784 250.201 127.125C250.564 127.462 250.854 127.909 251.07 128.466C251.286 129.023 251.394 129.708 251.394 130.523V131.091H244.666V129.932H250.03C250.03 129.439 249.932 129 249.735 128.614C249.541 128.227 249.265 127.922 248.905 127.699C248.549 127.475 248.129 127.364 247.644 127.364C247.11 127.364 246.648 127.496 246.257 127.761C245.871 128.023 245.574 128.364 245.365 128.784C245.157 129.205 245.053 129.655 245.053 130.136V130.909C245.053 131.568 245.166 132.127 245.394 132.585C245.625 133.04 245.945 133.386 246.354 133.625C246.763 133.86 247.238 133.977 247.78 133.977C248.132 133.977 248.451 133.928 248.735 133.83C249.023 133.727 249.271 133.576 249.479 133.375C249.687 133.17 249.848 132.917 249.962 132.614L251.257 132.977C251.121 133.417 250.892 133.803 250.57 134.136C250.248 134.466 249.85 134.723 249.377 134.909C248.903 135.091 248.371 135.182 247.78 135.182ZM256.002 135.205C255.449 135.205 254.947 135.1 254.496 134.892C254.045 134.68 253.687 134.375 253.422 133.977C253.157 133.576 253.024 133.091 253.024 132.523C253.024 132.023 253.123 131.617 253.32 131.307C253.517 130.992 253.78 130.746 254.11 130.568C254.439 130.39 254.803 130.258 255.201 130.17C255.602 130.08 256.006 130.008 256.411 129.955C256.941 129.886 257.371 129.835 257.701 129.801C258.034 129.763 258.276 129.701 258.428 129.614C258.583 129.527 258.661 129.375 258.661 129.159V129.114C258.661 128.553 258.507 128.117 258.201 127.807C257.898 127.496 257.437 127.341 256.82 127.341C256.18 127.341 255.678 127.481 255.314 127.761C254.951 128.042 254.695 128.341 254.547 128.659L253.274 128.205C253.502 127.674 253.805 127.261 254.184 126.966C254.566 126.667 254.983 126.458 255.434 126.341C255.888 126.22 256.335 126.159 256.774 126.159C257.055 126.159 257.377 126.193 257.74 126.261C258.108 126.326 258.462 126.46 258.803 126.665C259.148 126.869 259.434 127.178 259.661 127.591C259.888 128.004 260.002 128.557 260.002 129.25V135H258.661V133.818H258.593C258.502 134.008 258.35 134.21 258.138 134.426C257.926 134.642 257.644 134.826 257.291 134.977C256.939 135.129 256.509 135.205 256.002 135.205ZM256.206 134C256.737 134 257.184 133.896 257.547 133.688C257.915 133.479 258.191 133.21 258.377 132.881C258.566 132.551 258.661 132.205 258.661 131.841V130.614C258.604 130.682 258.479 130.744 258.286 130.801C258.096 130.854 257.877 130.902 257.627 130.943C257.381 130.981 257.14 131.015 256.905 131.045C256.674 131.072 256.487 131.095 256.343 131.114C255.994 131.159 255.668 131.233 255.365 131.335C255.066 131.434 254.824 131.583 254.638 131.784C254.456 131.981 254.365 132.25 254.365 132.591C254.365 133.057 254.538 133.409 254.882 133.648C255.231 133.883 255.672 134 256.206 134Z" fill="black"/>
<rect x="402.033" y="60.5" width="42.1924" height="139" stroke="black"/>
<path d="M233.227 295.273V283.273H234.523V284.659H234.682C234.78 284.508 234.917 284.314 235.091 284.08C235.269 283.841 235.523 283.629 235.852 283.443C236.186 283.254 236.636 283.159 237.205 283.159C237.939 283.159 238.587 283.343 239.148 283.71C239.708 284.078 240.146 284.598 240.46 285.273C240.775 285.947 240.932 286.742 240.932 287.659C240.932 288.583 240.775 289.384 240.46 290.062C240.146 290.737 239.71 291.259 239.153 291.631C238.597 291.998 237.955 292.182 237.227 292.182C236.667 292.182 236.218 292.089 235.881 291.903C235.544 291.714 235.284 291.5 235.102 291.261C234.92 291.019 234.78 290.818 234.682 290.659H234.568V295.273H233.227ZM234.545 287.636C234.545 288.295 234.642 288.877 234.835 289.381C235.028 289.881 235.311 290.273 235.682 290.557C236.053 290.837 236.508 290.977 237.045 290.977C237.606 290.977 238.074 290.83 238.449 290.534C238.828 290.235 239.112 289.833 239.301 289.33C239.494 288.822 239.591 288.258 239.591 287.636C239.591 287.023 239.496 286.47 239.307 285.977C239.121 285.481 238.839 285.089 238.46 284.801C238.085 284.509 237.614 284.364 237.045 284.364C236.5 284.364 236.042 284.502 235.67 284.778C235.299 285.051 235.019 285.434 234.83 285.926C234.64 286.415 234.545 286.985 234.545 287.636ZM245.545 292.205C244.992 292.205 244.491 292.1 244.04 291.892C243.589 291.68 243.231 291.375 242.966 290.977C242.701 290.576 242.568 290.091 242.568 289.523C242.568 289.023 242.667 288.617 242.864 288.307C243.061 287.992 243.324 287.746 243.653 287.568C243.983 287.39 244.347 287.258 244.744 287.17C245.146 287.08 245.549 287.008 245.955 286.955C246.485 286.886 246.915 286.835 247.244 286.801C247.578 286.763 247.82 286.701 247.972 286.614C248.127 286.527 248.205 286.375 248.205 286.159V286.114C248.205 285.553 248.051 285.117 247.744 284.807C247.441 284.496 246.981 284.341 246.364 284.341C245.723 284.341 245.222 284.481 244.858 284.761C244.494 285.042 244.239 285.341 244.091 285.659L242.818 285.205C243.045 284.674 243.348 284.261 243.727 283.966C244.11 283.667 244.527 283.458 244.977 283.341C245.432 283.22 245.879 283.159 246.318 283.159C246.598 283.159 246.92 283.193 247.284 283.261C247.652 283.326 248.006 283.46 248.347 283.665C248.691 283.869 248.977 284.178 249.205 284.591C249.432 285.004 249.545 285.557 249.545 286.25V292H248.205V290.818H248.136C248.045 291.008 247.894 291.21 247.682 291.426C247.47 291.642 247.188 291.826 246.835 291.977C246.483 292.129 246.053 292.205 245.545 292.205ZM245.75 291C246.28 291 246.727 290.896 247.091 290.688C247.458 290.479 247.735 290.21 247.92 289.881C248.11 289.551 248.205 289.205 248.205 288.841V287.614C248.148 287.682 248.023 287.744 247.83 287.801C247.64 287.854 247.42 287.902 247.17 287.943C246.924 287.981 246.684 288.015 246.449 288.045C246.218 288.072 246.03 288.095 245.886 288.114C245.538 288.159 245.212 288.233 244.909 288.335C244.61 288.434 244.367 288.583 244.182 288.784C244 288.981 243.909 289.25 243.909 289.591C243.909 290.057 244.081 290.409 244.426 290.648C244.775 290.883 245.216 291 245.75 291ZM255.288 292.182C254.561 292.182 253.919 291.998 253.362 291.631C252.805 291.259 252.37 290.737 252.055 290.062C251.741 289.384 251.584 288.583 251.584 287.659C251.584 286.742 251.741 285.947 252.055 285.273C252.37 284.598 252.807 284.078 253.368 283.71C253.929 283.343 254.576 283.159 255.311 283.159C255.879 283.159 256.328 283.254 256.658 283.443C256.991 283.629 257.245 283.841 257.419 284.08C257.597 284.314 257.735 284.508 257.834 284.659H257.947V280.364H259.288V292H257.993V290.659H257.834C257.735 290.818 257.595 291.019 257.413 291.261C257.232 291.5 256.972 291.714 256.635 291.903C256.298 292.089 255.849 292.182 255.288 292.182ZM255.47 290.977C256.008 290.977 256.463 290.837 256.834 290.557C257.205 290.273 257.487 289.881 257.68 289.381C257.874 288.877 257.97 288.295 257.97 287.636C257.97 286.985 257.875 286.415 257.686 285.926C257.497 285.434 257.216 285.051 256.845 284.778C256.474 284.502 256.016 284.364 255.47 284.364C254.902 284.364 254.429 284.509 254.05 284.801C253.675 285.089 253.393 285.481 253.203 285.977C253.018 286.47 252.925 287.023 252.925 287.636C252.925 288.258 253.019 288.822 253.209 289.33C253.402 289.833 253.686 290.235 254.061 290.534C254.44 290.83 254.91 290.977 255.47 290.977ZM265.226 292.182C264.499 292.182 263.857 291.998 263.3 291.631C262.743 291.259 262.307 290.737 261.993 290.062C261.679 289.384 261.521 288.583 261.521 287.659C261.521 286.742 261.679 285.947 261.993 285.273C262.307 284.598 262.745 284.078 263.305 283.71C263.866 283.343 264.514 283.159 265.249 283.159C265.817 283.159 266.266 283.254 266.595 283.443C266.929 283.629 267.182 283.841 267.357 284.08C267.535 284.314 267.673 284.508 267.771 284.659H267.885V280.364H269.226V292H267.93V290.659H267.771C267.673 290.818 267.533 291.019 267.351 291.261C267.169 291.5 266.91 291.714 266.572 291.903C266.235 292.089 265.786 292.182 265.226 292.182ZM265.408 290.977C265.946 290.977 266.4 290.837 266.771 290.557C267.143 290.273 267.425 289.881 267.618 289.381C267.811 288.877 267.908 288.295 267.908 287.636C267.908 286.985 267.813 286.415 267.624 285.926C267.434 285.434 267.154 285.051 266.783 284.778C266.411 284.502 265.953 284.364 265.408 284.364C264.839 284.364 264.366 284.509 263.987 284.801C263.612 285.089 263.33 285.481 263.141 285.977C262.955 286.47 262.862 287.023 262.862 287.636C262.862 288.258 262.957 288.822 263.146 289.33C263.339 289.833 263.624 290.235 263.999 290.534C264.377 290.83 264.847 290.977 265.408 290.977ZM271.868 292V283.273H273.209V292H271.868ZM272.55 281.818C272.288 281.818 272.063 281.729 271.874 281.551C271.688 281.373 271.595 281.159 271.595 280.909C271.595 280.659 271.688 280.445 271.874 280.267C272.063 280.089 272.288 280 272.55 280C272.811 280 273.035 280.089 273.22 280.267C273.41 280.445 273.504 280.659 273.504 280.909C273.504 281.159 273.41 281.373 273.22 281.551C273.035 281.729 272.811 281.818 272.55 281.818ZM277.006 286.75V292H275.665V283.273H276.96V284.636H277.074C277.278 284.193 277.589 283.837 278.006 283.568C278.422 283.295 278.96 283.159 279.619 283.159C280.21 283.159 280.727 283.28 281.17 283.523C281.614 283.761 281.958 284.125 282.205 284.614C282.451 285.098 282.574 285.712 282.574 286.455V292H281.233V286.545C281.233 285.86 281.055 285.326 280.699 284.943C280.343 284.557 279.854 284.364 279.233 284.364C278.805 284.364 278.422 284.456 278.085 284.642C277.752 284.828 277.489 285.098 277.295 285.455C277.102 285.811 277.006 286.242 277.006 286.75ZM288.547 295.455C287.899 295.455 287.342 295.371 286.876 295.205C286.411 295.042 286.022 294.826 285.712 294.557C285.405 294.292 285.161 294.008 284.979 293.705L286.047 292.955C286.168 293.114 286.321 293.295 286.507 293.5C286.693 293.708 286.946 293.888 287.268 294.04C287.594 294.195 288.02 294.273 288.547 294.273C289.251 294.273 289.833 294.102 290.291 293.761C290.75 293.42 290.979 292.886 290.979 292.159V290.386H290.865C290.767 290.545 290.626 290.742 290.445 290.977C290.267 291.208 290.009 291.415 289.672 291.597C289.339 291.775 288.888 291.864 288.32 291.864C287.615 291.864 286.982 291.697 286.422 291.364C285.865 291.03 285.424 290.545 285.098 289.909C284.776 289.273 284.615 288.5 284.615 287.591C284.615 286.697 284.772 285.919 285.087 285.256C285.401 284.589 285.839 284.074 286.399 283.71C286.96 283.343 287.607 283.159 288.342 283.159C288.911 283.159 289.361 283.254 289.695 283.443C290.032 283.629 290.289 283.841 290.467 284.08C290.649 284.314 290.789 284.508 290.888 284.659H291.024V283.273H292.32V292.25C292.32 293 292.149 293.61 291.808 294.08C291.471 294.553 291.017 294.9 290.445 295.119C289.876 295.343 289.244 295.455 288.547 295.455ZM288.501 290.659C289.039 290.659 289.494 290.536 289.865 290.29C290.236 290.044 290.518 289.689 290.712 289.227C290.905 288.765 291.001 288.212 291.001 287.568C291.001 286.939 290.907 286.384 290.717 285.903C290.528 285.422 290.248 285.045 289.876 284.773C289.505 284.5 289.047 284.364 288.501 284.364C287.933 284.364 287.46 284.508 287.081 284.795C286.706 285.083 286.424 285.47 286.234 285.955C286.049 286.439 285.956 286.977 285.956 287.568C285.956 288.174 286.051 288.71 286.24 289.176C286.433 289.638 286.717 290.002 287.092 290.267C287.471 290.528 287.941 290.659 288.501 290.659ZM299.774 286.386V287.636H294.683V286.386H299.774ZM305.679 292.182C304.861 292.182 304.156 291.989 303.565 291.602C302.974 291.216 302.52 290.684 302.202 290.006C301.884 289.328 301.724 288.553 301.724 287.682C301.724 286.795 301.887 286.013 302.213 285.335C302.543 284.653 303.001 284.121 303.588 283.739C304.179 283.352 304.868 283.159 305.656 283.159C306.27 283.159 306.823 283.273 307.315 283.5C307.808 283.727 308.211 284.045 308.526 284.455C308.84 284.864 309.035 285.341 309.111 285.886H307.77C307.668 285.489 307.44 285.136 307.088 284.83C306.74 284.519 306.27 284.364 305.679 284.364C305.156 284.364 304.698 284.5 304.304 284.773C303.914 285.042 303.609 285.422 303.389 285.915C303.173 286.403 303.065 286.977 303.065 287.636C303.065 288.311 303.171 288.898 303.384 289.398C303.599 289.898 303.902 290.286 304.293 290.562C304.687 290.839 305.149 290.977 305.679 290.977C306.027 290.977 306.344 290.917 306.628 290.795C306.912 290.674 307.152 290.5 307.349 290.273C307.546 290.045 307.687 289.773 307.77 289.455H309.111C309.035 289.97 308.848 290.434 308.548 290.847C308.253 291.256 307.861 291.581 307.372 291.824C306.887 292.062 306.323 292.182 305.679 292.182ZM314.616 292.182C313.829 292.182 313.137 291.994 312.543 291.619C311.952 291.244 311.49 290.72 311.156 290.045C310.827 289.371 310.662 288.583 310.662 287.682C310.662 286.773 310.827 285.979 311.156 285.301C311.49 284.623 311.952 284.097 312.543 283.722C313.137 283.347 313.829 283.159 314.616 283.159C315.404 283.159 316.094 283.347 316.685 283.722C317.279 284.097 317.741 284.623 318.071 285.301C318.404 285.979 318.571 286.773 318.571 287.682C318.571 288.583 318.404 289.371 318.071 290.045C317.741 290.72 317.279 291.244 316.685 291.619C316.094 291.994 315.404 292.182 314.616 292.182ZM314.616 290.977C315.215 290.977 315.707 290.824 316.094 290.517C316.48 290.21 316.766 289.807 316.952 289.307C317.137 288.807 317.23 288.265 317.23 287.682C317.23 287.098 317.137 286.555 316.952 286.051C316.766 285.547 316.48 285.14 316.094 284.83C315.707 284.519 315.215 284.364 314.616 284.364C314.018 284.364 313.526 284.519 313.139 284.83C312.753 285.14 312.467 285.547 312.281 286.051C312.096 286.555 312.003 287.098 312.003 287.682C312.003 288.265 312.096 288.807 312.281 289.307C312.467 289.807 312.753 290.21 313.139 290.517C313.526 290.824 314.018 290.977 314.616 290.977ZM321.959 286.75V292H320.618V283.273H321.913V284.636H322.027C322.232 284.193 322.542 283.837 322.959 283.568C323.375 283.295 323.913 283.159 324.572 283.159C325.163 283.159 325.68 283.28 326.124 283.523C326.567 283.761 326.911 284.125 327.158 284.614C327.404 285.098 327.527 285.712 327.527 286.455V292H326.186V286.545C326.186 285.86 326.008 285.326 325.652 284.943C325.296 284.557 324.807 284.364 324.186 284.364C323.758 284.364 323.375 284.456 323.038 284.642C322.705 284.828 322.442 285.098 322.249 285.455C322.055 285.811 321.959 286.242 321.959 286.75ZM333.773 283.273V284.409H329.25V283.273H333.773ZM330.568 281.182H331.909V289.5C331.909 289.879 331.964 290.163 332.074 290.352C332.188 290.538 332.331 290.663 332.506 290.727C332.684 290.788 332.871 290.818 333.068 290.818C333.216 290.818 333.337 290.811 333.432 290.795C333.527 290.777 333.602 290.761 333.659 290.75L333.932 291.955C333.841 291.989 333.714 292.023 333.551 292.057C333.388 292.095 333.182 292.114 332.932 292.114C332.553 292.114 332.182 292.032 331.818 291.869C331.458 291.706 331.159 291.458 330.92 291.125C330.686 290.792 330.568 290.371 330.568 289.864V281.182ZM338.358 292.205C337.805 292.205 337.303 292.1 336.852 291.892C336.402 291.68 336.044 291.375 335.778 290.977C335.513 290.576 335.381 290.091 335.381 289.523C335.381 289.023 335.479 288.617 335.676 288.307C335.873 287.992 336.136 287.746 336.466 287.568C336.795 287.39 337.159 287.258 337.557 287.17C337.958 287.08 338.362 287.008 338.767 286.955C339.297 286.886 339.727 286.835 340.057 286.801C340.39 286.763 340.633 286.701 340.784 286.614C340.939 286.527 341.017 286.375 341.017 286.159V286.114C341.017 285.553 340.864 285.117 340.557 284.807C340.254 284.496 339.794 284.341 339.176 284.341C338.536 284.341 338.034 284.481 337.67 284.761C337.307 285.042 337.051 285.341 336.903 285.659L335.631 285.205C335.858 284.674 336.161 284.261 336.54 283.966C336.922 283.667 337.339 283.458 337.79 283.341C338.244 283.22 338.691 283.159 339.131 283.159C339.411 283.159 339.733 283.193 340.097 283.261C340.464 283.326 340.818 283.46 341.159 283.665C341.504 283.869 341.79 284.178 342.017 284.591C342.244 285.004 342.358 285.557 342.358 286.25V292H341.017V290.818H340.949C340.858 291.008 340.706 291.21 340.494 291.426C340.282 291.642 340 291.826 339.648 291.977C339.295 292.129 338.866 292.205 338.358 292.205ZM338.562 291C339.093 291 339.54 290.896 339.903 290.688C340.271 290.479 340.547 290.21 340.733 289.881C340.922 289.551 341.017 289.205 341.017 288.841V287.614C340.96 287.682 340.835 287.744 340.642 287.801C340.453 287.854 340.233 287.902 339.983 287.943C339.737 287.981 339.496 288.015 339.261 288.045C339.03 288.072 338.843 288.095 338.699 288.114C338.35 288.159 338.025 288.233 337.722 288.335C337.422 288.434 337.18 288.583 336.994 288.784C336.813 288.981 336.722 289.25 336.722 289.591C336.722 290.057 336.894 290.409 337.239 290.648C337.587 290.883 338.028 291 338.562 291ZM344.805 292V283.273H346.146V292H344.805ZM345.487 281.818C345.226 281.818 345 281.729 344.811 281.551C344.625 281.373 344.533 281.159 344.533 280.909C344.533 280.659 344.625 280.445 344.811 280.267C345 280.089 345.226 280 345.487 280C345.749 280 345.972 280.089 346.158 280.267C346.347 280.445 346.442 280.659 346.442 280.909C346.442 281.159 346.347 281.373 346.158 281.551C345.972 281.729 345.749 281.818 345.487 281.818ZM349.943 286.75V292H348.602V283.273H349.898V284.636H350.011C350.216 284.193 350.527 283.837 350.943 283.568C351.36 283.295 351.898 283.159 352.557 283.159C353.148 283.159 353.665 283.28 354.108 283.523C354.551 283.761 354.896 284.125 355.142 284.614C355.388 285.098 355.511 285.712 355.511 286.455V292H354.17V286.545C354.17 285.86 353.992 285.326 353.636 284.943C353.28 284.557 352.792 284.364 352.17 284.364C351.742 284.364 351.36 284.456 351.023 284.642C350.689 284.828 350.426 285.098 350.233 285.455C350.04 285.811 349.943 286.242 349.943 286.75ZM361.621 292.182C360.78 292.182 360.054 291.996 359.445 291.625C358.839 291.25 358.371 290.727 358.041 290.057C357.715 289.383 357.553 288.598 357.553 287.705C357.553 286.811 357.715 286.023 358.041 285.341C358.371 284.655 358.829 284.121 359.416 283.739C360.007 283.352 360.696 283.159 361.484 283.159C361.939 283.159 362.388 283.235 362.831 283.386C363.274 283.538 363.678 283.784 364.041 284.125C364.405 284.462 364.695 284.909 364.911 285.466C365.126 286.023 365.234 286.708 365.234 287.523V288.091H358.507V286.932H363.871C363.871 286.439 363.772 286 363.575 285.614C363.382 285.227 363.106 284.922 362.746 284.699C362.39 284.475 361.969 284.364 361.484 284.364C360.95 284.364 360.488 284.496 360.098 284.761C359.712 285.023 359.414 285.364 359.206 285.784C358.998 286.205 358.893 286.655 358.893 287.136V287.909C358.893 288.568 359.007 289.127 359.234 289.585C359.465 290.04 359.786 290.386 360.195 290.625C360.604 290.86 361.079 290.977 361.621 290.977C361.973 290.977 362.291 290.928 362.575 290.83C362.863 290.727 363.111 290.576 363.32 290.375C363.528 290.17 363.689 289.917 363.803 289.614L365.098 289.977C364.962 290.417 364.732 290.803 364.411 291.136C364.089 291.466 363.691 291.723 363.217 291.909C362.744 292.091 362.212 292.182 361.621 292.182ZM367.274 292V283.273H368.57V284.591H368.661C368.82 284.159 369.107 283.809 369.524 283.54C369.941 283.271 370.411 283.136 370.933 283.136C371.032 283.136 371.155 283.138 371.303 283.142C371.45 283.146 371.562 283.152 371.638 283.159V284.523C371.592 284.511 371.488 284.494 371.325 284.472C371.166 284.445 370.998 284.432 370.82 284.432C370.395 284.432 370.017 284.521 369.683 284.699C369.354 284.873 369.092 285.116 368.899 285.426C368.71 285.733 368.615 286.083 368.615 286.477V292H367.274ZM377.587 286.386V287.636H372.496V286.386H377.587ZM384.946 286.386V287.636H379.855V286.386H384.946ZM387.305 292V283.273H388.601V284.591H388.692C388.851 284.159 389.139 283.809 389.555 283.54C389.972 283.271 390.442 283.136 390.964 283.136C391.063 283.136 391.186 283.138 391.334 283.142C391.482 283.146 391.593 283.152 391.669 283.159V284.523C391.624 284.511 391.519 284.494 391.357 284.472C391.197 284.445 391.029 284.432 390.851 284.432C390.427 284.432 390.048 284.521 389.714 284.699C389.385 284.873 389.124 285.116 388.93 285.426C388.741 285.733 388.646 286.083 388.646 286.477V292H387.305ZM393.259 292V283.273H394.599V292H393.259ZM393.94 281.818C393.679 281.818 393.454 281.729 393.264 281.551C393.079 281.373 392.986 281.159 392.986 280.909C392.986 280.659 393.079 280.445 393.264 280.267C393.454 280.089 393.679 280 393.94 280C394.202 280 394.425 280.089 394.611 280.267C394.8 280.445 394.895 280.659 394.895 280.909C394.895 281.159 394.8 281.373 394.611 281.551C394.425 281.729 394.202 281.818 393.94 281.818ZM400.578 295.455C399.93 295.455 399.374 295.371 398.908 295.205C398.442 295.042 398.054 294.826 397.743 294.557C397.436 294.292 397.192 294.008 397.01 293.705L398.078 292.955C398.199 293.114 398.353 293.295 398.538 293.5C398.724 293.708 398.978 293.888 399.3 294.04C399.625 294.195 400.052 294.273 400.578 294.273C401.283 294.273 401.864 294.102 402.322 293.761C402.781 293.42 403.01 292.886 403.01 292.159V290.386H402.896C402.798 290.545 402.658 290.742 402.476 290.977C402.298 291.208 402.04 291.415 401.703 291.597C401.37 291.775 400.919 291.864 400.351 291.864C399.646 291.864 399.014 291.697 398.453 291.364C397.896 291.03 397.455 290.545 397.129 289.909C396.807 289.273 396.646 288.5 396.646 287.591C396.646 286.697 396.804 285.919 397.118 285.256C397.432 284.589 397.87 284.074 398.43 283.71C398.991 283.343 399.639 283.159 400.374 283.159C400.942 283.159 401.393 283.254 401.726 283.443C402.063 283.629 402.321 283.841 402.499 284.08C402.68 284.314 402.821 284.508 402.919 284.659H403.055V283.273H404.351V292.25C404.351 293 404.18 293.61 403.839 294.08C403.502 294.553 403.048 294.9 402.476 295.119C401.908 295.343 401.275 295.455 400.578 295.455ZM400.533 290.659C401.071 290.659 401.525 290.536 401.896 290.29C402.268 290.044 402.55 289.689 402.743 289.227C402.936 288.765 403.033 288.212 403.033 287.568C403.033 286.939 402.938 286.384 402.749 285.903C402.559 285.422 402.279 285.045 401.908 284.773C401.536 284.5 401.078 284.364 400.533 284.364C399.964 284.364 399.491 284.508 399.112 284.795C398.737 285.083 398.455 285.47 398.266 285.955C398.08 286.439 397.987 286.977 397.987 287.568C397.987 288.174 398.082 288.71 398.271 289.176C398.464 289.638 398.749 290.002 399.124 290.267C399.502 290.528 399.972 290.659 400.533 290.659ZM408.146 286.75V292H406.805V280.364H408.146V284.636H408.26C408.464 284.186 408.771 283.828 409.18 283.562C409.593 283.294 410.143 283.159 410.828 283.159C411.423 283.159 411.944 283.278 412.391 283.517C412.838 283.752 413.184 284.114 413.43 284.602C413.68 285.087 413.805 285.705 413.805 286.455V292H412.464V286.545C412.464 285.852 412.285 285.316 411.925 284.938C411.569 284.555 411.074 284.364 410.442 284.364C410.002 284.364 409.608 284.456 409.26 284.642C408.915 284.828 408.643 285.098 408.442 285.455C408.245 285.811 408.146 286.242 408.146 286.75ZM420.054 283.273V284.409H415.531V283.273H420.054ZM416.849 281.182H418.19V289.5C418.19 289.879 418.245 290.163 418.355 290.352C418.469 290.538 418.613 290.663 418.787 290.727C418.965 290.788 419.152 290.818 419.349 290.818C419.497 290.818 419.618 290.811 419.713 290.795C419.808 290.777 419.884 290.761 419.94 290.75L420.213 291.955C420.122 291.989 419.995 292.023 419.832 292.057C419.67 292.095 419.463 292.114 419.213 292.114C418.834 292.114 418.463 292.032 418.099 291.869C417.74 291.706 417.44 291.458 417.202 291.125C416.967 290.792 416.849 290.371 416.849 289.864V281.182Z" fill="black"/>
<path d="M421 140H461V287H428.805" stroke="black"/>
<rect x="-0.5" y="0.5" width="42.1924" height="139" transform="matrix(-1 0 0 1 62.4668 60)" stroke="black"/>
<path d="M41.2273 295.273V283.273H42.5227V284.659H42.6818C42.7803 284.508 42.9167 284.314 43.0909 284.08C43.2689 283.841 43.5227 283.629 43.8523 283.443C44.1856 283.254 44.6364 283.159 45.2045 283.159C45.9394 283.159 46.5871 283.343 47.1477 283.71C47.7083 284.078 48.1458 284.598 48.4602 285.273C48.7746 285.947 48.9318 286.742 48.9318 287.659C48.9318 288.583 48.7746 289.384 48.4602 290.062C48.1458 290.737 47.7102 291.259 47.1534 291.631C46.5966 291.998 45.9545 292.182 45.2273 292.182C44.6667 292.182 44.2178 292.089 43.8807 291.903C43.5436 291.714 43.2841 291.5 43.1023 291.261C42.9205 291.019 42.7803 290.818 42.6818 290.659H42.5682V295.273H41.2273ZM42.5455 287.636C42.5455 288.295 42.642 288.877 42.8352 289.381C43.0284 289.881 43.3106 290.273 43.6818 290.557C44.053 290.837 44.5076 290.977 45.0455 290.977C45.6061 290.977 46.0739 290.83 46.4489 290.534C46.8277 290.235 47.1117 289.833 47.3011 289.33C47.4943 288.822 47.5909 288.258 47.5909 287.636C47.5909 287.023 47.4962 286.47 47.3068 285.977C47.1212 285.481 46.839 285.089 46.4602 284.801C46.0852 284.509 45.6136 284.364 45.0455 284.364C44.5 284.364 44.0417 284.502 43.6705 284.778C43.2992 285.051 43.0189 285.434 42.8295 285.926C42.6402 286.415 42.5455 286.985 42.5455 287.636ZM53.5455 292.205C52.9924 292.205 52.4905 292.1 52.0398 291.892C51.589 291.68 51.2311 291.375 50.9659 290.977C50.7008 290.576 50.5682 290.091 50.5682 289.523C50.5682 289.023 50.6667 288.617 50.8636 288.307C51.0606 287.992 51.3239 287.746 51.6534 287.568C51.983 287.39 52.3466 287.258 52.7443 287.17C53.1458 287.08 53.5492 287.008 53.9545 286.955C54.4848 286.886 54.9148 286.835 55.2443 286.801C55.5777 286.763 55.8201 286.701 55.9716 286.614C56.1269 286.527 56.2045 286.375 56.2045 286.159V286.114C56.2045 285.553 56.0511 285.117 55.7443 284.807C55.4413 284.496 54.9811 284.341 54.3636 284.341C53.7235 284.341 53.2216 284.481 52.858 284.761C52.4943 285.042 52.2386 285.341 52.0909 285.659L50.8182 285.205C51.0455 284.674 51.3485 284.261 51.7273 283.966C52.1098 283.667 52.5265 283.458 52.9773 283.341C53.4318 283.22 53.8788 283.159 54.3182 283.159C54.5985 283.159 54.9205 283.193 55.2841 283.261C55.6515 283.326 56.0057 283.46 56.3466 283.665C56.6913 283.869 56.9773 284.178 57.2045 284.591C57.4318 285.004 57.5455 285.557 57.5455 286.25V292H56.2045V290.818H56.1364C56.0455 291.008 55.8939 291.21 55.6818 291.426C55.4697 291.642 55.1875 291.826 54.8352 291.977C54.483 292.129 54.053 292.205 53.5455 292.205ZM53.75 291C54.2803 291 54.7273 290.896 55.0909 290.688C55.4583 290.479 55.7348 290.21 55.9205 289.881C56.1098 289.551 56.2045 289.205 56.2045 288.841V287.614C56.1477 287.682 56.0227 287.744 55.8295 287.801C55.6402 287.854 55.4205 287.902 55.1705 287.943C54.9242 287.981 54.6837 288.015 54.4489 288.045C54.2178 288.072 54.0303 288.095 53.8864 288.114C53.5379 288.159 53.2121 288.233 52.9091 288.335C52.6098 288.434 52.3674 288.583 52.1818 288.784C52 288.981 51.9091 289.25 51.9091 289.591C51.9091 290.057 52.0814 290.409 52.4261 290.648C52.7746 290.883 53.2159 291 53.75 291ZM63.2884 292.182C62.5611 292.182 61.919 291.998 61.3622 291.631C60.8054 291.259 60.3698 290.737 60.0554 290.062C59.741 289.384 59.5838 288.583 59.5838 287.659C59.5838 286.742 59.741 285.947 60.0554 285.273C60.3698 284.598 60.8073 284.078 61.3679 283.71C61.9285 283.343 62.5762 283.159 63.3111 283.159C63.8793 283.159 64.3281 283.254 64.6577 283.443C64.991 283.629 65.2448 283.841 65.419 284.08C65.5971 284.314 65.7353 284.508 65.8338 284.659H65.9474V280.364H67.2884V292H65.9929V290.659H65.8338C65.7353 290.818 65.5952 291.019 65.4134 291.261C65.2315 291.5 64.9721 291.714 64.6349 291.903C64.2978 292.089 63.849 292.182 63.2884 292.182ZM63.4702 290.977C64.008 290.977 64.4626 290.837 64.8338 290.557C65.205 290.273 65.4872 289.881 65.6804 289.381C65.8736 288.877 65.9702 288.295 65.9702 287.636C65.9702 286.985 65.8755 286.415 65.6861 285.926C65.4967 285.434 65.2164 285.051 64.8452 284.778C64.474 284.502 64.0156 284.364 63.4702 284.364C62.902 284.364 62.4285 284.509 62.0497 284.801C61.6747 285.089 61.3925 285.481 61.2031 285.977C61.0175 286.47 60.9247 287.023 60.9247 287.636C60.9247 288.258 61.0194 288.822 61.2088 289.33C61.402 289.833 61.6861 290.235 62.0611 290.534C62.4399 290.83 62.9096 290.977 63.4702 290.977ZM73.2259 292.182C72.4986 292.182 71.8565 291.998 71.2997 291.631C70.7429 291.259 70.3073 290.737 69.9929 290.062C69.6785 289.384 69.5213 288.583 69.5213 287.659C69.5213 286.742 69.6785 285.947 69.9929 285.273C70.3073 284.598 70.7448 284.078 71.3054 283.71C71.866 283.343 72.5137 283.159 73.2486 283.159C73.8168 283.159 74.2656 283.254 74.5952 283.443C74.9285 283.629 75.1823 283.841 75.3565 284.08C75.5346 284.314 75.6728 284.508 75.7713 284.659H75.8849V280.364H77.2259V292H75.9304V290.659H75.7713C75.6728 290.818 75.5327 291.019 75.3509 291.261C75.169 291.5 74.9096 291.714 74.5724 291.903C74.2353 292.089 73.7865 292.182 73.2259 292.182ZM73.4077 290.977C73.9455 290.977 74.4001 290.837 74.7713 290.557C75.1425 290.273 75.4247 289.881 75.6179 289.381C75.8111 288.877 75.9077 288.295 75.9077 287.636C75.9077 286.985 75.813 286.415 75.6236 285.926C75.4342 285.434 75.1539 285.051 74.7827 284.778C74.4115 284.502 73.9531 284.364 73.4077 284.364C72.8395 284.364 72.366 284.509 71.9872 284.801C71.6122 285.089 71.33 285.481 71.1406 285.977C70.955 286.47 70.8622 287.023 70.8622 287.636C70.8622 288.258 70.9569 288.822 71.1463 289.33C71.3395 289.833 71.6236 290.235 71.9986 290.534C72.3774 290.83 72.8471 290.977 73.4077 290.977ZM79.8679 292V283.273H81.2088V292H79.8679ZM80.5497 281.818C80.2884 281.818 80.063 281.729 79.8736 281.551C79.688 281.373 79.5952 281.159 79.5952 280.909C79.5952 280.659 79.688 280.445 79.8736 280.267C80.063 280.089 80.2884 280 80.5497 280C80.8111 280 81.0346 280.089 81.2202 280.267C81.4096 280.445 81.5043 280.659 81.5043 280.909C81.5043 281.159 81.4096 281.373 81.2202 281.551C81.0346 281.729 80.8111 281.818 80.5497 281.818ZM85.0057 286.75V292H83.6648V283.273H84.9602V284.636H85.0739C85.2784 284.193 85.589 283.837 86.0057 283.568C86.4223 283.295 86.9602 283.159 87.6193 283.159C88.2102 283.159 88.7273 283.28 89.1705 283.523C89.6136 283.761 89.9583 284.125 90.2045 284.614C90.4508 285.098 90.5739 285.712 90.5739 286.455V292H89.233V286.545C89.233 285.86 89.0549 285.326 88.6989 284.943C88.3428 284.557 87.8542 284.364 87.233 284.364C86.8049 284.364 86.4223 284.456 86.0852 284.642C85.7519 284.828 85.4886 285.098 85.2955 285.455C85.1023 285.811 85.0057 286.242 85.0057 286.75ZM96.5469 295.455C95.8991 295.455 95.3423 295.371 94.8764 295.205C94.4105 295.042 94.0223 294.826 93.7116 294.557C93.4048 294.292 93.1605 294.008 92.9787 293.705L94.0469 292.955C94.1681 293.114 94.3215 293.295 94.5071 293.5C94.6927 293.708 94.9465 293.888 95.2685 294.04C95.5942 294.195 96.0204 294.273 96.5469 294.273C97.2514 294.273 97.8329 294.102 98.2912 293.761C98.7495 293.42 98.9787 292.886 98.9787 292.159V290.386H98.8651C98.7666 290.545 98.6264 290.742 98.4446 290.977C98.2666 291.208 98.009 291.415 97.6719 291.597C97.3385 291.775 96.8878 291.864 96.3196 291.864C95.6151 291.864 94.9825 291.697 94.4219 291.364C93.8651 291.03 93.4238 290.545 93.098 289.909C92.776 289.273 92.6151 288.5 92.6151 287.591C92.6151 286.697 92.7723 285.919 93.0866 285.256C93.401 284.589 93.8385 284.074 94.3991 283.71C94.9598 283.343 95.6075 283.159 96.3423 283.159C96.9105 283.159 97.3613 283.254 97.6946 283.443C98.0317 283.629 98.2893 283.841 98.4673 284.08C98.6491 284.314 98.7893 284.508 98.8878 284.659H99.0241V283.273H100.32V292.25C100.32 293 100.149 293.61 99.8082 294.08C99.4711 294.553 99.0166 294.9 98.4446 295.119C97.8764 295.343 97.2438 295.455 96.5469 295.455ZM96.5014 290.659C97.0393 290.659 97.4938 290.536 97.8651 290.29C98.2363 290.044 98.5185 289.689 98.7116 289.227C98.9048 288.765 99.0014 288.212 99.0014 287.568C99.0014 286.939 98.9067 286.384 98.7173 285.903C98.5279 285.422 98.2476 285.045 97.8764 284.773C97.5052 284.5 97.0469 284.364 96.5014 284.364C95.9332 284.364 95.4598 284.508 95.081 284.795C94.706 285.083 94.4238 285.47 94.2344 285.955C94.0488 286.439 93.956 286.977 93.956 287.568C93.956 288.174 94.0507 288.71 94.2401 289.176C94.4332 289.638 94.7173 290.002 95.0923 290.267C95.4711 290.528 95.9408 290.659 96.5014 290.659ZM107.774 286.386V287.636H102.683V286.386H107.774ZM113.679 292.182C112.861 292.182 112.156 291.989 111.565 291.602C110.974 291.216 110.52 290.684 110.202 290.006C109.884 289.328 109.724 288.553 109.724 287.682C109.724 286.795 109.887 286.013 110.213 285.335C110.543 284.653 111.001 284.121 111.588 283.739C112.179 283.352 112.868 283.159 113.656 283.159C114.27 283.159 114.823 283.273 115.315 283.5C115.808 283.727 116.211 284.045 116.526 284.455C116.84 284.864 117.035 285.341 117.111 285.886H115.77C115.668 285.489 115.44 285.136 115.088 284.83C114.74 284.519 114.27 284.364 113.679 284.364C113.156 284.364 112.698 284.5 112.304 284.773C111.914 285.042 111.609 285.422 111.389 285.915C111.173 286.403 111.065 286.977 111.065 287.636C111.065 288.311 111.171 288.898 111.384 289.398C111.599 289.898 111.902 290.286 112.293 290.562C112.687 290.839 113.149 290.977 113.679 290.977C114.027 290.977 114.344 290.917 114.628 290.795C114.912 290.674 115.152 290.5 115.349 290.273C115.546 290.045 115.687 289.773 115.77 289.455H117.111C117.035 289.97 116.848 290.434 116.548 290.847C116.253 291.256 115.861 291.581 115.372 291.824C114.887 292.062 114.323 292.182 113.679 292.182ZM122.616 292.182C121.829 292.182 121.137 291.994 120.543 291.619C119.952 291.244 119.49 290.72 119.156 290.045C118.827 289.371 118.662 288.583 118.662 287.682C118.662 286.773 118.827 285.979 119.156 285.301C119.49 284.623 119.952 284.097 120.543 283.722C121.137 283.347 121.829 283.159 122.616 283.159C123.404 283.159 124.094 283.347 124.685 283.722C125.279 284.097 125.741 284.623 126.071 285.301C126.404 285.979 126.571 286.773 126.571 287.682C126.571 288.583 126.404 289.371 126.071 290.045C125.741 290.72 125.279 291.244 124.685 291.619C124.094 291.994 123.404 292.182 122.616 292.182ZM122.616 290.977C123.215 290.977 123.707 290.824 124.094 290.517C124.48 290.21 124.766 289.807 124.952 289.307C125.137 288.807 125.23 288.265 125.23 287.682C125.23 287.098 125.137 286.555 124.952 286.051C124.766 285.547 124.48 285.14 124.094 284.83C123.707 284.519 123.215 284.364 122.616 284.364C122.018 284.364 121.526 284.519 121.139 284.83C120.753 285.14 120.467 285.547 120.281 286.051C120.096 286.555 120.003 287.098 120.003 287.682C120.003 288.265 120.096 288.807 120.281 289.307C120.467 289.807 120.753 290.21 121.139 290.517C121.526 290.824 122.018 290.977 122.616 290.977ZM129.959 286.75V292H128.618V283.273H129.913V284.636H130.027C130.232 284.193 130.542 283.837 130.959 283.568C131.375 283.295 131.913 283.159 132.572 283.159C133.163 283.159 133.68 283.28 134.124 283.523C134.567 283.761 134.911 284.125 135.158 284.614C135.404 285.098 135.527 285.712 135.527 286.455V292H134.186V286.545C134.186 285.86 134.008 285.326 133.652 284.943C133.296 284.557 132.807 284.364 132.186 284.364C131.758 284.364 131.375 284.456 131.038 284.642C130.705 284.828 130.442 285.098 130.249 285.455C130.055 285.811 129.959 286.242 129.959 286.75ZM141.773 283.273V284.409H137.25V283.273H141.773ZM138.568 281.182H139.909V289.5C139.909 289.879 139.964 290.163 140.074 290.352C140.188 290.538 140.331 290.663 140.506 290.727C140.684 290.788 140.871 290.818 141.068 290.818C141.216 290.818 141.337 290.811 141.432 290.795C141.527 290.777 141.602 290.761 141.659 290.75L141.932 291.955C141.841 291.989 141.714 292.023 141.551 292.057C141.388 292.095 141.182 292.114 140.932 292.114C140.553 292.114 140.182 292.032 139.818 291.869C139.458 291.706 139.159 291.458 138.92 291.125C138.686 290.792 138.568 290.371 138.568 289.864V281.182ZM146.358 292.205C145.805 292.205 145.303 292.1 144.852 291.892C144.402 291.68 144.044 291.375 143.778 290.977C143.513 290.576 143.381 290.091 143.381 289.523C143.381 289.023 143.479 288.617 143.676 288.307C143.873 287.992 144.136 287.746 144.466 287.568C144.795 287.39 145.159 287.258 145.557 287.17C145.958 287.08 146.362 287.008 146.767 286.955C147.297 286.886 147.727 286.835 148.057 286.801C148.39 286.763 148.633 286.701 148.784 286.614C148.939 286.527 149.017 286.375 149.017 286.159V286.114C149.017 285.553 148.864 285.117 148.557 284.807C148.254 284.496 147.794 284.341 147.176 284.341C146.536 284.341 146.034 284.481 145.67 284.761C145.307 285.042 145.051 285.341 144.903 285.659L143.631 285.205C143.858 284.674 144.161 284.261 144.54 283.966C144.922 283.667 145.339 283.458 145.79 283.341C146.244 283.22 146.691 283.159 147.131 283.159C147.411 283.159 147.733 283.193 148.097 283.261C148.464 283.326 148.818 283.46 149.159 283.665C149.504 283.869 149.79 284.178 150.017 284.591C150.244 285.004 150.358 285.557 150.358 286.25V292H149.017V290.818H148.949C148.858 291.008 148.706 291.21 148.494 291.426C148.282 291.642 148 291.826 147.648 291.977C147.295 292.129 146.866 292.205 146.358 292.205ZM146.562 291C147.093 291 147.54 290.896 147.903 290.688C148.271 290.479 148.547 290.21 148.733 289.881C148.922 289.551 149.017 289.205 149.017 288.841V287.614C148.96 287.682 148.835 287.744 148.642 287.801C148.453 287.854 148.233 287.902 147.983 287.943C147.737 287.981 147.496 288.015 147.261 288.045C147.03 288.072 146.843 288.095 146.699 288.114C146.35 288.159 146.025 288.233 145.722 288.335C145.422 288.434 145.18 288.583 144.994 288.784C144.813 288.981 144.722 289.25 144.722 289.591C144.722 290.057 144.894 290.409 145.239 290.648C145.587 290.883 146.028 291 146.562 291ZM152.805 292V283.273H154.146V292H152.805ZM153.487 281.818C153.226 281.818 153 281.729 152.811 281.551C152.625 281.373 152.533 281.159 152.533 280.909C152.533 280.659 152.625 280.445 152.811 280.267C153 280.089 153.226 280 153.487 280C153.749 280 153.972 280.089 154.158 280.267C154.347 280.445 154.442 280.659 154.442 280.909C154.442 281.159 154.347 281.373 154.158 281.551C153.972 281.729 153.749 281.818 153.487 281.818ZM157.943 286.75V292H156.602V283.273H157.898V284.636H158.011C158.216 284.193 158.527 283.837 158.943 283.568C159.36 283.295 159.898 283.159 160.557 283.159C161.148 283.159 161.665 283.28 162.108 283.523C162.551 283.761 162.896 284.125 163.142 284.614C163.388 285.098 163.511 285.712 163.511 286.455V292H162.17V286.545C162.17 285.86 161.992 285.326 161.636 284.943C161.28 284.557 160.792 284.364 160.17 284.364C159.742 284.364 159.36 284.456 159.023 284.642C158.689 284.828 158.426 285.098 158.233 285.455C158.04 285.811 157.943 286.242 157.943 286.75ZM169.621 292.182C168.78 292.182 168.054 291.996 167.445 291.625C166.839 291.25 166.371 290.727 166.041 290.057C165.715 289.383 165.553 288.598 165.553 287.705C165.553 286.811 165.715 286.023 166.041 285.341C166.371 284.655 166.829 284.121 167.416 283.739C168.007 283.352 168.696 283.159 169.484 283.159C169.939 283.159 170.388 283.235 170.831 283.386C171.274 283.538 171.678 283.784 172.041 284.125C172.405 284.462 172.695 284.909 172.911 285.466C173.126 286.023 173.234 286.708 173.234 287.523V288.091H166.507V286.932H171.871C171.871 286.439 171.772 286 171.575 285.614C171.382 285.227 171.106 284.922 170.746 284.699C170.39 284.475 169.969 284.364 169.484 284.364C168.95 284.364 168.488 284.496 168.098 284.761C167.712 285.023 167.414 285.364 167.206 285.784C166.998 286.205 166.893 286.655 166.893 287.136V287.909C166.893 288.568 167.007 289.127 167.234 289.585C167.465 290.04 167.786 290.386 168.195 290.625C168.604 290.86 169.079 290.977 169.621 290.977C169.973 290.977 170.291 290.928 170.575 290.83C170.863 290.727 171.111 290.576 171.32 290.375C171.528 290.17 171.689 289.917 171.803 289.614L173.098 289.977C172.962 290.417 172.732 290.803 172.411 291.136C172.089 291.466 171.691 291.723 171.217 291.909C170.744 292.091 170.212 292.182 169.621 292.182ZM175.274 292V283.273H176.57V284.591H176.661C176.82 284.159 177.107 283.809 177.524 283.54C177.941 283.271 178.411 283.136 178.933 283.136C179.032 283.136 179.155 283.138 179.303 283.142C179.45 283.146 179.562 283.152 179.638 283.159V284.523C179.592 284.511 179.488 284.494 179.325 284.472C179.166 284.445 178.998 284.432 178.82 284.432C178.395 284.432 178.017 284.521 177.683 284.699C177.354 284.873 177.092 285.116 176.899 285.426C176.71 285.733 176.615 286.083 176.615 286.477V292H175.274ZM185.587 286.386V287.636H180.496V286.386H185.587ZM192.946 286.386V287.636H187.855V286.386H192.946ZM196.646 280.364V292H195.305V280.364H196.646ZM202.761 292.182C201.92 292.182 201.195 291.996 200.585 291.625C199.979 291.25 199.511 290.727 199.182 290.057C198.856 289.383 198.693 288.598 198.693 287.705C198.693 286.811 198.856 286.023 199.182 285.341C199.511 284.655 199.97 284.121 200.557 283.739C201.148 283.352 201.837 283.159 202.625 283.159C203.08 283.159 203.528 283.235 203.972 283.386C204.415 283.538 204.818 283.784 205.182 284.125C205.545 284.462 205.835 284.909 206.051 285.466C206.267 286.023 206.375 286.708 206.375 287.523V288.091H199.648V286.932H205.011C205.011 286.439 204.913 286 204.716 285.614C204.523 285.227 204.246 284.922 203.886 284.699C203.53 284.475 203.11 284.364 202.625 284.364C202.091 284.364 201.629 284.496 201.239 284.761C200.852 285.023 200.555 285.364 200.347 285.784C200.138 286.205 200.034 286.655 200.034 287.136V287.909C200.034 288.568 200.148 289.127 200.375 289.585C200.606 290.04 200.926 290.386 201.335 290.625C201.744 290.86 202.22 290.977 202.761 290.977C203.114 290.977 203.432 290.928 203.716 290.83C204.004 290.727 204.252 290.576 204.46 290.375C204.669 290.17 204.83 289.917 204.943 289.614L206.239 289.977C206.102 290.417 205.873 290.803 205.551 291.136C205.229 291.466 204.831 291.723 204.358 291.909C203.884 292.091 203.352 292.182 202.761 292.182ZM212.301 283.273V284.409H207.597V283.273H212.301ZM209.006 292V282.068C209.006 281.568 209.123 281.152 209.358 280.818C209.593 280.485 209.898 280.235 210.273 280.068C210.648 279.902 211.044 279.818 211.46 279.818C211.79 279.818 212.059 279.845 212.267 279.898C212.475 279.951 212.631 280 212.733 280.045L212.347 281.205C212.278 281.182 212.184 281.153 212.062 281.119C211.945 281.085 211.79 281.068 211.597 281.068C211.153 281.068 210.833 281.18 210.636 281.403C210.443 281.627 210.347 281.955 210.347 282.386V292H209.006ZM217.976 283.273V284.409H213.453V283.273H217.976ZM214.771 281.182H216.112V289.5C216.112 289.879 216.167 290.163 216.277 290.352C216.391 290.538 216.535 290.663 216.709 290.727C216.887 290.788 217.074 290.818 217.271 290.818C217.419 290.818 217.54 290.811 217.635 290.795C217.73 290.777 217.805 290.761 217.862 290.75L218.135 291.955C218.044 291.989 217.917 292.023 217.754 292.057C217.591 292.095 217.385 292.114 217.135 292.114C216.756 292.114 216.385 292.032 216.021 291.869C215.661 291.706 215.362 291.458 215.124 291.125C214.889 290.792 214.771 290.371 214.771 289.864V281.182Z" fill="black"/>
<path d="M41 140H1V288H34" stroke="black"/>
</svg>
